<svg xmlns="http://www.w3.org/2000/svg" width="371" height="302" viewBox="0 0 371 302">
    <defs>
        <linearGradient id="4r3r50w47a" x1="50.016%" x2="50.016%" y1="99.982%" y2=".001%">
            <stop offset="0%" stop-color="gray" stop-opacity=".25"/>
            <stop offset="54%" stop-color="gray" stop-opacity=".12"/>
            <stop offset="100%" stop-color="gray" stop-opacity=".1"/>
        </linearGradient>
        <linearGradient id="naes9q4gjb" x1="50.028%" x2="50.028%" y1="99.976%" y2="-.106%">
            <stop offset="0%" stop-color="gray" stop-opacity=".25"/>
            <stop offset="54%" stop-color="gray" stop-opacity=".12"/>
            <stop offset="100%" stop-color="gray" stop-opacity=".1"/>
        </linearGradient>
        <linearGradient id="nv7rrxu5ic" x1="49.927%" x2="49.927%" y1="99.961%" y2="-.078%">
            <stop offset="0%" stop-color="gray" stop-opacity=".25"/>
            <stop offset="54%" stop-color="gray" stop-opacity=".12"/>
            <stop offset="100%" stop-color="gray" stop-opacity=".1"/>
        </linearGradient>
        <linearGradient id="umi6xhw4qd" x1="50%" x2="50%" y1="99.99%" y2="0%">
            <stop offset="0%" stop-color="gray" stop-opacity=".25"/>
            <stop offset="54%" stop-color="gray" stop-opacity=".12"/>
            <stop offset="100%" stop-color="gray" stop-opacity=".1"/>
        </linearGradient>
        <linearGradient id="9ssbx5c0ee" x1="49.97%" x2="49.97%" y1="100.035%" y2="0%">
            <stop offset="0%" stop-color="gray" stop-opacity=".25"/>
            <stop offset="54%" stop-color="gray" stop-opacity=".12"/>
            <stop offset="100%" stop-color="gray" stop-opacity=".1"/>
        </linearGradient>
        <linearGradient id="gwpr5ku6pf" x1="50.021%" x2="50.021%" y1="99.979%" y2="-.046%">
            <stop offset="0%" stop-color="gray" stop-opacity=".25"/>
            <stop offset="54%" stop-color="gray" stop-opacity=".12"/>
            <stop offset="100%" stop-color="gray" stop-opacity=".1"/>
        </linearGradient>
        <linearGradient id="jdpn08i04g" x1="50.024%" x2="50.024%" y1="78.348%" y2="21.348%">
            <stop offset="0%" stop-color="gray" stop-opacity=".25"/>
            <stop offset="54%" stop-color="gray" stop-opacity=".12"/>
            <stop offset="100%" stop-color="gray" stop-opacity=".1"/>
        </linearGradient>
        <linearGradient id="4zcs4s4ijh" x1="50.001%" x2="50.001%" y1="99.927%" y2=".101%">
            <stop offset="0%" stop-color="gray" stop-opacity=".25"/>
            <stop offset="54%" stop-color="gray" stop-opacity=".12"/>
            <stop offset="100%" stop-color="gray" stop-opacity=".1"/>
        </linearGradient>
        <linearGradient id="bi5szk2rsi" x1="49.988%" x2="49.988%" y1="99.782%" y2="0%">
            <stop offset="0%" stop-color="gray" stop-opacity=".25"/>
            <stop offset="54%" stop-color="gray" stop-opacity=".12"/>
            <stop offset="100%" stop-color="gray" stop-opacity=".1"/>
        </linearGradient>
        <linearGradient id="rkmrp9k4uj" x1="50.032%" x2="50.032%" y1="100%" y2=".02%">
            <stop offset="0%" stop-color="gray" stop-opacity=".25"/>
            <stop offset="54%" stop-color="gray" stop-opacity=".12"/>
            <stop offset="100%" stop-color="gray" stop-opacity=".1"/>
        </linearGradient>
        <linearGradient id="dfh2v6uukk" x1="50%" x2="50%" y1="100%" y2="0%">
            <stop offset="0%" stop-color="gray" stop-opacity=".25"/>
            <stop offset="54%" stop-color="gray" stop-opacity=".12"/>
            <stop offset="100%" stop-color="gray" stop-opacity=".1"/>
        </linearGradient>
        <linearGradient id="pnxargazul" x1="50.004%" x2="50.004%" y1="100%" y2="-.007%">
            <stop offset="0%" stop-color="gray" stop-opacity=".25"/>
            <stop offset="54%" stop-color="gray" stop-opacity=".12"/>
            <stop offset="100%" stop-color="gray" stop-opacity=".1"/>
        </linearGradient>
        <linearGradient id="93uzz5jiem" x1="49.994%" x2="49.994%" y1="99.899%" y2="-.124%">
            <stop offset="0%" stop-color="gray" stop-opacity=".25"/>
            <stop offset="54%" stop-color="gray" stop-opacity=".12"/>
            <stop offset="100%" stop-color="gray" stop-opacity=".1"/>
        </linearGradient>
        <linearGradient id="otmq3ni40n" x1="49.975%" x2="49.975%" y1="99.987%" y2="-.029%">
            <stop offset="0%" stop-color="gray" stop-opacity=".25"/>
            <stop offset="54%" stop-color="gray" stop-opacity=".12"/>
            <stop offset="100%" stop-color="gray" stop-opacity=".1"/>
        </linearGradient>
        <linearGradient id="kqghzvwoao" x1="50.04%" x2="50.04%" y1="99.997%" y2="-.18%">
            <stop offset="0%" stop-color="gray" stop-opacity=".25"/>
            <stop offset="54%" stop-color="gray" stop-opacity=".12"/>
            <stop offset="100%" stop-color="gray" stop-opacity=".1"/>
        </linearGradient>
        <linearGradient id="xm4dtv26vp" x1="50.04%" x2="50.04%" y1="99.797%" y2="-.19%">
            <stop offset="0%" stop-color="gray" stop-opacity=".25"/>
            <stop offset="54%" stop-color="gray" stop-opacity=".12"/>
            <stop offset="100%" stop-color="gray" stop-opacity=".1"/>
        </linearGradient>
        <linearGradient id="girpeco4cq" x1="49.828%" x2="49.828%" y1="100%" y2="0%">
            <stop offset="0%" stop-color="gray" stop-opacity=".25"/>
            <stop offset="54%" stop-color="gray" stop-opacity=".12"/>
            <stop offset="100%" stop-color="gray" stop-opacity=".1"/>
        </linearGradient>
        <linearGradient id="xj84iynpgr" x1="49.939%" x2="49.939%" y1="99.889%" y2="-.222%">
            <stop offset="0%" stop-color="gray" stop-opacity=".25"/>
            <stop offset="54%" stop-color="gray" stop-opacity=".12"/>
            <stop offset="100%" stop-color="gray" stop-opacity=".1"/>
        </linearGradient>
        <linearGradient id="t79mbzxsks" x1="50.007%" x2="50.007%" y1="100.021%" y2=".095%">
            <stop offset="0%" stop-color="gray" stop-opacity=".25"/>
            <stop offset="54%" stop-color="gray" stop-opacity=".12"/>
            <stop offset="100%" stop-color="gray" stop-opacity=".1"/>
        </linearGradient>
        <linearGradient id="21o7bqczst" x1="49.986%" x2="49.986%" y1="100.005%" y2="0%">
            <stop offset="0%" stop-color="gray" stop-opacity=".25"/>
            <stop offset="54%" stop-color="gray" stop-opacity=".12"/>
            <stop offset="100%" stop-color="gray" stop-opacity=".1"/>
        </linearGradient>
        <linearGradient id="zyj9b2dgsu" x1="49.783%" x2="49.783%" y1="100.118%" y2="0%">
            <stop offset="0%" stop-color="gray" stop-opacity=".25"/>
            <stop offset="54%" stop-color="gray" stop-opacity=".12"/>
            <stop offset="100%" stop-color="gray" stop-opacity=".1"/>
        </linearGradient>
        <linearGradient id="h42yuo13qv" x1="49.791%" x2="49.791%" y1="100.035%" y2="0%">
            <stop offset="0%" stop-color="gray" stop-opacity=".25"/>
            <stop offset="54%" stop-color="gray" stop-opacity=".12"/>
            <stop offset="100%" stop-color="gray" stop-opacity=".1"/>
        </linearGradient>
        <linearGradient id="iobyyws9mw" x1="51.108%" x2="51.108%" y1="100.087%" y2="0%">
            <stop offset="0%" stop-color="gray" stop-opacity=".25"/>
            <stop offset="54%" stop-color="gray" stop-opacity=".12"/>
            <stop offset="100%" stop-color="gray" stop-opacity=".1"/>
        </linearGradient>
        <linearGradient id="n1yruwtcix" x1="49.981%" x2="49.981%" y1="100.109%" y2=".574%">
            <stop offset="0%" stop-color="gray" stop-opacity=".25"/>
            <stop offset="54%" stop-color="gray" stop-opacity=".12"/>
            <stop offset="100%" stop-color="gray" stop-opacity=".1"/>
        </linearGradient>
        <linearGradient id="uhusysw8ky" x1="50%" x2="50%" y1="100.006%" y2="0%">
            <stop offset="0%" stop-color="gray" stop-opacity=".25"/>
            <stop offset="54%" stop-color="gray" stop-opacity=".12"/>
            <stop offset="100%" stop-color="gray" stop-opacity=".1"/>
        </linearGradient>
        <linearGradient id="pm7e69gayz" x1="49.993%" x2="49.993%" y1="66.72%" y2="32.72%">
            <stop offset="0%" stop-color="gray" stop-opacity=".25"/>
            <stop offset="54%" stop-color="gray" stop-opacity=".12"/>
            <stop offset="100%" stop-color="gray" stop-opacity=".1"/>
        </linearGradient>
        <linearGradient id="q6ilvbh2yA" x1="49.997%" x2="49.997%" y1="100.025%" y2="0%">
            <stop offset="0%" stop-color="gray" stop-opacity=".25"/>
            <stop offset="54%" stop-color="gray" stop-opacity=".12"/>
            <stop offset="100%" stop-color="gray" stop-opacity=".1"/>
        </linearGradient>
        <linearGradient id="i1nww84bfB" x1="49.996%" x2="49.996%" y1="99.974%" y2="-.014%">
            <stop offset="0%" stop-color="gray" stop-opacity=".25"/>
            <stop offset="54%" stop-color="gray" stop-opacity=".12"/>
            <stop offset="100%" stop-color="gray" stop-opacity=".1"/>
        </linearGradient>
        <linearGradient id="d626sg1yaC" x1="49.713%" x2="49.713%" y1="100%" y2="0%">
            <stop offset="0%" stop-color="gray" stop-opacity=".25"/>
            <stop offset="54%" stop-color="gray" stop-opacity=".12"/>
            <stop offset="100%" stop-color="gray" stop-opacity=".1"/>
        </linearGradient>
        <linearGradient id="e7s10xc5dD" x1="49.888%" x2="49.888%" y1="100%" y2="-.036%">
            <stop offset="0%" stop-color="gray" stop-opacity=".25"/>
            <stop offset="54%" stop-color="gray" stop-opacity=".12"/>
            <stop offset="100%" stop-color="gray" stop-opacity=".1"/>
        </linearGradient>
        <linearGradient id="byvo44slgE" x1="50.033%" x2="50.033%" y1="99.858%" y2="-.134%">
            <stop offset="0%" stop-color="gray" stop-opacity=".25"/>
            <stop offset="54%" stop-color="gray" stop-opacity=".12"/>
            <stop offset="100%" stop-color="gray" stop-opacity=".1"/>
        </linearGradient>
        <linearGradient id="8nugn7xs2F" x1="50.083%" x2="50.083%" y1="100%" y2="0%">
            <stop offset="0%" stop-color="gray" stop-opacity=".25"/>
            <stop offset="54%" stop-color="gray" stop-opacity=".12"/>
            <stop offset="100%" stop-color="gray" stop-opacity=".1"/>
        </linearGradient>
        <linearGradient id="0ff60xfvlG" x1="50.074%" x2="50.074%" y1="99.959%" y2="0%">
            <stop offset="0%" stop-color="gray" stop-opacity=".25"/>
            <stop offset="54%" stop-color="gray" stop-opacity=".12"/>
            <stop offset="100%" stop-color="gray" stop-opacity=".1"/>
        </linearGradient>
        <linearGradient id="ln47sdtnbH" x1="50.009%" x2="50.009%" y1="100.128%" y2=".043%">
            <stop offset="0%" stop-color="gray" stop-opacity=".25"/>
            <stop offset="54%" stop-color="gray" stop-opacity=".12"/>
            <stop offset="100%" stop-color="gray" stop-opacity=".1"/>
        </linearGradient>
        <linearGradient id="k3z39ryfnI" x1="49.992%" x2="49.992%" y1="100.132%" y2=".132%">
            <stop offset="0%" stop-color="gray" stop-opacity=".25"/>
            <stop offset="54%" stop-color="gray" stop-opacity=".12"/>
            <stop offset="100%" stop-color="gray" stop-opacity=".1"/>
        </linearGradient>
    </defs>
    <g fill="none" fill-rule="evenodd">
        <g>
            <g transform="translate(-796 -212) translate(796 212)">
                <path fill="#924623" fill-rule="nonzero" d="M215.554 40.888c-23.784-.822-46.436-8.493-68.067-16.884-21.63-8.39-43.055-17.699-66.27-22.129C66.287-.988 49.21-1.39 37.181 6.606 25.608 14.3 21.86 27.594 19.85 39.904c-1.514 9.272-2.404 19.032 1.742 27.712 2.88 6.027 7.989 11.092 11.524 16.862 12.3 20.088 3.605 44.856-9.72 64.467-6.247 9.198-13.505 17.985-18.33 27.767-4.826 9.782-7.056 21.013-2.834 31.004 4.182 9.91 14.152 17.34 24.953 22.57 21.936 10.625 47.774 13.665 72.988 15.39 55.796 3.81 111.887 2.162 167.83.506 20.704-.61 41.497-1.23 61.864-4.426 11.311-1.777 22.986-4.596 31.2-11.4 10.422-8.637 13.005-23.26 6.02-34.092-11.716-18.164-44.1-22.675-52.299-42.169-4.505-10.732.122-22.683 6.674-32.634 14.053-21.35 37.606-40.08 38.844-64.482.853-16.759-10.47-33.544-27.977-41.475C313.98 7.19 288.53 8.236 275 21.993c-13.946 14.171-38.45 19.626-59.446 18.895z" opacity=".1"/>
                <path stroke="#535461" stroke-width="2" d="M253 222s11.264-19.87 28.228-25.596c7.13-2.356 13.3-6.952 17.585-13.098 2.01-2.938 3.746-6.053 5.187-9.306"/>
                <path fill="#924623" fill-rule="nonzero" d="M314.568 170.245C312.7 172.089 304 174 304 174s2.137-8.797 4.005-10.646c1.869-1.845 4.853-1.799 6.665.104 1.812 1.903 1.767 4.942-.102 6.787zM310.184 186.94c-2.63.543-11.184-2.822-11.184-2.822s6.68-6.49 9.31-7.042c2.598-.47 5.083 1.295 5.596 3.976.514 2.681-1.134 5.296-3.709 5.889h-.013zM291.44 203.723c-2.578-.926-8.44-8.288-8.44-8.288s9.11-2.116 11.674-1.209c1.669.588 2.903 2.035 3.237 3.798.334 1.763-.283 3.573-1.617 4.749-1.335 1.175-3.185 1.538-4.854.95zM274.393 213.925c-2.61-.461-9.393-6.7-9.393-6.7s8.343-3.635 10.95-3.187c1.7.277 3.126 1.487 3.738 3.17.61 1.684.312 3.582-.783 4.971-1.095 1.39-2.818 2.056-4.512 1.746zM291.01 176.753c0 2.63 4.995 10.247 4.995 10.247S301 179.384 301 176.757c0-2.627-2.239-4.757-5-4.757s-5 2.13-5 4.757l.01-.004zM271.23 188.376c.829 2.588 8.034 8.624 8.034 8.624s2.39-8.968 1.561-11.556c-.536-1.674-1.946-2.942-3.699-3.325-1.752-.384-3.581.175-4.798 1.466-1.216 1.29-1.635 3.117-1.099 4.79zM253.045 203.424c.37 2.62 6.399 9.576 6.399 9.576s3.897-8.23 3.532-10.85c-.238-1.696-1.405-3.14-3.06-3.79-1.656-.65-3.55-.408-4.966.637-1.417 1.045-2.144 2.732-1.905 4.427z"/>
                <path fill="#000" fill-rule="nonzero" d="M314.568 170.245C312.7 172.089 304 174 304 174s2.137-8.797 4.005-10.646c1.869-1.845 4.853-1.799 6.665.104 1.812 1.903 1.767 4.942-.102 6.787zM310.184 186.94c-2.63.543-11.184-2.822-11.184-2.822s6.68-6.49 9.31-7.042c2.598-.47 5.083 1.295 5.596 3.976.514 2.681-1.134 5.296-3.709 5.889h-.013zM291.44 203.723c-2.578-.926-8.44-8.288-8.44-8.288s9.11-2.116 11.674-1.209c1.669.588 2.903 2.035 3.237 3.798.334 1.763-.283 3.573-1.617 4.749-1.335 1.175-3.185 1.538-4.854.95zM274.393 213.925c-2.61-.461-9.393-6.7-9.393-6.7s8.343-3.635 10.95-3.187c1.7.277 3.126 1.487 3.738 3.17.61 1.684.312 3.582-.783 4.971-1.095 1.39-2.818 2.056-4.512 1.746zM291.01 176.753c0 2.63 4.995 10.247 4.995 10.247S301 179.384 301 176.757c0-2.627-2.239-4.757-5-4.757s-5 2.13-5 4.757l.01-.004zM271.23 188.376c.829 2.588 8.034 8.624 8.034 8.624s2.39-8.968 1.561-11.556c-.536-1.674-1.946-2.942-3.699-3.325-1.752-.384-3.581.175-4.798 1.466-1.216 1.29-1.635 3.117-1.099 4.79zM253.045 203.424c.37 2.62 6.399 9.576 6.399 9.576s3.897-8.23 3.532-10.85c-.238-1.696-1.405-3.14-3.06-3.79-1.656-.65-3.55-.408-4.966.637-1.417 1.045-2.144 2.732-1.905 4.427z" opacity=".25"/>
                <path stroke="#535461" stroke-width="2" d="M254 222s2.208-22.897 15.336-35.08c5.541-5.078 9.299-11.829 10.71-19.24.64-3.524.96-7.098.954-10.68"/>
                <path fill="#924623" fill-rule="nonzero" d="M289.637 148.874c-1.034 2.564-8.682 8.126-8.682 8.126s-1.648-9.302-.614-11.866c.669-1.658 2.173-2.834 3.946-3.085 1.772-.25 3.544.463 4.648 1.87 1.103 1.408 1.37 3.297.702 4.955zM291.099 165.91C288.954 167.485 280 168 280 168s3.503-8.613 5.635-10.183c2.144-1.472 5.022-.903 6.5 1.285 1.477 2.188 1.018 5.204-1.036 6.809zM281.276 189.991c-2.797.23-11.276-4.079-11.276-4.079s7.645-5.655 10.427-5.886c1.82-.184 3.597.617 4.65 2.095 1.053 1.479 1.217 3.404.43 5.036-.79 1.631-2.407 2.715-4.231 2.834zM269.43 205.89c-2.62.697-11.43-2.153-11.43-2.153s6.357-6.898 8.973-7.599c2.59-.635 5.2.98 5.869 3.634.67 2.655-.848 5.372-3.412 6.114v.004zM269.429 165.086c1.117 2.551 8.91 7.914 8.91 7.914s1.33-9.44.217-11.992c-1.116-2.551-4.064-3.704-6.585-2.574-2.52 1.13-3.658 4.114-2.542 6.666v-.014zM256.232 184.242C258.058 186.3 267 189 267 189s-1.516-9.252-3.32-11.31c-1.806-2.061-4.937-2.265-6.994-.456-2.057 1.81-2.26 4.947-.454 7.007zM246.704 204.521C248.06 206.846 256 211 256 211s.07-9.322-1.298-11.647c-1.358-2.323-4.251-3.05-6.462-1.622-2.21 1.427-2.901 4.467-1.543 6.79h.008z"/>
                <path fill="#000" fill-rule="nonzero" d="M116 100H142V105H116zM115 132H154V137H115zM231 74H275V79H231z" opacity=".1"/>
                <path fill="#924623" fill-rule="nonzero" d="M93 71H254V232H93z" opacity=".1"/>
                <path fill="#FFF" fill-rule="nonzero" d="M99 63H260V224H99z"/>
                <path fill="#924623" fill-rule="nonzero" d="M115 81H243V86H115z" opacity=".5"/>
                <path fill="#000" fill-rule="nonzero" d="M116 116H197V121H116zM115 149H194V154H115zM116 165H223V170H116z" opacity=".1"/>
                <path fill="#3ACC6C" fill-rule="nonzero" d="M219.967 116.585l-.572-.55c-.025-.022-.058-.035-.093-.035-.033 0-.065.013-.088.035l-3.966 3.73-1.446-1.35c-.026-.02-.059-.033-.093-.034-.033 0-.065.013-.089.034l-.58.543c-.026.022-.04.054-.04.086 0 .033.014.064.04.087l1.822 1.696c.099.1.235.162.381.173.144-.011.278-.071.377-.17l4.347-4.071c.044-.05.044-.123 0-.174z" opacity=".5"/>
                <path fill="#3ACC6C" fill-rule="nonzero" d="M216.505 112.871c2.685-.002 4.998 1.894 5.524 4.528.525 2.634-.884 5.272-3.365 6.3-2.48 1.03-5.343.162-6.835-2.071-1.493-2.233-1.2-5.21.7-7.108 1.051-1.06 2.483-1.653 3.976-1.649m0-.871c-2.63-.002-5.002 1.581-6.01 4.01-1.006 2.43-.45 5.226 1.409 7.086 1.86 1.86 4.656 2.415 7.086 1.408 2.429-1.007 4.012-3.379 4.01-6.009-.005-3.583-2.912-6.486-6.495-6.486V112zM219.967 149.581l-.572-.546c-.024-.024-.058-.036-.093-.035-.033-.001-.066.011-.088.035l-3.966 3.725-1.446-1.344c-.024-.025-.058-.039-.093-.04-.034.001-.066.015-.089.04l-.58.537c-.026.023-.04.054-.04.087 0 .033.014.064.04.087l1.822 1.7c.099.1.235.162.381.173.143-.013.277-.073.377-.17l4.347-4.075c.044-.051.044-.123 0-.174z" opacity=".5"/>
                <path fill="#3ACC6C" fill-rule="nonzero" d="M216.505 145.893c2.685-.001 4.998 1.894 5.524 4.528.525 2.634-.884 5.272-3.365 6.3-2.48 1.03-5.343.162-6.835-2.07-1.493-2.234-1.2-5.21.7-7.11 1.051-1.058 2.483-1.651 3.976-1.648m0-.893c-2.63-.002-5.001 1.58-6.009 4.01-1.007 2.428-.452 5.225 1.406 7.084 1.859 1.86 4.655 2.417 7.084 1.411 2.43-1.005 4.014-3.376 4.014-6.005.001-1.724-.683-3.377-1.9-4.596-1.22-1.219-2.872-1.904-4.595-1.904z" opacity=".5"/>
                <ellipse cx="168" cy="296.5" fill="#924623" fill-rule="nonzero" opacity=".1" rx="32" ry="5.5"/>
                <g fill-rule="nonzero" transform="translate(16 249)">
                    <path fill="#924623" d="M26.508 0s2 2.725-.924 6.844c-2.923 4.118-5.341 7.588-4.363 10.156 0 0 4.412-7.644 8.007-7.75 3.595-.106 1.23-4.65-2.72-9.25z"/>
                    <path fill="#000" d="M26.457 0c.176.264.315.552.413.856 3.544 4.292 5.435 8.293 2.027 8.394-3.174.095-6.984 5.937-7.897 7.414.029.115.065.227.109.336 0 0 4.462-7.644 8.098-7.75 3.636-.106 1.245-4.65-2.75-9.25z" opacity=".1"/>
                    <path fill="#FFD037" d="M29.93 3.523C29.93 4.34 29.74 5 29.5 5s-.43-.66-.43-1.477c0-.817.24-.432.48-.432s.38-.38.38.432zM31.533 4.509c-.788.348-1.472.56-1.53.47-.056-.088.523-.423 1.316-.792.794-.37.475-.094.522 0 .047.093.475-.026-.308.322z"/>
                    <path fill="#924623" d="M15.492 0s-2.005 2.725.924 6.844c2.93 4.118 5.338 7.588 4.365 10.156 0 0-4.419-7.644-8.01-7.75-3.59-.106-1.235-4.65 2.72-9.25z"/>
                    <path fill="#000" d="M15.542 0c-.176.264-.315.552-.413.856-3.55 4.292-5.436 8.293-2.027 8.394 3.174.095 6.985 5.937 7.898 7.414-.033.112-.065.224-.109.336 0 0-4.468-7.644-8.1-7.75-3.63-.106-1.25-4.65 2.751-9.25z" opacity=".1"/>
                    <path fill="#FFD037" d="M12.07 3.523c0 .817.19 1.477.43 1.477s.43-.66.43-1.477c0-.817-.24-.432-.48-.432s-.38-.38-.38.432zM10.468 4.509c.782.348 1.465.56 1.527.47.063-.088-.52-.423-1.313-.792-.792-.37-.474-.094-.521 0-.047.093-.48-.026.307.322z"/>
                    <ellipse cx="21.5" cy="34" fill="#924623" opacity=".1" rx="21.5" ry="3"/>
                    <path fill="#65617D" d="M31.996 13.238l-.105.834-.142 1.167-.06.49-.143 1.173-.06.49-.148 1.167-1.645 13.326C29.551 33.073 27.594 34 25.237 34h-8.48c-2.356 0-4.308-.927-4.45-2.115l-1.645-13.326-.142-1.167-.06-.49-.143-1.173-.06-.49-.143-1.167-.11-.834C9.922 12.567 10.98 12 12.312 12h17.365c1.343 0 2.4.567 2.319 1.238z"/>
                    <path fill="#9D9CB5" d="M32 15L31.856 16 10.15 16 10 15zM32 16L31.853 17 10.147 17 10 16zM32 17L31.852 18 11.143 18 11 17z"/>
                </g>
                <path fill="#000" fill-rule="nonzero" d="M203.797 151.835c-.305-.62-2.727-8.596-2.727-8.596l-4.666-11.795s-2.832-15.522-7.058-11.65c-4.226 3.873 2.272 13.166 2.272 13.166s2.668 6.786 2.532 8.143c-.137 1.358 1.486 6.334 1.486 6.334l-.528 2.86c-.686-.046-1.131-.046-1.131-.046s-.418.597-.818.638c-.068.01-.137 0-.2-.027-.454-.204-1.959-.163-2.727-.163-.713-.096-1.404-.316-2.04-.651-.263-.525-1.754-.837-3.076-1.014-1.005-2.488-2.418-4.908-2.613-7.505-.096-.707.044-1.426.4-2.045.088-.133.188-.257.3-.371.368-.371.818-.697 1.227-1.04.204-.173.39-.35.568-.53 3.467-3.348 2.917-8.533-.228-12.12-3.635-4.15-20.03-13.075-24.993-5.43-.69 1.068-.713 2.303-.909 3.489-.494 2.899-1.86 5.58-3.917 7.69-1.645 1.743-3.803 3.349-4.749 5.321l-.031-.072c-.226.428-.39.884-.491 1.357-.477 2.402 1.15 4.714 2.004 7.053.29.795.5 1.616.627 2.452l.055-.515c.209 1.194.28 2.408.213 3.619-5.953 1.213-5.957 11.428-5.957 11.428s-.732 4.072-.61 5.524c.123 1.452.123 4.628.123 5.402s-.736 5.524-.818 6.094c-.104.629-1.222 3.642 1.477 4.32.187.05.387.091.591.127.114 2.439.327 7.556.141 8.687 0 0 .982 6.868 1.795 8.596.522 1.022 1.13 1.998 1.818 2.918-.058.417-.199.818-.414 1.18-.413.602-.2 1.096.495 1.308-.02.208-.048.444-.081.706-.296 2.651-.741 7.913 0 10.582 1.04 3.656 1.1 4.873 1.1 4.873-.001.594.145 1.18.426 1.705.455.61 1.227 6.275 1.227 7.19 0 .913 2.082 9.138 1.468 11.088-.613 1.95-.123 4.691-.123 4.691s-.368 4.814-.795 5.85c-.427 1.036-.613 17.73.06 22.056.672 4.325 1.104 7.921 1.104 7.921s-.455 3.96-.064 4.525c.39.565 1.04 3.84.55 4.022-.491.18-.732 1.524-.732 1.524.259.393.538.772.836 1.136-.19-.066-.375-.145-.554-.235.195.276.486.656.84 1.072l-.331 4.38c-.03.353.2.677.545.768 2.19.598 4.531-.062 6.08-1.714 3.059-3.108 4.09-2.679 4.654-4.57.054-.203.109-.398.15-.588.171-.744-.102-1.52-.703-1.993-.601-.474-1.423-.561-2.11-.224.195-1.357.35-2.845.2-3.7-.305-1.765-.246-6.398-.246-6.398l-.427-22.168s.795-4.384 1.713-6.09c.918-1.705.796-7.69.796-7.69l1.04-19.622 1.036-9.501s.977-3.29 2.2.366c0 0-.673 7.37-.364 9.14.31 1.768.732 10.355.427 12.246-.304 1.891-1.654 12.247-.795 14.867.859 2.62 1.772 5.786 1.59 6.822-.181 1.036-.795 23.526-.795 23.526s1.65 4.325.427 5.728c-1.222 1.402-.059 7.008-.059 7.008s.146.104.4.253l-.036.452-.382 5.04c-.027.354.202.677.545.77 2.19.595 4.53-.065 6.08-1.715 3.059-3.108 4.09-2.683 4.654-4.57.054-.203.109-.402.154-.592.19-.827-.17-1.683-.896-2.128-.726-.445-1.655-.38-2.312.16-.02.022-.043.041-.068.058-.077.068-.159.127-.24.186l-.119.077c.304-1.394.75-3.769.54-4.89-.304-1.648.305-6.642.305-6.642s1.777-5.972 1.818-8.347c.04-2.376.49-19.002.49-19.002s-.058-7.736.187-9.623c.245-1.887 2.2-18.219 4.158-23.073 1.504-3.737 2.177-13.26 1.777-18.097-.023-.244-.046-.453-.068-.688 2.394-1.791 2.649-4.741 2.649-4.741s-2.204-4.226-4.326-6.013c-2.122-1.787-2.613-4.872-2.531-6.175.037-.795-.224-1.576-.732-2.19 0 0-.982-3.167-1.636-3.493-.054-.026-.101-.063-.14-.108-.455-.48-.105-1.842-.105-1.842v-.04c.072-.317.55-2.362.395-2.887-.154-.525.082-3.248.082-3.248s1.554-4.628 1.309-8.284c-.246-3.655 3.18-3.334 3.18-3.334l10.584-.109h1.204c.508-.431.965-.918 1.364-1.452.826.155 1.679-.053 2.34-.57 2.245-2.045 1.967-5.95 1.663-6.578zm-49.218 31.67l.077-1.856.413.353c.127.487.127.997 0 1.484-.13.463-.464.843-.908 1.031-.053.026-.103.057-.15.091l-.105-1.059c.432-.027.673-.05.673-.05v.005z" opacity=".1"/>
                <path fill="url(#4r3r50w47a)" fill-rule="nonzero" d="M194.01 154.6s5.9 3.844 8.133 1.802c2.234-2.041 1.958-5.98 1.655-6.602-.302-.622-2.705-8.621-2.705-8.621l-4.641-11.844s-2.821-15.588-7.03-11.717c-4.21 3.871 2.269 13.218 2.269 13.218s2.67 6.819 2.518 8.184c-.15 1.366 1.478 6.368 1.478 6.368l-1.678 9.212z"/>
                <path fill="url(#naes9q4gjb)" fill-rule="nonzero" d="M182.953 294.542c-.047.203-.098.41-.163.623-.575 1.987-1.664 1.538-4.861 4.804-1.627 1.74-4.07 2.432-6.357 1.802-.358-.095-.598-.434-.57-.807l.402-5.299.192-2.553s5.09 1.444 7.684-.382c.084-.061.168-.122.247-.193l.075-.062c.684-.565 1.648-.632 2.402-.167.755.465 1.135 1.361.95 2.234z"/>
                <path fill="url(#nv7rrxu5ic)" fill-rule="nonzero" d="M166.951 292.544c-.042.203-.098.41-.158.622-.575 1.986-1.665 1.538-4.862 4.802-1.628 1.737-4.07 2.43-6.358 1.806-.361-.093-.602-.436-.57-.81l.397-5.298.197-2.551s5.09 1.443 7.68-.382c.089-.062.168-.123.253-.194l.074-.061c.683-.568 1.648-.636 2.403-.17.755.466 1.135 1.364.944 2.236z"/>
                <g fill="url(#umi6xhw4qd)" fill-rule="nonzero" opacity=".1" transform="translate(155 293)">
                    <path d="M7.398.16l.211 2.591C4.664 5.507 1.162 1.418.127.058c2.697 1.306 7.27.102 7.27.102z"/>
                </g>
                <g fill="url(#9ssbx5c0ee)" fill-rule="nonzero" opacity=".1" transform="translate(171 293)">
                    <path d="M7.32 1.658l.369-.24C5.147 5.248 1.378 3.48.204 2.796L.387.39s4.84 1.36 7.306-.36C7.498.97 7.32 1.658 7.32 1.658z"/>
                </g>
                <path fill="url(#gwpr5ku6pf)" fill-rule="nonzero" d="M186.11 220.207c-1.962 4.912-3.923 21.37-4.17 23.274-.246 1.904-.183 9.7-.183 9.7l-.51 19.159c-.059 2.397-1.837 8.412-1.837 8.412s-.613 5.038-.309 6.693c.305 1.655-.797 6.02-.797 6.02l.372-.244c-3.067 4.662-7.908 1.162-7.908 1.162s-1.165-5.649.058-7.06c1.222-1.411-.425-5.77-.425-5.77s.609-22.66.797-23.704c.188-1.045-.699-4.238-1.595-6.879-.895-2.641.489-13.08.798-14.983.309-1.904-.126-10.56-.448-12.343-.323-1.781.367-9.212.367-9.212-1.227-3.682-2.208-.366-2.208-.366l-.98 9.642-1.008 19.795s.125 6.015-.797 7.734c-.923 1.719-1.715 6.142-1.715 6.142l.448 22.35s-.063 4.668.246 6.45-.676 6.386-.676 6.386c-3.43 8.104-8.957-.674-8.957-.674s.242-1.357.735-1.538c.492-.18-.184-3.5-.551-4.07-.367-.57.058-4.523.058-4.523s-.425-3.618-1.101-7.987c-.677-4.369-.488-21.184-.063-22.228.425-1.045.797-5.88.797-5.88s-.488-2.763.125-4.73c.614-1.968-1.473-10.253-1.473-11.176s-.797-6.63-1.227-7.236c-.288-.526-.442-1.117-.448-1.719 0 0-.062-1.23-1.106-4.911-.761-2.714-.313-7.996 0-10.665.108-.99.197-1.619.197-1.619s35.185-5.712 36.595-4.418c.332.298.551 1.356.676 2.83.4 4.822-.277 14.423-1.777 18.186z"/>
                <g fill="url(#jdpn08i04g)" fill-rule="nonzero" opacity=".1" transform="translate(173 248)">
                    <path d="M.07.36c.17 0 4.153.365 5.644.045C7.204.085.069.36.069.36z"/>
                </g>
                <g fill="url(#4zcs4s4ijh)" fill-rule="nonzero" opacity=".1" transform="translate(173 250)">
                    <path d="M.339.263s5.142.694 5.4.334C5.996.237.339.263.339.263z"/>
                </g>
                <g fill="url(#bi5szk2rsi)" fill-rule="nonzero" opacity=".1" transform="translate(157 249)">
                    <path d="M.09.207s2.82.09 4.355.603C5.982 1.323.091.207.091.207z"/>
                </g>
                <path fill="url(#rkmrp9k4uj)" fill-rule="nonzero" d="M147 180.087s.449 8.63.207 10.154c0 0 .983 6.98 1.796 8.754.733 1.415 1.597 2.756 2.581 4.005L154 185.866l-.561-5.866-6.439.087z"/>
                <circle cx="172.5" cy="132.5" r="9.5" fill="url(#dfh2v6uukk)" fill-rule="nonzero"/>
                <path fill="url(#pnxargazul)" fill-rule="nonzero" d="M167.35 136.33s-3.027 5.942-6.054 8.727S179.456 151 179.959 151c.502 0-3.782-12.645-3.027-14.163.756-1.518-9.583-.507-9.583-.507z"/>
                <g fill="url(#93uzz5jiem)" fill-rule="nonzero" opacity=".1" transform="translate(150 199)">
                    <path d="M37.923 3.22c-.467.343-.982.62-1.529.823-3.795 1.426-7.926 3.408-10.735 2.625-2.81-.784-8.749 0-8.749 0S4.935 5.714 2.542 6.269c-.802.236-1.656.257-2.47.062.109-.959.2-1.567.2-1.567S35.814-.76 37.24.49c.335.28.556 1.29.683 2.73z"/>
                </g>
                <path fill="url(#otmq3ni40n)" fill-rule="nonzero" d="M191 196.534s-.33 4.07-4.132 5.568c-3.802 1.497-7.93 3.523-10.74 2.713-2.81-.81-8.753 0-8.753 0s-11.98-.986-14.374-.411c-2.394.574-3.62-.163-2.892-1.23.73-1.068.666-4.582.666-6.057 0-1.474-.829-7.454-.086-8.516.742-1.063 1.403-5.157 2.892-5.812.451-.188.793-.571.927-1.04.13-.491.13-1.007 0-1.498 0 0-.248-.203-.597-.511-.873-.773-2.358-2.212-1.883-2.682.661-.656 0-4.917 0-4.917s-1.57-3.274-.99-4.5c.579-1.226-5.038-7.689-5.038-7.689s0-11.135 6.789-11.628c0 0 4.788.167 5.367-1.963.58-2.13 4.377-3.361 4.377-3.361l8.671 1.886s7.694 1.637 9.088.656c1.394-.982 2.48 1.307 2.48 1.307s4.788.249 5.286 1.23c.498.982-1.57 10.561-1.57 10.561s-3.472-.325-3.223 3.361c.25 3.686-1.321 8.35-1.321 8.35s-.249 2.713-.082 3.274c.168.56-.325 2.587-.402 2.908v.041s-.344 1.357.104 1.859c.043.042.092.079.145.108.66.326 1.651 3.52 1.651 3.52.517.618.783 1.406.747 2.211-.081 1.312.412 4.419 2.557 6.224 2.146 1.804 4.336 6.038 4.336 6.038z"/>
                <path fill="url(#kqghzvwoao)" fill-rule="nonzero" d="M154 178.618v.355l-.157 3.906s-5.166.416-7.984-.295c-2.818-.71-1.625-3.795-1.515-4.44.083-.587.838-5.47.838-6.264 0-.793 0-4.05-.124-5.534-.124-1.485.63-5.677.63-5.677l.544-.669 5.926 2.255L154 178.618z"/>
                <g fill="url(#xm4dtv26vp)" fill-rule="nonzero" opacity=".1" transform="translate(144 177)">
                    <path d="M9.63.99l-.147 3.85s-4.879.41-7.54-.29C-.717 3.85.41.81.513.173L9.63.99z"/>
                </g>
                <g fill="url(#girpeco4cq)" fill-rule="nonzero" opacity=".1" transform="translate(154 177)">
                    <path d="M.903 4.83c.13-.453.13-.928 0-1.38 0 0-.248-.188-.596-.47C4.674 2.424 21.957.25 27.783.016v.037s-.343 1.25.104 1.713L.903 4.829z"/>
                </g>
                <g fill="url(#xj84iynpgr)" fill-rule="nonzero" opacity=".1" transform="translate(179 185)">
                    <path d="M3.435.085S4.62 6.39.195 8.612c0 0 2.51-3.14 3.24-8.527z"/>
                </g>
                <g fill="url(#t79mbzxsks)" fill-rule="nonzero" opacity=".1" transform="translate(156 192)">
                    <path d="M.409 1.26S9.898-.55 11.764.85C13.631 2.25.41 1.26.41 1.26z"/>
                </g>
                <g fill="url(#21o7bqczst)" fill-rule="nonzero" opacity=".1" transform="translate(177 156)">
                    <path d="M1.235.028s-1.64 6.301-.41 7.75c1.23 1.45.41-7.75.41-7.75z"/>
                </g>
                <g fill="url(#zyj9b2dgsu)" fill-rule="nonzero" opacity=".1" transform="translate(151 151)">
                    <path d="M.2.042s1 2.083.397 4.225C-.007 6.408.2.042.2.042z"/>
                </g>
                <path fill="url(#h42yuo13qv)" fill-rule="nonzero" d="M148 171s1.362 1.032.907 2.637C148.452 175.242 148 171 148 171z"/>
                <g fill="url(#iobyyws9mw)" fill-rule="nonzero" opacity=".1" transform="translate(148 166)">
                    <path d="M0 .205s1.424.955 1.6 2.355C1.776 3.96 0 .205 0 .205z"/>
                </g>
                <g fill="url(#n1yruwtcix)" fill-rule="nonzero" opacity=".1" transform="translate(171 214)">
                    <path d="M.362 1.468s10.382.908 12.457-1.2c0 .008-9.365 1.6-12.457 1.2z"/>
                </g>
                <g fill="url(#uhusysw8ky)" fill-rule="nonzero" opacity=".1" transform="translate(154 214)">
                    <path d="M.08.205S10.84 3.01 12.965.79c0 0-9.243.77-12.883-.585z"/>
                </g>
                <g fill="url(#pm7e69gayz)" fill-rule="nonzero" opacity=".1" transform="translate(172 218)">
                    <path d="M.223.505s4.375 0 6.427.135C8.702.775.223.505.223.505z"/>
                </g>
                <g fill="url(#q6ilvbh2yA)" fill-rule="nonzero" opacity=".1" transform="translate(154 220)">
                    <path d="M.378.104S2.654 2.312 5.22 1.916C7.786 1.52.378.104.378.104z"/>
                </g>
                <path fill="url(#i1nww84bfB)" fill-rule="nonzero" d="M159.148 118.026c-.7 1.077-.723 2.322-.903 3.516-.498 2.936-1.878 5.65-3.956 7.778-1.978 2.09-4.692 3.982-5.202 6.534-.483 2.425 1.16 4.755 2.023 7.112 2.258 6.222-.903 12.742-1.829 19.162-.253 1.774.055 4.04 2.258 4.629.686.186 1.472.163 2.086.452.831.394 1.084 1.213 1.238 1.95.55 2.637.74 5.335.564 8.023-.1 1.511-.208 3.244 1.224 4.28.73.452 1.534.77 2.375.941 2.258.607 5.18 1.09 6.701-.325.641-.593.903-1.435 1.675-1.905 1.192-.702 2.886-.227 4.39-.154 2.893.124 5.626-1.335 7.138-3.81 1.215-2.176 1.111-4.656.66-7-.452-2.343-1.228-4.66-1.287-7.03-.07-.832.116-1.664.533-2.385.903-1.412 3.057-2.055 4.515-3.168 2.737-2.081 2.71-5.493 1.734-8.348-.975-2.855-2.781-5.583-3.003-8.533-.097-.714.046-1.44.407-2.063.478-.592 1.037-1.113 1.661-1.548 3.997-3.353 3.527-8.864.222-12.633-3.667-4.194-20.234-13.198-25.224-5.475z"/>
                <g fill-rule="nonzero" opacity=".1">
                    <path fill="url(#d626sg1yaC)" d="M3.049 18.06c.39-2.471.176-5.001-.621-7.37C1.98 9.502 1.368 8.319.916 7.13c-.227.425-.392.882-.491 1.355-.483 2.416 1.149 4.742 2.003 7.1.288.801.496 1.63.62 2.474z" transform="translate(149 128)"/>
                    <path fill="url(#e7s10xc5dD)" d="M6.706 44.84c.174-2.682-.015-5.376-.563-8.006-.152-.737-.403-1.554-1.22-1.947-.613-.293-1.391-.27-2.07-.452-.842-.204-1.544-.786-1.905-1.58-.12.623-.233 1.246-.322 1.865-.255 1.77.05 4.033 2.235 4.62.68.185 1.458.163 2.07.452.818.393 1.069 1.21 1.22 1.946.254 1.22.43 2.456.528 3.699-.009-.194.027-.398.027-.596z" transform="translate(149 128)"/>
                    <path fill="url(#byvo44slgE)" d="M29.953 43.888c-1.496 2.47-4.2 3.926-7.064 3.802-1.488-.072-3.165-.546-4.345.154-.787.451-1.028 1.31-1.659 1.901-1.506 1.414-4.399.93-6.634.325-.833-.17-1.63-.487-2.351-.939-.618-.45-1.034-1.129-1.158-1.888 0 .84 0 1.685-.054 2.525C6.59 51.272 6.482 53 7.9 54.035c.722.452 1.518.77 2.351.94 2.235.61 5.128 1.088 6.634-.325.63-.592.895-1.427 1.659-1.897 1.18-.705 2.857-.23 4.345-.154 2.865.125 5.57-1.334 7.064-3.807 1.158-2.086 1.109-4.453.706-6.71-.155.63-.392 1.238-.706 1.806z" transform="translate(149 128)"/>
                    <path fill="url(#8nugn7xs2F)" d="M35.134 3.875c-.619.433-1.174.953-1.65 1.544-.355.623-.494 1.348-.397 2.06.076.895.264 1.776.559 2.624.456-.485.954-.928 1.488-1.324 2.683-2.258 3.326-5.51 2.46-8.54-.46 1.424-1.313 2.686-2.46 3.636z" transform="translate(149 128)"/>
                    <path fill="url(#0ff60xfvlG)" d="M34.343 24.328c-1.448 1.107-3.576 1.748-4.47 3.162-.415.719-.6 1.55-.528 2.38.034.957.15 1.909.349 2.845.053-.11.113-.217.178-.32.895-1.405 3.023-2.051 4.471-3.162 2.472-1.897 2.682-4.9 1.95-7.578-.375 1.066-1.053 1.996-1.95 2.673z" transform="translate(149 128)"/>
                </g>
                <path fill="url(#ln47sdtnbH)" fill-rule="nonzero" d="M201.811 152.725c-1.668 4.42-3.827 6.162-3.827 6.162h-1.2l-10.562.113-1.222-3.485 1.713-7.515 1.052.07c.635.351 1.324.582 2.034.681.772 0 2.28-.042 2.726.17.063.03.132.04.2.028.397-.043.821-.667.821-.667s9.933.019 8.265 4.443z"/>
                <g fill="url(#k3z39ryfnI)" fill-rule="nonzero" opacity=".1" transform="translate(193 148)">
                    <path d="M8.781 4.625c-1.602 4.313-3.677 6.013-3.677 6.013H3.951c.6-1.71 1.869-5.22 2.366-6.027C6.814 3.804 2.541 1.934.056.903.437.862.844.253.844.253s9.54.054 7.937 4.372z"/>
                </g>
                <path fill="#EFB7B9" fill-rule="nonzero" d="M193.003 156.606s5.875 3.844 8.135 1.79c2.26-2.053 1.957-5.978 1.654-6.6-.303-.623-2.712-8.632-2.712-8.632l-4.641-11.843s-2.816-15.587-7.019-11.698c-4.202 3.889 2.26 13.22 2.26 13.22s2.653 6.814 2.517 8.177c-.135 1.363 1.478 6.36 1.478 6.36l-1.672 9.226z"/>
                <path fill="#924623" fill-rule="nonzero" d="M181.952 294.291c-.043.18-.096.368-.148.56-.53 1.785-1.527 1.383-4.456 4.323-1.485 1.561-3.727 2.186-5.824 1.622-.329-.087-.548-.393-.522-.728l.366-4.767.178-2.294s4.666 1.284 7.038-.347c.078-.055.156-.11.23-.175.024-.016.046-.035.066-.056.629-.51 1.519-.571 2.214-.15.694.42 1.04 1.23.858 2.012zM166.952 292.292c-.04.18-.091.364-.144.557-.53 1.79-1.528 1.383-4.458 4.323-1.484 1.564-3.728 2.189-5.825 1.623-.33-.086-.55-.393-.523-.728l.366-4.769.179-2.294s4.667 1.284 7.04-.347c.08-.053.157-.11.23-.171l.066-.06c.63-.509 1.52-.567 2.213-.146.694.422 1.038 1.23.856 2.012z"/>
                <path fill="#000" fill-rule="nonzero" d="M161.803 293.104l.197 2.868c-2.753 3.04-6.033-1.486-7-2.972 2.533 1.426 6.803.104 6.803.104zM178.654 294.725l.342-.252c-2.373 4.058-5.911 2.186-6.996 1.459l.173-2.547S176.7 294.81 179 293c-.182.993-.346 1.725-.346 1.725z" opacity=".1"/>
                <path fill="#444053" fill-rule="nonzero" d="M186.094 221.078c-1.962 4.858-3.924 21.138-4.166 23.005-.241 1.868-.186 9.595-.186 9.595l-.492 18.946c-.06 2.368-1.821 8.322-1.821 8.322s-.61 4.962-.305 6.622c.305 1.66-.797 5.955-.797 5.955l.369-.244c-3.064 4.615-7.908 1.155-7.908 1.155s-1.166-5.589.059-6.987c1.225-1.399-.428-5.711-.428-5.711s.615-22.415.797-23.457c.182-1.042-.738-4.19-1.594-6.802-.856-2.612.492-12.942.797-14.823.305-1.881-.123-10.452-.428-12.211-.305-1.76.364-9.112.364-9.112-1.224-3.645-2.203-.365-2.203-.365l-.984 9.536-1.06 19.581s.123 5.95-.797 7.669c-.92 1.719-1.712 6.054-1.712 6.054l.428 22.103s-.06 4.62.246 6.378c.305 1.76-.674 6.316-.674 6.316-3.433 8.015-8.95-.668-8.95-.668s.245-1.353.732-1.52c.488-.167-.182-3.465-.55-4.01-.37-.546.063-4.511.063-4.511s-.455-3.586-1.106-7.899c-.651-4.312-.487-20.957-.06-21.99.429-1.033.798-5.833.798-5.833s-.492-2.734.122-4.678c.615-1.944-1.47-10.145-1.47-11.056 0-.911-.797-6.559-1.23-7.168-.28-.523-.428-1.107-.427-1.7 0 0-.06-1.214-1.102-4.859-.76-2.661-.314-7.907 0-10.55.11-.98.2-1.602.2-1.602s35.193-5.648 36.604-4.371c.328.298.55 1.353.674 2.801.378 4.845-.296 14.34-1.803 18.089z"/>
                <path fill="#000" fill-rule="nonzero" d="M173 248.97c.174 0 4.294.325 5.796.04 1.502-.284-5.796-.04-5.796-.04zM173 251s5.685 1.583 5.99.765c.304-.818-5.99-.764-5.99-.764zM157 250s3.059.123 4.723.818c1.665.694-4.723-.818-4.723-.818z" opacity=".1"/>
                <path fill="#EFB7B9" fill-rule="nonzero" d="M147 181.083s.456 8.635.205 10.163c0 0 .984 6.987 1.8 8.745.733 1.415 1.597 2.758 2.58 4.009L154 186.869l-.57-5.869-6.43.083z"/>
                <circle cx="172.5" cy="133.5" r="9.5" fill="#EFB7B9" fill-rule="nonzero"/>
                <path fill="#EFB7B9" fill-rule="nonzero" d="M167.014 138.31s-2.864 5.543-5.733 8.142c-2.87 2.599 17.2 5.548 17.68 5.548.479 0-3.583-11.806-2.87-13.221.714-1.416-9.077-.47-9.077-.47z"/>
                <path fill="#000" fill-rule="nonzero" d="M188 203.136c-.455.366-.958.662-1.492.88-3.713 1.523-7.749 3.638-10.495 2.79-2.746-.848-8.54 0-8.54 0s-11.686-1.013-14.041-.424c-.791.25-1.632.267-2.432.052.108-1.023.198-1.673.198-1.673s34.743-5.898 36.137-4.565c.323.311.544 1.39.665 2.94z" opacity=".1"/>
                <path fill="#924623" fill-rule="nonzero" d="M191 197.68s-.324 4.037-4.046 5.477c-3.723 1.44-7.75 3.464-10.498 2.66-2.747-.802-8.542 0-8.542 0s-11.689-.968-14.044-.403c-2.356.565-3.552-.162-2.828-1.211.724-1.05.647-4.486.647-5.958 0-1.471-.81-7.33-.08-8.38.727-1.05 1.348-5.074 2.827-5.72.44-.187.77-.563.9-1.022.124-.483.124-.99 0-1.472 0 0-.244-.202-.585-.502-.855-.763-2.302-2.176-1.835-2.638.643-.646 0-4.836 0-4.836s-1.537-3.221-.97-4.428c.566-1.207-4.946-7.572-4.946-7.572s0-10.955 6.622-11.44c0 0 4.68.162 5.247-1.933.566-2.095 4.28-3.302 4.28-3.302l8.474 1.853s7.508 1.61 8.88.646c1.37-.965 2.405 1.283 2.405 1.283s4.68.242 5.165 1.207c.486.964-1.533 10.39-1.533 10.39s-3.39-.32-3.147 3.305c.243 3.625-1.295 8.214-1.295 8.214s-.242 2.66-.08 3.221c.161.561-.32 2.549-.392 2.863v.04s-.332 1.346.104 1.826c.039.044.086.081.14.107.647.319 1.618 3.464 1.618 3.464.502.609.76 1.383.723 2.17-.08 1.293.405 4.352 2.505 6.124 2.1 1.772 4.284 5.967 4.284 5.967z"/>
                <path fill="#924623" fill-rule="nonzero" d="M155 178.812v.338l-.155 3.733s-5.164.4-7.981-.28-1.634-3.626-1.526-4.244c.084-.56.845-5.23.845-5.986 0-.756 0-3.871-.127-5.307-.127-1.435.63-5.426.63-5.426l.549-.64 5.943 2.155L155 178.812z"/>
                <path fill="#000" fill-rule="nonzero" d="M155 178.852l-.155 4.022s-5.164.431-7.981-.302c-2.817-.732-1.634-3.906-1.526-4.572l9.662.852z" opacity=".1"/>
                <path fill="#000" fill-rule="nonzero" d="M154.584 183c.125-.472.125-.967 0-1.439 0 0-.243-.197-.584-.49 4.278-.58 21.195-2.847 26.897-3.071v.04s-.333 1.315.103 1.785L154.584 183zM181.871 186s1.055 5.91-2.871 8c0 0 2.227-2.932 2.871-8zM156 194.734s9.866-1.412 11.812-.319c1.945 1.093-11.812.319-11.812.319zM178.765 157s-1.446 6.38-.362 7.844c1.083 1.464.362-7.844.362-7.844zM151.062 152s1.598 2.22.623 4.525c-.975 2.305-.623-4.525-.623-4.525z" opacity=".1"/>
                <path fill="#924623" fill-rule="nonzero" d="M148 172s1.362 1.032.907 2.637C148.452 176.243 148 172 148 172z"/>
                <path fill="#000" fill-rule="nonzero" d="M148 168s1.758.712 1.984 1.764C150.21 170.817 148 168 148 168zM172 215.724s10.004 1.294 12-1.724c0 .023-9.022 2.27-12 1.724zM154 215s10.853 1.946 13 .409c0 .014-9.327.534-13-.409zM172 218.922s4.559 0 6.672.122c2.113.122-6.672-.122-6.672-.122zM155 221s2.114 2.378 4.498 1.948C161.882 222.518 155 221 155 221z" opacity=".1"/>
                <path fill="#E3787D" fill-rule="nonzero" d="M159.887 119.97c-.678 1.06-.7 2.289-.893 3.467-.486 2.882-1.828 5.547-3.85 7.645-1.92 2.06-4.56 3.926-5.06 6.44-.468 2.387 1.13 4.685 1.97 7.01 2.233 6.13-.893 12.56-1.786 18.888-.25 1.75.049 3.984 2.188 4.564.67.18 1.434.158 2.036.45.804.387 1.05 1.196 1.197 1.92.538 2.6.725 5.26.554 7.91-.098 1.49-.205 3.198 1.188 4.223.712.442 1.495.756 2.314.927 2.197.598 5.037 1.07 6.52-.324.62-.585.853-1.412 1.63-1.875 1.161-.693 2.81-.225 4.27-.153 2.822.118 5.483-1.321 6.944-3.755 1.184-2.15 1.081-4.587.643-6.899-.437-2.311-1.196-4.596-1.25-6.934-.07-.817.11-1.637.518-2.348.893-1.394 2.97-2.028 4.395-3.12 2.68-2.051 2.652-5.397 1.688-8.23-.965-2.833-2.711-5.504-2.925-8.414-.095-.703.043-1.417.393-2.033.482-.57 1.04-1.07 1.656-1.488 3.89-3.305 3.43-8.738.215-12.452-3.564-4.138-19.687-13.01-24.555-5.42z"/>
                <g fill="#000" fill-rule="nonzero" opacity=".1">
                    <path d="M3 18.12c.383-2.471.169-5-.625-7.37C1.95 9.56 1.325 8.381.869 7.192c-.225.431-.39.89-.489 1.366-.475 2.418 1.145 4.744 1.995 7.098.29.798.498 1.623.624 2.463zM6.627 44.9c.173-2.683-.016-5.376-.56-8.008-.15-.733-.399-1.553-1.213-1.944-.61-.296-1.384-.274-2.063-.456-.838-.208-1.536-.79-1.895-1.58-.122.62-.231 1.243-.321 1.863-.254 1.77.05 4.033 2.216 4.62.679.183 1.452.16 2.063.456.814.396 1.063 1.211 1.212 1.949.252 1.22.427 2.455.525 3.697.01-.2.023-.401.036-.597zM29.79 43.93c-1.48 2.465-4.177 3.922-7.035 3.802-1.48-.073-3.167-.546-4.325.155-.783.455-1.022 1.306-1.651 1.898-1.502 1.412-4.38.934-6.605.328-.829-.172-1.621-.49-2.339-.942-.613-.455-1.028-1.13-1.158-1.885 0 .838 0 1.68-.05 2.518-.1 1.507-.208 3.237 1.208 4.275.72.447 1.511.765 2.339.938 2.226.605 5.103 1.083 6.605-.324.629-.596.868-1.434 1.651-1.903 1.176-.7 2.845-.227 4.325-.155 2.858.12 5.555-1.336 7.034-3.801 1.154-2.09 1.104-4.453.701-6.711-.153.63-.39 1.238-.7 1.807zM34.937 3.938c-.617.434-1.17.954-1.642 1.544-.354.623-.494 1.346-.398 2.058.08.895.268 1.777.561 2.627.451-.487.947-.93 1.48-1.325 2.664-2.277 3.31-5.51 2.447-8.537-.455 1.421-1.304 2.682-2.448 3.633zM34.15 24.39c-1.443 1.106-3.546 1.748-4.451 3.155-.411.721-.594 1.552-.525 2.38.035.958.151 1.91.348 2.846.05-.11.11-.217.177-.318.905-1.412 3.008-2.054 4.451-3.16 2.461-1.899 2.67-4.899 1.941-7.576-.373 1.063-1.048 1.992-1.94 2.673z" transform="translate(149 129)"/>
                </g>
                <path fill="#924623" fill-rule="nonzero" d="M201.812 154.305c-1.668 4.018-3.831 5.592-3.831 5.592h-1.202l-10.56.103-1.219-3.166 1.71-6.834 1.056.039c.635.318 1.324.528 2.036.62.775 0 2.267-.04 2.72.154.063.026.132.034.2.026.398-.039.816-.607.816-.607s9.938.056 8.274 4.073z"/>
                <path fill="#000" fill-rule="nonzero" d="M201.817 154.199c-1.62 4.168-3.72 5.801-3.72 5.801h-1.166c.612-1.651 1.893-5.038 2.395-5.801.502-.763-3.817-2.584-6.326-3.57.387-.04.792-.629.792-.629s9.641.031 8.025 4.199z" opacity=".1"/>
            </g>
        </g>
    </g>
</svg>
