<svg xmlns="http://www.w3.org/2000/svg" width="21" height="21" viewBox="0 0 21 21">
    <g fill="none" fill-rule="evenodd">
        <g fill="#924623">
            <g>
                <path d="M0 10.5C0 4.701 4.701 0 10.5 0S21 4.701 21 10.5 16.299 21 10.5 21 0 16.299 0 10.5zm1.167 0c0 5.155 4.178 9.333 9.333 9.333 2.475 0 4.85-.983 6.6-2.733s2.733-4.125 2.733-6.6c0-5.155-4.178-9.333-9.333-9.333S1.167 5.345 1.167 10.5z" transform="translate(-255 -543) translate(255 543)"/>
                <path fill-rule="nonzero" d="M14.55 9.938h-3.488V6.45c0-.249-.201-.45-.45-.45h-.225c-.248 0-.45.201-.45.45v3.487H6.45c-.249 0-.45.202-.45.45v.226c0 .248.201.45.45.45h3.487v3.487c0 .248.202.45.45.45h.226c.248 0 .45-.201.45-.45v-3.488h3.487c.248 0 .45-.201.45-.45v-.225c0-.248-.201-.45-.45-.45z" transform="translate(-255 -543) translate(255 543)"/>
            </g>
        </g>
    </g>
</svg>
