<svg xmlns="http://www.w3.org/2000/svg" width="24" height="24" viewBox="0 0 24 24">
    <g fill="none" fill-rule="evenodd">
        <g fill="#924623" fill-rule="nonzero">
            <g>
                <path d="M12 1.335c5.89 0 10.665 4.775 10.665 10.665 0 5.89-4.775 10.665-10.665 10.665C6.11 22.665 1.335 17.89 1.335 12 1.335 6.11 6.11 1.335 12 1.335M12 0C5.373 0 0 5.373 0 12s5.373 12 12 12 12-5.373 12-12c0-3.183-1.264-6.235-3.515-8.485C18.235 1.265 15.183 0 12 0z" transform="translate(-1144 -18) translate(1144 18)"/>
                <path d="M12.429 14.571c-2.604 0-4.715-2.11-4.715-4.714 0-2.603 2.11-4.714 4.715-4.714 2.603 0 4.714 2.11 4.714 4.714-.002 2.603-2.112 4.712-4.714 4.714zm0-8.096c-1.879 0-3.401 1.523-3.401 3.4 0 1.879 1.522 3.401 3.4 3.401 1.879 0 3.401-1.522 3.401-3.4-.002-1.878-1.523-3.399-3.4-3.401zM19.034 19.714c-.2 0-.39-.089-.52-.242-1.546-1.74-3.766-2.72-6.085-2.69-2.32-.03-4.54.95-6.086 2.69-.157.186-.401.275-.64.231-.24-.043-.438-.211-.52-.441-.082-.23-.036-.487.12-.674 1.809-2.04 4.408-3.193 7.126-3.159 2.717-.034 5.316 1.118 7.124 3.159.171.203.21.488.098.73-.111.242-.352.396-.617.396z" transform="translate(-1144 -18) translate(1144 18)"/>
            </g>
        </g>
    </g>
</svg>
