<svg xmlns="http://www.w3.org/2000/svg" width="18" height="16" viewBox="0 0 18 16">
    <g fill="none" fill-rule="evenodd">
        <g fill="#924623" fill-rule="nonzero">
            <g>
                <g>
                    <g>
                        <path d="M.26 7.961l5.539 6.23c.356.426 1.061.464 1.475.094.413-.37.455-1.076.071-1.478l-4.002-4.5h13.619c.573 0 1.038-.465 1.038-1.038 0-.574-.465-1.039-1.038-1.039H3.343l4.002-4.5C7.73 1.33 7.677.624 7.263.254 6.85-.116 6.155-.079 5.8.346L.26 6.576c-.362.504-.333.957 0 1.385z" transform="translate(-30 -85) translate(30 84) translate(0 1)"/>
                    </g>
                </g>
            </g>
        </g>
    </g>
</svg>
