<svg xmlns="http://www.w3.org/2000/svg" width="67" height="57" viewBox="0 0 67 57">
    <g fill="none" fill-rule="evenodd">
        <g fill="#D5D1CE" fill-rule="nonzero">
            <g>
                <g>
                    <g>
                        <path d="M60.138 10.2h-10.2c-1.063 0-2.126-.85-2.55-1.912L46.325 4.25C45.687 1.7 43.35 0 40.8 0H25.288c-2.55 0-4.888 1.7-5.526 4.25l-1.274 4.037C18.063 9.35 17 10.2 15.938 10.2h-10.2C2.55 10.2 0 12.75 0 15.938V49.3c0 3.188 2.55 5.738 5.737 5.738h54.188c3.188 0 5.737-2.55 5.737-5.738V15.938c.213-3.188-2.337-5.738-5.525-5.738zm-27.2 37.825c-8.5 0-15.3-6.8-15.3-15.3s6.8-15.3 15.3-15.3 15.3 6.8 15.3 15.3-6.8 15.3-15.3 15.3zm23.587-26.563h-5.737c-.85 0-1.7-.637-1.7-1.7 0-.85.637-1.7 1.7-1.7h5.737c.85 0 1.7.638 1.7 1.7-.212 1.063-.85 1.7-1.7 1.7z" transform="translate(-97 -148) translate(20 78) translate(39 30) translate(38.063 40.375)"/>
                        <path d="M32.938 20.825c-6.588 0-11.9 5.313-11.9 11.9 0 6.587 5.312 11.9 11.9 11.9 6.587 0 11.9-5.313 11.9-11.9 0-6.588-5.313-11.9-11.9-11.9z" transform="translate(-97 -148) translate(20 78) translate(39 30) translate(38.063 40.375)"/>
                    </g>
                </g>
            </g>
        </g>
    </g>
</svg>
