<svg xmlns="http://www.w3.org/2000/svg" width="14" height="14" viewBox="0 0 14 14">
    <g fill="none" fill-rule="evenodd">
        <g fill="#B2B0AB" fill-rule="nonzero">
            <g>
                <g>
                    <g>
                        <path d="M8.524 6.959l4.694 4.694c.439.439.439 1.126 0 1.565-.439.439-1.126.439-1.565 0L6.96 8.524l-4.695 4.694c-.438.439-1.126.439-1.564 0-.44-.439-.44-1.126 0-1.565L5.394 6.96.7 2.264C.26 1.826.26 1.138.7.7 1.138.26 1.826.26 2.264.7L6.96 5.394 11.653.7c.439-.44 1.126-.44 1.565 0 .439.438.439 1.126 0 1.564L8.524 6.96z" transform="translate(-917 -96) translate(20 78) translate(889 10) translate(8 8)"/>
                    </g>
                </g>
            </g>
        </g>
    </g>
</svg>
