<svg xmlns="http://www.w3.org/2000/svg" width="31" height="31" viewBox="0 0 31 31">
    <g fill="none" fill-rule="evenodd">
        <g fill="#7B776C" fill-rule="nonzero">
            <g>
                <path d="M10.5 0C4.701 0 0 4.701 0 10.5S4.701 21 10.5 21 21 16.299 21 10.5 16.299 0 10.5 0zm0 19.833c-5.155 0-9.333-4.178-9.333-9.333S5.345 1.167 10.5 1.167s9.333 4.178 9.333 9.333c0 2.475-.983 4.85-2.733 6.6s-4.125 2.733-6.6 2.733z" transform="translate(-549 -418) rotate(45 -223.106 890.737)"/>
                <path d="M14.55 9.938h-3.488V6.45c0-.249-.201-.45-.45-.45h-.225c-.248 0-.45.201-.45.45v3.487H6.45c-.249 0-.45.202-.45.45v.226c0 .248.201.45.45.45h3.487v3.487c0 .249.202.45.45.45h.226c.248 0 .45-.201.45-.45v-3.488h3.487c.249 0 .45-.201.45-.45v-.225c0-.248-.201-.45-.45-.45z" transform="translate(-549 -418) rotate(45 -223.106 890.737)"/>
            </g>
        </g>
    </g>
</svg>
