<svg xmlns="http://www.w3.org/2000/svg" width="20" height="22" viewBox="0 0 20 22">
    <g fill="none" fill-rule="evenodd">
        <g>
            <g>
                <path d="M0 0H20V20H0z" transform="translate(-530 -362) translate(530 363)"/>
                <path fill="#398E8F" fill-rule="nonzero" stroke="#398E8F" stroke-width=".5" d="M12.072 20H3.366c-1.215 0-2.2-.985-2.2-2.2V6.328c0-1.215.985-2.2 2.2-2.2h8.706c1.215 0 2.2.985 2.2 2.2V17.8c0 1.215-.985 2.2-2.2 2.2h0zM3.366 5.242c-.6.001-1.085.487-1.086 1.086V17.8c.001.6.487 1.085 1.086 1.086h8.706c.6-.001 1.085-.487 1.086-1.086V6.328c-.001-.6-.487-1.085-1.086-1.086H3.366z" transform="translate(-530 -362) translate(530 363)"/>
                <path fill="#398E8F" fill-rule="nonzero" stroke="#398E8F" stroke-width=".5" d="M16.888 14.954H16.4c-.306 0-.554-.248-.554-.554 0-.306.248-.554.554-.554h.496c.459-.001.83-.373.832-.832V2.2c-.001-.6-.487-1.085-1.086-1.086H8.586c-.457 0-.829.369-.832.826 0 .306-.248.554-.554.554-.306 0-.554-.248-.554-.554C6.647.869 7.515.001 8.586 0h8.048c1.215 0 2.2.985 2.2 2.2v10.82c-.004 1.071-.875 1.936-1.946 1.934z" transform="translate(-530 -362) translate(530 363)"/>
            </g>
        </g>
    </g>
</svg>
