<svg xmlns="http://www.w3.org/2000/svg" width="17" height="17" viewBox="0 0 17 17">
    <g fill="none" fill-rule="evenodd">
        <g fill="#922323" fill-rule="nonzero" stroke="#924623">
            <g>
                <path d="M9.347.04c.796 0 1.429.633 1.429 1.43h0v.795h3.734c.225 0 .408.184.408.408 0 .225-.183.409-.408.409h0-1.286l-.653 10.224c-.04.755-.673 1.347-1.428 1.347h0-7.184c-.755 0-1.388-.592-1.428-1.347h0L1.878 3.082H.592c-.225 0-.408-.184-.408-.409 0-.224.183-.408.408-.408h3.735V1.47h0l.006-.138C4.402.6 5.006.04 5.755.04h0zm3.061 3.042H2.694l.653 10.183c.02.327.286.572.612.572h7.184c.326 0 .592-.245.612-.572h0l.653-10.183zm-6.53 2.204c.224 0 .408.183.408.408h0v5.53c0 .225-.184.409-.408.409-.225 0-.409-.184-.409-.409h0v-5.53c0-.225.184-.408.409-.408zm3.346 0c.225 0 .409.183.409.408h0v5.53c0 .225-.184.409-.409.409-.224 0-.408-.184-.408-.409h0v-5.53c0-.225.184-.408.408-.408zM9.347.857H5.755c-.347 0-.612.265-.612.612h0v.796h4.816V1.47c0-.347-.265-.612-.612-.612h0z" transform="translate(-1024 -408) translate(1025 409)"/>
            </g>
        </g>
    </g>
</svg>
