<svg xmlns="http://www.w3.org/2000/svg" width="15" height="15" viewBox="0 0 15 15">
    <g fill="none" fill-rule="evenodd">
        <g fill="#398E8F" fill-rule="nonzero">
            <g>
                <g>
                    <g>
                        <path d="M9.334 2.143l3.409 3.396-8.24 8.24-3.396-3.396 8.227-8.24zM.069 14.385c-.017.12.024.242.111.327.085.088.207.13.328.111l2.862-.327-2.977-2.984-.324 2.873zM13.919 2.32L12.555.958c-.27-.271-.635-.423-1.017-.423-.381 0-.747.152-1.017.423l-.258.258 3.406 3.396.258-.258c.27-.27.423-.636.423-1.017 0-.382-.152-.748-.423-1.017h-.01z" transform="translate(-174 -225) translate(20 78) translate(144 138) translate(10 9)"/>
                    </g>
                </g>
            </g>
        </g>
    </g>
</svg>
