<svg xmlns="http://www.w3.org/2000/svg" width="30" height="30" viewBox="0 0 30 30">
    <g fill="none" fill-rule="evenodd">
        <g>
            <g>
                <g transform="translate(-1220 -304) translate(1004 294) translate(216 10)">
                    <rect width="30" height="30" fill="#F4F1EE" rx="8"/>
                    <g fill="#398E8F" fill-rule="nonzero">
                        <g>
                            <path d="M9.334 2.143l3.409 3.396-8.24 8.24-3.396-3.396 8.227-8.24zM.069 14.385c-.017.12.024.242.111.327.085.088.207.13.328.111l2.862-.327-2.977-2.984-.324 2.873zM13.919 2.32L12.555.958c-.27-.271-.635-.423-1.017-.423-.381 0-.747.152-1.017.423l-.258.258 3.406 3.396.258-.258c.27-.27.423-.636.423-1.017 0-.382-.152-.748-.423-1.017h-.01z" transform="translate(8 7)"/>
                        </g>
                    </g>
                </g>
            </g>
        </g>
    </g>
</svg>
