<svg xmlns="http://www.w3.org/2000/svg" xmlns:xlink="http://www.w3.org/1999/xlink" width="579" height="410" viewBox="0 0 579 410">
    <defs>
        <path id="a7oanvczga" d="M0.041 0.497L578.924 0.497 578.924 409.998 0.041 409.998z"/>
        <path id="m6p1in5j0b" d="M1.101 2.057l45.564 26.45c-.45-.261-.738-.889-.74-1.785L.363.271c.002.893.292 1.524.738 1.786"/>
        <path id="c3qmp94b9d" d="M47.464 26.848L2.26.458C1.187 1.083.32 2.855.322 4.414l45.202 26.393c-.006-1.561.867-3.332 1.94-3.958"/>
        <path id="6xy7nlcchf" d="M15.435 8.214L2.65.818C2.035.465 1.126.54.11 1.124l12.786 7.393c1.014-.582 1.925-.659 2.54-.303"/>
        <path id="irhzog0llh" d="M16.698 8.165L3.68.689C1.807 1.756.293 4.107.298 5.939l13.018 7.476c-.006-1.831 1.51-4.182 3.382-5.25"/>
        <path id="zu748j83tj" d="M42.317 20.5L6.374.009C2.998 1.904.269 6.502.279 10.269l35.944 20.49c-.011-3.768 2.717-8.37 6.094-10.26"/>
        <path id="uctanpshzl" d="M5.466.662c1.14.573 2.278 1.147 3.416 1.721-1.24-.625-2.958-.537-4.853.411L.614 1.074C2.508.124 4.226.036 5.466.661"/>
        <path id="w76oq6vpfn" d="M3.914 14.41L.213 12.361C.2 7.896 3.498 2.456 7.578.212l3.701 2.048C7.2 4.504 3.901 9.944 3.914 14.41"/>
        <path id="1g29zqox9p" d="M.657.435l.063 11.74c0 .45.282.898.841 1.24 1.123.687 2.955.69 4.087 0 .57-.346.854-.8.853-1.253L6.438.42c.001.453-.281.908-.853 1.253-1.132.69-2.963.687-4.086 0C.94 1.331.66.884.657.434"/>
        <path id="w9k2vsmcor" d="M5.08.653L8.4 2.325c-1.206-.607-2.874-.522-4.716.4L.364 1.053C2.208.131 3.878.046 5.08.653"/>
        <path id="isvqffdjkt" d="M5.906 5.965L4.11 5.036c-.6-.309-1.2-.62-1.797-.929C1.02 3.442.222 2.024.215.013L3.81 1.869c.007 2.014.805 3.429 2.096 4.096"/>
        <path id="1lenimitsv" d="M4.285 13.601l-3.597-1.95C.677 7.398 3.88 2.217 7.844.08l3.596 1.952C7.478 4.168 4.272 9.349 4.285 13.6"/>
        <path id="3ekhu11zpx" d="M5.998.066l-.056 11.182c-.001.427-.261.855-.78 1.18-1.037.655-2.733.656-3.78 0-.529-.329-.79-.761-.789-1.194L.65.053c0 .432.263.865.79 1.194 1.048.656 2.743.655 3.78 0 .518-.326.779-.753.779-1.18"/>
        <path id="gpcp0txu9z" d="M1.39 2.164C1.352 1.37 1.12.681.71.127L3.517 3.92c.408.552.642 1.242.676 2.035L2.792 4.061c-.109-.15-.257-.348-.366-.497-.236-.319-.472-.638-.71-.957-.096-.133-.27-.286-.327-.443"/>
        <path id="eekmrhopnB" d="M4.096 1.841l2.358 3.793c-.701-1.128-2.014-1.689-3.77-1.408L.33.433c1.755-.28 3.068.28 3.767 1.408"/>
        <path id="mmrvnpmeiD" d="M3.228 13.99L.853 10.895C.155 9.984.057 8.621.724 7.018 2.068 3.791 6.001.808 9.508.354l2.376 3.097c-3.507.453-7.44 3.438-8.784 6.665-.668 1.603-.568 2.966.128 3.875"/>
        <path id="j6svr5czfF" d="M.223.572c.244.138.394.443.399.875l1.871 1.084c0-.425-.149-.73-.396-.87L.223.57"/>
    </defs>
    <g fill="none" fill-rule="evenodd">
        <path fill="#924623" d="M327.383 207.696l-114.71 66.543c-12.712 7.41-33.267 7.41-45.91-.009L50.44 206.33c-6.282-3.682-9.426-8.503-9.439-13.33l.04 26.204c.012 4.829 3.155 9.648 9.438 13.331l116.325 67.902c12.64 7.416 33.194 7.416 45.909.007l114.704-66.54c6.4-3.725 9.596-8.624 9.584-13.509l-.043-26.203c.018 4.889-3.178 9.781-9.574 13.504z"/>
        <path fill="#ACCCC7" d="M50.577 180.926c-12.713 7.392-12.78 19.385-.137 26.78l116.34 67.742c12.644 7.401 33.202 7.401 45.917.009l114.725-66.388c12.713-7.388 12.782-19.377.138-26.774l-116.344-67.748c-12.643-7.396-33.2-7.396-45.915-.002L50.577 180.926"/>
        <path fill="#398E8F" d="M537.965 248c.012 4.03-2.796 8.064-8.417 11.137L385.12 337.815c-11.175 6.107-29.239 6.107-40.349-.004l-121.477-67.506c-5.518-3.039-8.283-7.012-8.294-10.991l.034 21.603c.01 3.98 2.775 7.954 8.295 10.991l121.476 67.506c11.108 6.114 29.174 6.114 40.347.004l144.43-78.675c5.618-3.074 8.43-7.109 8.418-11.14L537.965 248"/>
        <path fill="#54B5B6" d="M223.393 247.97c-11.141 6.164-11.198 16.155-.124 22.322l121.115 68.085c11.076 6.163 29.087 6.163 40.228.004l143.996-79.353c11.14-6.16 11.198-16.153.12-22.32l-121.112-68.082c-11.075-6.167-29.084-6.167-40.226-.004L223.393 247.97"/>
        <path fill="#4F848E" d="M285.321 265L282 263.08 383.679 205 387 206.92 285.321 265"/>
        <path fill="#924623" d="M336.958 190.178c.015 4.83-3.178 9.668-9.575 13.353l-114.709 65.776c-12.715 7.323-33.27 7.323-45.911-.01l-116.324-67.12C44.157 198.536 41.012 193.77 41 189l.037 10.2c.014 4.773 3.156 9.537 9.438 13.178L166.801 279.5c12.642 7.332 33.194 7.332 45.912.009l114.703-65.776c6.4-3.685 9.596-8.523 9.584-13.354l-.042-10.201"/>
        <path fill="#C9754E" d="M50.578 173.925c-12.713 7.395-12.781 19.384-.138 26.781l116.34 67.742c12.644 7.4 33.201 7.4 45.918.01l114.724-66.385c12.713-7.391 12.781-19.382.139-26.78l-116.344-67.745c-12.646-7.397-33.201-7.397-45.916-.003l-114.723 66.38"/>
        <path fill="#93593E" d="M209.321 250L206 248.08 307.679 190 311 191.921 209.321 250M197.442 199c-.48 0-.99-.005-1.526-.014-8.997-.157-34.916-1.249-34.916-1.249l5.252-12.809L230.214 149s12.668 9.997-8.343 22.493c-8.17 4.86 14.346 17.297 11.124 19.37-.982.632-2.169.886-3.505.886-2.76 0-6.155-1.088-9.674-2.174-3.52-1.088-7.166-2.175-10.43-2.175-2.826 0-5.366.815-7.29 3.15-2.998 3.638 10.87 8.45-4.654 8.45"/>
        <path fill="#E9E2D8" d="M196.103 184l5.147 5.219s2.284 1.776 3.19 2.788c.202.225.515 1.076.553 1.753.028.433-.02 1.84-.304 2.153-.73.8-3.48 2.295-6.847 2.063-3.732-.257-5.996-2.674-5.996-2.674-.605-.4-5.142-4.395-5.142-4.395s-1.407-1.184-1.482-2.675l-.222-3.477 11.103-.755"/>
        <path fill="#B94849" d="M196.266 183.67l.657 1.721 4.849 4.405s1.126.953 2.302 2.338c.395.47.884 1.002.923 1.672.024.429-.083.852-.37 1.161-.73.793-2.724 1.626-3.974 1.852-4.658.844-7.437-1.535-7.437-1.535-.488-.317-5.72-4.368-6.892-5.613-.713-.758-1.027-2.603-1.027-2.603s-.222-1.027-.286-1.803c-.201-2.414 2.506-4.265 2.506-4.265l8.75 2.67"/>
        <path fill="#FFFFFE" d="M194.03 190.91c.074.12.248.105.381.043.506-.243 1.888-1.162 3.049-1.376 1.723-.319 2.62-.158 3.171-.047.142.03.31.004.356-.124.039-.102-.013-.219-.125-.244-.501-.117-1.726-.318-3.694.046-1.314.242-2.606 1.207-3.064 1.434-.106.05-.132.175-.074.268M193.031 189.911c.075.117.252.105.386.041.514-.241 2.099-1.156 3.275-1.369 1.751-.317 2.375-.18 2.933-.069.146.027.317.003.363-.124.038-.103-.013-.217-.128-.244-.51-.117-1.648-.29-3.646.07-1.334.241-2.643 1.2-3.11 1.428-.105.05-.133.173-.073.267M192.032 188.912c.077.117.257.103.393.039.525-.24 2.243-1.165 3.44-1.378 1.785-.32 2.183-.19 2.754-.077.147.027.321.003.368-.125.039-.102-.013-.217-.129-.244-.52-.118-1.34-.267-3.365.14-1.162.235-2.91 1.15-3.387 1.376-.107.05-.136.173-.074.27"/>
        <path fill="#9D7E5D" d="M229.292 126.877l-.043 32.459c.005.819.29 1.394.751 1.664l-31.148-18.302c-.463-.273-.751-.846-.753-1.666L198 115l31.292 11.877"/>
        <g transform="translate(123 154)">
            <mask id="40xxtoo4wc" fill="#fff">
                <use xlink:href="#m6p1in5j0b"/>
            </mask>
            <path fill="#E3E3DE" d="M45.925 26.722L.363.271c.002.893.292 1.524.738 1.786l45.564 26.45c-.45-.261-.738-.889-.74-1.785" mask="url(#40xxtoo4wc)"/>
        </g>
        <path fill="#A9AAA6" d="M168.962 168.079L124 142 124.038 154.924 169 181 168.962 168.079"/>
        <path fill="#AD7D52" d="M181.418 106.22c.462-.27.886-.282 1.218-.086L228 132.724c-.335-.194-.758-.182-1.22.088L171.36 165 126 138.409l55.418-32.19"/>
        <g transform="translate(123 138)">
            <mask id="47dsqzbz3e" fill="#fff">
                <use xlink:href="#c3qmp94b9d"/>
            </mask>
            <path fill="#E3E3DE" d="M47.464 26.848L2.26.458c-.248.143-.483.349-.702.597l45.204 26.391c.217-.25.453-.451.7-.598" mask="url(#47dsqzbz3e)"/>
            <path fill="#E3E3DE" d="M46.763 27.446L1.559 1.055c-.3.346-.565.77-.77 1.242l45.202 26.39c.207-.468.47-.897.772-1.241" mask="url(#47dsqzbz3e)"/>
            <path fill="#E3E3DE" d="M45.99 28.687L.79 2.297C.496 2.964.32 3.71.321 4.413l45.202 26.393c0-.706.177-1.455.467-2.119" mask="url(#47dsqzbz3e)"/>
        </g>
        <path fill="#BC9066" d="M170.968 164.092c-1.088.624-1.974 2.391-1.968 3.949l.039 13.049c.003 1.564.893 2.312 1.982 1.693l56.015-31.876c1.09-.623 1.968-2.384 1.964-3.945l-.039-13.05c-.003-1.557-.889-2.316-1.978-1.695l-56.015 31.875"/>
        <path fill="#CFA579" d="M225.042 109.556c-3.345 1.918-6.05 6.57-6.042 10.39l.05 14.95c.004 1.09.78 1.53 1.735.983l9.667-5.59.098 27.894c.005 1.643 1.193 2.281 2.634 1.458l.228-.131c1.624-.933 2.591-2.814 2.588-4.448l-.018-18.73-.089-26.063c-.013-3.822-2.735-5.363-6.086-3.443l-4.765 2.73"/>
        <g transform="translate(173 55)">
            <mask id="v2myqddesg" fill="#fff">
                <use xlink:href="#6xy7nlcchf"/>
            </mask>
            <path fill="#E6CFAE" d="M15.435 8.214L2.65.818C2.035.465 1.126.54.11 1.124l12.786 7.393c1.014-.582 1.925-.659 2.54-.303" mask="url(#v2myqddesg)"/>
        </g>
        <path fill="#E7D7C2" d="M185 64.335L172.501 57 129 82.664 141.499 90 185 64.335M137.963 95.243L125 88 125.165 134.457 138 143 137.963 95.243"/>
        <g transform="translate(126 82)">
            <mask id="x7eeoxdt3i" fill="#fff">
                <use xlink:href="#irhzog0llh"/>
            </mask>
            <path fill="#E7D7C2" d="M.764 3.988c.3-.675.733-1.337 1.25-1.92.493-.554 1.06-1.035 1.666-1.38l13.018 7.477c-.605.346-1.174.826-1.666 1.379-.517.582-.952 1.245-1.251 1.918-.296.665-.465 1.337-.465 1.953L.298 5.939c-.002-.615.168-1.287.466-1.951" mask="url(#x7eeoxdt3i)"/>
        </g>
        <path fill="#CAA983" d="M141.304 89.525c-1.828 1.063-3.31 3.4-3.304 5.22l.11 48.363c.006 1.82 1.494 2.433 3.323 1.37l44.263-26.004c1.827-1.065 3.307-3.401 3.304-5.221l-.111-48.359c-.006-1.823-1.494-2.434-3.322-1.374l-44.263 26.005"/>
        <path fill="#D4BB9B" d="M218.443 119.26l.05 15.623c.003.55.196.934.507 1.117l-31.445-18.263c-.31-.18-.505-.566-.506-1.114L187 101l31.443 18.26"/>
        <path fill="#E6CFAE" d="M188.061 97.427c2.206-4.89 5.273-5.995 9.878-8.601 1.707-.966 3.251-1.056 4.369-.42L234 106.461c-2.242-1.277-4.51.5-9.194 3.15-3.38 1.916-6.125 6.563-6.116 10.389L187 101.945c-.005-1.452.387-3.023 1.061-4.518"/>
        <path fill="#E9E2D8" d="M222.584 178l6.267 6.25s2.726.388 3.628 1.546c.199.256 2.522.25 2.521.986-.001.47-.115 2.115-.36 2.503-.488.77-1.245 1.72-3.845 1.715-2.038 0-4.934-1.035-7.889-1.994-2.818-.914-5.722-1.452-5.722-1.452-3.29-.738-4.96-1.518-4.96-1.518s-.906-.444-.94-1.202l-.284-4.152L222.584 178"/>
        <path fill="#B94849" d="M223.789 177.011c-.638 1.043.042 1.406.042 1.406l5.758 3.737s3.114 1.68 4.295 2.5c.534.372 1.117 1.07 1.116 1.8 0 .466-.425 1.338-1.103 1.798-.946.642-1.654.763-4.089.747-2.235-.018-6.155-1.98-10.58-2.94-8.219-1.783-7.998-3.46-7.998-3.46s-.21-2.627-.226-3.47c-.066-2.623.762-4.129.762-4.129s7.164 1.528 11.082.358c.226-.068 1.354.977.94 1.653"/>
        <path fill="#F8F7F5" d="M223.095 183.899c.141.16.387.114.55-.021.597-.5 1.903-1.54 2.938-1.966.787-.325 1.43-.246 1.808-.138.203.059.44.04.548-.14.084-.142.096-.343-.059-.406-.418-.174-1.362-.436-2.553.055-1.206.493-2.68 1.697-3.236 2.167-.133.115-.11.318.004.449"/>
        <path fill="#F8F7F5" d="M222.095 182.898c.141.16.385.115.55-.02.597-.5 1.902-1.54 2.936-1.964.788-.324 1.429-.248 1.809-.14.201.06.439.042.548-.14.086-.143.097-.342-.058-.408-.418-.17-1.362-.436-2.556.057-1.203.495-2.68 1.697-3.232 2.17-.133.113-.113.315.003.445M220.095 181.897c.14.161.385.116.548-.019.597-.5 1.906-1.54 2.939-1.966.787-.323 1.43-.243 1.808-.135.203.055.44.038.55-.145.084-.14.093-.342-.06-.403-.418-.175-1.363-.438-2.553.053-1.208.497-2.682 1.698-3.236 2.167-.132.117-.112.318.004.448"/>
        <path fill="#4C647A" d="M171.659 125l32.616 13.622s5.282 1.632 7.337 10.35c1.04 4.418 5.744 18.085 10.243 27.986 1.235 2.718-5.634 6.491-11.821 1.864-.56-.42-9.356-21.074-9.585-21.556-1.46-3.062-1.5-4.457-1.5-4.457-.394-1.784-1.328-1.607-4.047-3.065l-23.078-8.869s-.824-1.974-.824-8.585c0-2.16.659-7.29.659-7.29"/>
        <path fill="#4C647A" d="M166.967 130s12.634 11.21 22.235 19.917c1.97 1.784 2.628 5.718 3.118 9.734.654 5.353 3.64 21.878 4.596 23.768.97 1.914-6.715 4.697-11.897 0-.516-.47-4.298-17.56-4.349-18.089 0 0-.323-1.9-.165-2.92.328-2.11-1.478-3.528-2.955-4.259-4.813-2.38-15.178-9.654-18.953-12.088-4.179-2.695-4.647-7.213-4.593-9.248.128-4.861 12.963-6.815 12.963-6.815"/>
        <path fill="#132F30" d="M198.906 111.784c-.552.335-1.572.66-1.572.66s-2.106 2.05-2.087 1.444c.113-3.83.64-6.422-.174-6.923-.364-.224-1.157-.193-2.12-1.064-2.914-2.636-12.183-6.894-12.183-6.894s-8.677-10.338-4.75-12.585c3.123-1.787 7.32 2.475 11.474 5.838 1.34 1.086 10.68 6.95 12.025 7.891 3.826 2.679 3.472 6.832 3.472 6.832l-1.262-.447s-.17 3.641-2.823 5.248"/>
        <path fill="#15393C" d="M152.525 132.386s1.005-24.776-.447-32.319c-.61-3.164 2.559-5.095 2.559-5.095 1.397-1.07 11.332-6.307 11.332-6.307l.857-.892 5.83-.7s6.07-.71 7.443 2.287c2.018 4.41 3.312 7.122 2.782 15.664l-3.816 30.426c-.075 1.15-.264 2.503-1.556 3.389 0 0-8.748 3.713-13.239 3.09-4.6-.636-8.793-3.637-8.793-3.637-2.715-1.781-2.981-6.308-2.952-5.906M195.915 115.387s.163-6.071-.757-8.241c-.916-2.16 2.357-6.233 4.484-4.875 3.541 2.26 4.248 5.035 4.344 6.555.15 2.415-.926 5.854-1.35 7.174l-6.72-.613"/>
        <path fill="#E2C1A5" d="M174 93.71c-1.542 4.946-9.481.871-9.444-2.75C164.61 85.836 162 81 162 81l9.068.052L174 93.709"/>
        <path fill="#FDE5D1" d="M163.417 75.12c2.2-.566 3.128 1.05 3.128 1.05l1.43 3.512s.205.79-.569 1.142c-1.17.523-2.066-.207-3.017-1.02-.055-.045-1.342-1.274-1.42-1.348-1.097-1.038-1.636-2.8.448-3.335"/>
        <path fill="#EEC59F" d="M168.223 68.914v.004L161 70.923l3.382 13.338c.34.887.518 1.72.868 2.451.385.803.722 2 1.941 2.505 0 0 1.329.361 3.124.994 1.12.396 2.475.742 3.942.789.963.029 2.765-1.475 2.765-1.475 1.194-.923.983-.85.929-5.109 0 0-.453-7.686-.45-10.024.003-3.078-2.97-7.392-2.97-7.392l-6.308 1.914"/>
        <path fill="#91502A" d="M177.745 67.542c.07.202.773 2.773-.51 3.032-.185.038-1.323-.394-4.029.115-.138.028-5.245.825-6.003 4.693-.35 1.773-.529 5.507-.533 5.531-.052.28-3.017.128-2.934.305.724 1.556 1.026 6.78 1.026 6.78-.523.027-1.816-.155-2.86-.725-.598-.328.213-1.445-.541-2.77-.645-1.13-3.122-5.397-3.668-6.175-5.237-7.463 2.218-19.806 14.884-15.403 1.37.476 3.51 1.867 4.448 2.593.963.745.238.596.72 2.024"/>
        <path fill="#EEC59F" d="M163.415 78.177c2.014-.846 3.308 1.62 3.308 1.62l1.234 2.805s.282 1.07-.597 1.308c-1.025.279-1.98-.107-2.93-.919-.058-.044-1.443-1.181-1.52-1.255-1.094-1.032-1.5-2.718.505-3.56"/>
        <path fill="#91502A" d="M178.51 67.015s-5.56-.378-7.645 2.672c-2.085 3.05-3.347 3.45-3.367 5.835C167.45 81.136 167 83 167 83s1.74-.009 2.363-2.27c.728-2.65 1.501-3.907 2.086-4.086.627-.192.385 1.775-.108 2.607-.115.195 4.347-1.336 6.378-4.042 1.78-2.369 1.695-2.58 2.085-3.773.51-1.57.008-3.871-1.294-4.421M166 85s.367 2.066.79 3.128c.423 1.062 1.128 1.413 3.108 2.185 2.256.882 4.324 1.763 5.349 1.682 1.725-.138 4.435-2.127 4.72-3.22.13-.502-.165-2.39-.165-2.39s-.03 2.385-.627 2.463c-.388.05-.724-.406-.724-.406s-.238-.464-.601.535c-.284.78-.634 1.031-.805 1.133-1.328.802-2.997.565-4.75.09-2.044-.557-4.7-2.31-5.049-2.903C166.736 86.43 166 85 166 85"/>
        <path fill="#FDE5D1" d="M197.968 114.803c.048 1.322.22 1.416-1.21 1.448-.497.015-2.047.793-1.11 1.918.797.96.023 2.69-1.302 1.328-.192-.198-1.46-1.517-1.338-2.346.587-3.971 2.5-5.117 3.925-5.15 1.425-.034.99 1.479 1.035 2.802"/>
        <path fill="#FDE5D1" d="M200.912 112.522s-2.314-.807-3.094-.414c-1.787.902-1.818 2.88-1.818 2.88l.02.713.945 4.508s.35 3.379.995 4.554c.24.432.68.238.933-.297.218-.459-.22-2.949.202-3.065 2.316-.646 3.567-2.067 3.567-2.067l.338-4.068c.003-1.56-.44-1.677-2.088-2.744"/>
        <path fill="#D4BB9B" d="M154.227 203.3L118 182c.002.833.298 1.424.772 1.699L155 205c-.475-.275-.769-.863-.773-1.7"/>
        <path fill="#D4BB9B" d="M153.852 157.9L153.925 184.167 154 203 118.149 182.101 118.073 163.264 118 137 153.852 157.9"/>
        <path fill="#E6CFAE" d="M134.839 120.813c1.694-.952 3.229-1.04 4.336-.412L175 140.877c-1.107-.628-2.643-.54-4.339.411L161.824 146 126 125.524l8.839-4.711"/>
        <g transform="translate(118 127)">
            <mask id="ed7yj0auwk" fill="#fff">
                <use xlink:href="#zu748j83tj"/>
            </mask>
            <path fill="#E6CFAE" d="M1.339 5.808c.596-1.309 1.41-2.56 2.367-3.615C4.512 1.3 5.416.548 6.374.009L42.317 20.5c-.957.537-1.862 1.292-2.668 2.184-.957 1.056-1.772 2.308-2.369 3.615-.671 1.48-1.062 3.03-1.057 4.46L.279 10.27C.275 8.839.667 7.286 1.34 5.808" mask="url(#ed7yj0auwk)"/>
        </g>
        <path fill="#CFA579" d="M155.072 183.666l.075 18.52c.006 1.62 1.174 2.277 2.61 1.467l11.066-6.01c1.441-.819 1.194-1.999 1.187-3.618l-.07-25.402 4.331-2.454c.957-.545 1.731-1.857 1.729-2.939l-.051-17.004c-.01-3.78-2.737-5.31-6.094-3.41l-8.804 4.73c-3.353 1.896-6.062 6.511-6.051 10.29l.072 25.83"/>
        <path fill="#FDE5D1" d="M165.169 136.704c1.054.863 2.695-.319 3.334-1.494.222-.407 2.331.96 3.397.957 1.12 0 1.188-1.36 1.045-1.706-.114-.27-1.42-.588-3.633-1.566-2.87-1.263-4.384-1.134-5.02.041-.638 1.175-.177 2.909.877 3.768"/>
        <path fill="#FDE5D1" d="M161.201 133.385c1.646-3.382 4.897-2.176 4.897-2.176s4.563 2.885 5.773 4.176c.806.858 2.033 3.252 2.118 4.153.135 1.426-1.025 1.176-1.025 1.176-2.317.806-3.85-.347-3.85-.347l-2.685-2.138c-4.954-2.454-5.926-3.412-5.228-4.844"/>
        <path fill="#195253" d="M162.406 134.037c-1.16 1.463-1.097 2.987-1.16 2.963-4.949-1.864-15.391-7.167-18.339-9.517-2.952-2.354-1.596-5.538-1.596-5.538s6.315-16.991 10.162-23.464c3.034-5.102 8.247-1.7 7.285 4.46-.554 3.533-6.23 14.514-7.96 18.19-.993 2.122.501 2.724.501 2.724L165 132.137s-1.383.375-2.594 1.9"/>
        <g transform="translate(302 73)">
            <mask id="g9jqnx720m" fill="#fff">
                <use xlink:href="#uctanpshzl"/>
            </mask>
            <path fill="#37605B" d="M4.03 2.794L.613 1.074C2.508.124 4.225.036 5.466.661l3.416 1.721c-1.24-.625-2.958-.537-4.853.411" mask="url(#g9jqnx720m)"/>
        </g>
        <path fill="#37605B" d="M212 236l-3.79-1.873c-1.36-.67-2.204-2.098-2.21-4.127l3.79 1.871c.006 2.03.85 3.457 2.21 4.129"/>
        <path fill="#398E8F" d="M210 231L205.356 229.019 205 137 209.644 138.982 210 231M216.382 128L213 126.025 302.62 74 306 75.976 216.382 128"/>
        <path fill="#7BAFAB" d="M209.345 139L206 136.98c-.011-4.403 2.97-9.768 6.655-11.98l3.345 2.02c-3.687 2.212-6.668 7.577-6.655 11.98"/>
        <g transform="translate(206 126)">
            <mask id="m58a2odu8o" fill="#fff">
                <use xlink:href="#w76oq6vpfn"/>
            </mask>
            <path fill="#398E8F" d="M3.914 14.41L.213 12.361C.2 7.896 3.499 2.456 7.578.212l3.701 2.048C7.2 4.504 3.901 9.944 3.914 14.41" mask="url(#m58a2odu8o)"/>
        </g>
        <path fill="#54B5B6" d="M305.927 75.93c3.75-2.162 6.803-.426 6.814 3.876l.259 91.61c.014 4.303-3.017 9.547-6.768 11.706l-90.158 51.95c-3.75 2.16-6.802.422-6.813-3.88L209 139.58c-.012-4.301 3.02-9.542 6.77-11.703l90.157-51.949"/>
        <path fill="#49676D" d="M279.014 92.326L286 88 285.987 91.674 279 96 279.014 92.326"/>
        <path fill="#51747B" d="M273 89.307L280.99 85 286 87.693 278.01 92 273 89.307"/>
        <path fill="#314549" d="M273.001 90L273 90.733 277.275 92.91 277.264 95.634 277.984 96 278 92.544 273.001 90"/>
        <path fill="#314549" d="M273 90L273 91 274 90.623 273 90"/>
        <g transform="translate(275 77)">
            <mask id="xkffhm765q" fill="#fff">
                <use xlink:href="#1g29zqox9p"/>
            </mask>
            <path fill="#74A2AF" d="M.657.435l.063 11.74c0 .45.282.898.841 1.24 1.123.687 2.955.69 4.087 0 .57-.346.854-.8.853-1.253L6.438.42c.001.453-.281.907-.853 1.253-1.132.69-2.963.687-4.086 0C.94 1.331.66.884.657.434" mask="url(#xkffhm765q)"/>
        </g>
        <path fill="#658B97" d="M276.883 76.439c-1.174.586-1.177 1.536-.01 2.122 1.166.584 3.066.586 4.24 0 1.179-.586 1.181-1.536.015-2.12-1.168-.587-3.068-.588-4.245-.002"/>
        <path fill="#93BECF" d="M261.422 71.602c3.923 9.432 14.748 13.898 24.18 9.975 9.432-3.922 13.898-14.747 9.975-24.18-3.923-9.43-14.748-13.897-24.18-9.974-9.43 3.922-13.896 14.748-9.975 24.179"/>
        <path fill="#924623" d="M215 294L227 294 227 270 215 270z"/>
        <g transform="translate(374 85)">
            <mask id="fher27e02s" fill="#fff">
                <use xlink:href="#w9k2vsmcor"/>
            </mask>
            <path fill="#7BAFAB" d="M3.684 2.725L.364 1.053C2.208.131 3.878.046 5.08.653L8.4 2.325c-1.205-.607-2.874-.522-4.716.4" mask="url(#fher27e02s)"/>
        </g>
        <g transform="translate(281 237)">
            <mask id="jf6aa2hj9u" fill="#fff">
                <use xlink:href="#isvqffdjkt"/>
            </mask>
            <path fill="#7BAFAB" d="M5.906 5.965L2.312 4.107C1.02 3.442.222 2.024.215.013L3.81 1.869c.007 2.014.805 3.429 2.096 4.096" mask="url(#jf6aa2hj9u)"/>
        </g>
        <path fill="#7BAFAB" d="M285 240L282.214 238.082 282 149 284.787 150.919 285 240M291.309 138L288 136.098 375.691 86 379 87.902 291.309 138M285.01 151l-3.01-2.02c-.01-4.403 2.672-9.768 5.99-11.98l3.01 2.02c-3.318 2.211-6.001 7.577-5.99 11.98"/>
        <g transform="translate(281 137)">
            <mask id="a6fqsekw1w" fill="#fff">
                <use xlink:href="#1lenimitsv"/>
            </mask>
            <path fill="#7BAFAB" d="M4.285 13.601l-3.597-1.95C.677 7.398 3.88 2.217 7.844.082l3.596 1.95C7.478 4.168 4.272 9.349 4.285 13.6" mask="url(#a6fqsekw1w)"/>
        </g>
        <path fill="#252D2F" d="M378.13 87.906c3.642-2.107 6.606-.415 6.618 3.78l.252 89.336c.013 4.194-2.931 9.308-6.574 11.415l-87.555 50.658c-3.643 2.106-6.606.41-6.618-3.783L284 149.976c-.012-4.194 2.933-9.304 6.574-11.411l87.557-50.659"/>
        <path fill="#111210" d="M356.493 205.596L356.495 205.404 356.507 205.587 356.493 205.596"/>
        <path fill="#373835" d="M349.495 204.516L349.498 204.484 349.505 204.489 349.495 204.516"/>
        <path fill="#10100D" d="M343.507 177.474L343.507 177.526 343.493 177.486 343.507 177.474"/>
        <path fill="#886A36" d="M355.488 139.563L355.512 139.438 355.49 139.563 355.488 139.563"/>
        <path fill="#49676D" d="M350.013 104.785L357 101 356.987 104.214 350 108 350.013 104.785"/>
        <path fill="#51747B" d="M345 102.307L352.375 98 357 100.693 349.626 105 345 102.307"/>
        <path fill="#314549" d="M345.003 102L345 102.733 349.275 104.911 349.263 107.634 349.985 108 350 104.544 345.003 102"/>
        <g transform="translate(348 91)">
            <mask id="eal7tyc43y" fill="#fff">
                <use xlink:href="#3ekhu11zpx"/>
            </mask>
            <path fill="#74A2AF" d="M5.998.066l-.056 11.182c-.001.427-.261.855-.78 1.18-1.038.655-2.733.657-3.78 0-.529-.329-.79-.761-.789-1.194L.65.053c0 .432.263.865.79 1.194 1.048.656 2.742.655 3.78 0 .518-.326.779-.753.779-1.18" mask="url(#eal7tyc43y)"/>
        </g>
        <path fill="#658B97" d="M353.117 90.439c1.174.586 1.177 1.536.009 2.122-1.165.585-3.065.586-4.24 0-1.177-.586-1.18-1.536-.015-2.12 1.169-.587 3.069-.588 4.246-.002"/>
        <path fill="#93BECF" d="M371.616 85.91c-3.817 9.177-14.35 13.522-23.528 9.706-9.175-3.816-13.52-14.349-9.703-23.526 3.816-9.177 14.348-13.522 23.525-9.706 9.177 3.817 13.522 14.35 9.706 23.526"/>
        <g transform="translate(370 83)">
            <mask id="tazengo0jA" fill="#fff">
                <use xlink:href="#gpcp0txu9z"/>
            </mask>
            <path fill="#B6DCE4" d="M-6.71 16.824l-2.804-3.793C-5.367 12.476-.722 8.821.863 4.87 1.65 2.909 1.534 1.24.71.127L3.517 3.92c.823 1.112.937 2.78.149 4.742-1.583 3.95-6.227 7.606-10.376 8.161" mask="url(#tazengo0jA)"/>
        </g>
        <path fill="#407E96" d="M373.773 89.522c.02-.068.032-.132.049-.199.034-.128.069-.256.093-.38.015-.082.021-.16.032-.24.016-.104.035-.21.042-.31.006-.083.003-.163.005-.246.003-.091.01-.184.004-.271v-.01c-.03-.662-.221-1.238-.558-1.699L371.125 83c.34.464.534 1.043.562 1.71.003.071-.003.146-.006.22 0 .098.003.196-.005.298-.006.085-.024.176-.036.262-.012.096-.02.19-.038.288-.022.112-.055.228-.084.344-.02.077-.033.153-.058.234-.058.197-.128.398-.208.603-1.307 3.3-5.138 6.35-8.558 6.815-1.72.233-3.007-.233-3.694-1.175l2.313 3.167c.688.942 1.974 1.408 3.693 1.174 3.422-.463 7.251-3.515 8.557-6.813.082-.206.152-.407.21-.605"/>
        <g transform="translate(366 80)">
            <mask id="mkuerxgrfC" fill="#fff">
                <use xlink:href="#eekmrhopnB"/>
            </mask>
            <path fill="#434A4B" d="M2.684 4.226L.33.433c1.755-.28 3.067.28 3.767 1.408l2.358 3.794c-.701-1.129-2.014-1.69-3.77-1.41" mask="url(#mkuerxgrfC)"/>
        </g>
        <g transform="translate(358 82)">
            <mask id="ujn85hfavE" fill="#fff">
                <use xlink:href="#mmrvnpmeiD"/>
            </mask>
            <path fill="#434A4B" d="M3.228 13.99L.853 10.895C.155 9.984.057 8.621.724 7.018 2.068 3.791 6.001.808 9.508.354l2.376 3.097c-3.507.453-7.44 3.438-8.784 6.665-.668 1.603-.568 2.966.128 3.875" mask="url(#ujn85hfavE)"/>
        </g>
        <path fill="#343939" d="M369.496 83.06c3.614-.463 5.42 1.825 4.041 5.105-1.381 3.28-5.426 6.315-9.041 6.776-3.607.46-5.412-1.826-4.033-5.106 1.38-3.282 5.426-6.316 9.033-6.776"/>
        <path fill="#74A2AF" d="M372.653 81.722c-1.065-1.314-3.06-1.965-5.727-1.639-5.29.646-11.22 4.899-13.246 9.5-1.005 2.286-.859 4.228.193 5.524L356.221 98c-1.05-1.296-1.2-3.238-.193-5.524 2.025-4.6 7.954-8.855 13.246-9.5 2.667-.326 4.663.325 5.726 1.638l-2.347-2.892"/>
        <path fill="#B6DCE4" d="M364.74 96.82c3.382-.427 7.168-3.244 8.46-6.288 1.294-3.045-.399-5.167-3.781-4.74-3.375.428-7.161 3.244-8.454 6.288-1.293 3.046.396 5.169 3.774 4.74zm5.829-13.736c5.161-.653 7.741 2.586 5.768 7.234-1.974 4.65-7.75 8.946-12.913 9.598-5.154.654-7.734-2.586-5.761-7.235 1.973-4.648 7.75-8.945 12.906-9.597z"/>
        <path fill="#314549" d="M344.003 104L344.003 105 344.997 104.623 344.003 104"/>
        <path fill="#D14547" d="M294.776 149.225c-.626 2.452-2.379 4.116-3.911 3.716-1.533-.4-2.269-2.713-1.64-5.166.626-2.452 2.377-4.116 3.91-3.715 1.533.4 2.268 2.712 1.641 5.165"/>
        <path fill="#1E5674" d="M365.56 108.387c5.656-3.224 10.263-.637 10.282 5.78l.158 55.444c.02 6.417-4.557 14.238-10.214 17.463l-62.345 35.537c-5.661 3.228-10.264.638-10.282-5.78L293 161.388c-.019-6.417 4.555-14.236 10.215-17.463l62.345-35.538"/>
        <path fill="#CAA983" d="M367.128 188.91c.64-.374 1.265-.815 1.872-1.3l-.08-35.225c-.007-2.296-1.877-3.065-4.173-1.73l-55.596 32.756c-2.297 1.338-4.158 4.282-4.151 6.575l.08 35.014c.246-.123.493-.244.744-.39l61.304-35.7"/>
        <path fill="#102323" d="M359.31 173.891c3.171 2.072 5.077 14.43 4.624 16.593L358.247 194l.098-1.04c.66-14.258-.539-19.069-3.258-20.909L355 172c1.352.24 2.77.887 4.31 1.891"/>
        <path fill="#6B3D23" d="M351.732 165.094l.001-.094c.02.136.39 2.724.225 3.607-.15.792-.819 2.13-1.707 3.54-1.286 2.04-3.034 4.232-4.347 5.153-.056.04-.116.08-.178.117-.133.08-.274.153-.426.223-1.438.648-3.76.857-6.275 1.18-2.545.326-3.449.324-3.996-1.012-.275-.66-.53-1.722-.717-2.623-.19-.907-.305-1.613-.312-1.65.049.083.947 1.672 1.613 2.62.446.664 3.862 1.342 6.497.626 1.187-.323 2.346-.733 3.427-1.385.964-.583 1.868-1.358 2.672-2.433.214-.289.666-.958 1.027-2.397.241-.952.44-1.267.576-1.349.126-.076.192.044.196.05.02.02.387.408.849.13l.077-.054c.696-.527.789-3.664.798-4.25"/>
        <path fill="#122B2D" d="M354.314 172.258c2.917 1.788 4.204 6.462 3.495 20.315l-.105 1.01L323.034 213c.597-2.153 1.015-3.929 1.162-5.103.874-6.933-2.022-9.848-5.302-8.012-1.308.734-2.679 2.224-3.894 4.512 1.066-2.943 2.923-5.248 3.021-5.369 1.709-2.437 12.606-15.034 15.31-18.15.033.58.05 1.175.046 1.783-.019 3.75 4.617 5.206 8.294 3.147 1.828-1.024 3.419-2.918 4.081-5.83l-.48-2.147c.16-.068.31-.14.45-.219.066-.037.129-.075.188-.114 1.385-.902 3.23-3.049 4.587-5.047 1.655-.463 2.995-.613 3.723-.243l.094.05"/>
        <path fill="#E1BB9B" d="M339.49 178.878c2.807-.332 5.398-.547 7.003-1.211l.507 2.248c-.7 3.049-2.384 5.031-4.317 6.103-3.888 2.155-8.791.632-8.772-3.294.005-.637-.013-1.26-.049-1.867-.023-.393-.054-.779-.09-1.158-.113-1.543-.364-4.492-.772-6.699.185.124.367.228.551.309.25.634.449 1.268.68 1.841.209.924.494 2.012.8 2.69.611 1.37 1.62 1.372 4.459 1.038"/>
        <path fill="#6B3D23" d="M350.29 136.01c1.521.199 2.085 3.344 1.458 6.137-.303 1.348-.383 1.986-.906 3.423-.345.95-.884 2.25-1.812 4.34-2.502 5.65-7.85 11.311-8.32 11.594.58-1.661.892-4.814.21-4.404l-.108.086c-.77.747-1.779 3.403-2.725 8.273-.441 2.297-1.337 3.747-2.051 4.585-.577.678-1.012.941-1.036.956.008-.048.165-.952.326-3.212.14-1.998.278-5.017.293-9.306.017-3.874 1.673-5.52 4.392-12.117 2.183-5.274 7.29-8.741 9.245-9.917.487-.293.764-.436.78-.444.088-.007.173-.004.254.005"/>
        <path fill="#E1BB9B" d="M351.301 146.612c0 3.689.612 14.843.642 15.43.018 1.198.04 2.17.057 2.975-.01.584-.102 3.718-.796 4.245l-.078.053c-.46.278-.827-.109-.847-.13-.004-.005-.07-.124-.196-.048-.136.081-.334.395-.575 1.348-.36 1.437-.811 2.106-1.025 2.394-.803 1.074-1.705 1.848-2.668 2.431-1.08.651-2.236 1.061-3.42 1.384-2.633.715-6.042.038-6.488-.625-.665-.948-1.562-2.536-1.61-2.619.007.038.12.743.31 1.65-.206-.56-.383-1.178-.607-1.795.568.267 1.14.263 1.73-.094.232-.14.465-.332.704-.584.92-.983.633-2.618.618-2.704l-.313-1c.695-.819 1.567-2.237 1.998-4.481.92-4.76 1.904-7.357 2.652-8.087l.105-.084c.665-.4.361 2.68-.232 4.297.486-.269 5.693-5.803 8.13-11.326.903-2.042 1.428-3.313 1.764-4.242.09.528.143 1.066.145 1.612"/>
        <path fill="#F3D3BA" d="M336.654 168.721l.295.936c.014.08.286 1.612-.584 2.532-.225.236-.445.416-.664.547-.557.334-1.097.338-1.633.087-.155-.073-.31-.168-.466-.281-.056-.04-.112-.085-.168-.131-.053-.041-1.444-1.103-1.514-1.183-1.1-1.067-1.513-3.625.482-6.22.293-.384.573-.638.832-.795 1.524-.913 2.427 1.395 2.474 1.516l.293.927c-.148 2.069-.292 2.896-.3 2.94.023-.013.422-.254.953-.875"/>
        <path fill="#6B3D23" d="M349.51 135.688c.223.073.382.143.49.218-.083-.01-.169-.012-.259-.005-.015.007-.296.147-.79.435-1.983 1.152-7.162 4.548-9.376 9.714-2.758 6.462-4.438 8.074-4.455 11.87-.015 4.2-.154 7.158-.298 9.115l-.322-.992c-.053-.13-1.048-2.6-2.73-1.623-.287.168-.595.44-.918.85-2.202 2.779-1.746 5.516-.533 6.658.078.085 1.613 1.222 1.671 1.266.062.05.124.097.186.14.38 2.155.614 5.036.719 6.542.044.626.063.996.063 1.015l-.133.083c-.777.449-2.413 1.095-3.749 1.02-.816-.043.285-2.451-.75-3.948-.88-1.276-4.255-6.065-5.005-6.861-6.103-6.557.366-26.058 13.122-33.47 2.167-1.258 4.514-2.167 7.012-2.606 1.865-.338 4.772.18 6.054.579"/>
        <path fill="#173E3E" d="M320.31 199.55c3.418-1.879 6.436 1.104 5.526 8.194-.154 1.2-.59 3.018-1.212 5.22L310 221c1.832-5.609 3.66-10.863 5.215-14.638.33-.8.677-1.531 1.037-2.197 1.266-2.341 2.695-3.864 4.057-4.615"/>
        <path fill="#4F848E" d="M404.378 295c-17.19 0-31.535-7.096-34.883-16.538 1.456-2.86-17.905-6.8-25.467-9.528-9.6-3.463 4.845-8.198 26.166-8.198.648 0 1.305.004 1.967.013.284.004.556.006.823.006 20.782-.001-9.206-11.552-2.336-13.647.243-.074.623-.108 1.121-.108 5.25 0 23.493 3.866 28.996 6.581 1.187-.07 2.393-.106 3.613-.106 19.674 0 35.622 9.297 35.622 20.763C440 285.705 424.052 295 404.378 295"/>
        <path fill="#FDFDFC" d="M393.964 246.854s1.22 1.779 1.012 4.812c-.209 3.03-.643 4.196-1.392 4.762-.746.569-1.678.7-3.444.452-1.768-.25-4.599-2.026-5.664-2.353-1.065-.333-.762-.338-4.567-1.571-5.356-1.739-6.272-3.214-6.71-4.686-.447-1.498 0-3.205 0-3.205 4.483.892 10.513 2.398 12.22.529 1.707-1.866 8.545 1.26 8.545 1.26"/>
        <path fill="#E3685A" d="M393.943 245.433s1.244 1.844 1.033 4.976c-.213 3.14-.657 4.34-1.417 4.929-.76.588-2.165.813-3.965.558-1.802-.261-2.101-.423-3.135-.911-1.723-.812-2.412-1.534-6.028-2.347-4.761-1.067-7.04-3.234-7.405-4.785-.323-1.364 2.41-3.426 6.027-2.884 5.197.777 4.882-.49 6.187-.836 2.458-.651 8.703 1.3 8.703 1.3"/>
        <path fill="#33526F" d="M390.133 252.236c1.098-2.564 4.452-4.164 4.452-4.164l.168-.072c.18.745.3 1.672.223 2.772-.22 3.024-.68 4.18-1.466 4.747-.788.566-2.363 1.694-4.228 1.446-.091-.013-.187-.03-.282-.044.11-1.062.392-2.96 1.133-4.685"/>
        <path fill="#454543" d="M424.183 285.186c.006-.898.815-1.257 1.82-.807 1.001.45 1.812 1.537 1.807 2.441-.005.888-.816 1.253-1.819.802-.994-.447-1.813-1.54-1.808-2.436zm-1.183-.533c-.005 1.485 1.333 3.288 2.986 4.025 1.66.747 3.006.15 3.014-1.327.006-1.487-1.338-3.284-2.989-4.033-1.656-.74-3.005-.148-3.011 1.335z"/>
        <path fill="#6E6E6B" d="M426.505 283.267c-.83-.62-1.5-.125-1.505 1.111-.004 1.235.673 2.74 1.496 3.355.829.621 1.5.12 1.504-1.104.004-1.245-.667-2.743-1.495-3.362"/>
        <path fill="#353633" d="M426.967 282.156c.434-.244 1.023-.212 1.683.167 1.305.745 2.353 2.548 2.35 4.047 0 .732-.262 1.247-.687 1.496L428.35 289c.421-.24.688-.763.688-1.5.005-1.492-1.053-3.296-2.353-4.047-.657-.373-1.257-.405-1.686-.16l1.967-1.137"/>
        <path fill="#454543" d="M386.184 263.186c0-.899.822-1.256 1.826-.805.997.45 1.806 1.538 1.806 2.436-.005.893-.817 1.255-1.823.804-.996-.446-1.812-1.537-1.809-2.435zm-1.184-.53c-.009 1.478 1.33 3.28 2.993 4.025 1.657.742 3.002.146 3.007-1.33.002-1.486-1.33-3.288-2.99-4.033-1.662-.74-3.007-.147-3.01 1.339z"/>
        <path fill="#6E6E6B" d="M388.508 261.269c-.829-.622-1.508-.13-1.508 1.108-.003 1.238.672 2.74 1.494 3.355.83.622 1.502.123 1.506-1.108 0-1.237-.668-2.737-1.492-3.355"/>
        <path fill="#353633" d="M388.963 260.156c.43-.244 1.026-.211 1.688.167 1.302.746 2.352 2.555 2.349 4.045 0 .738-.264 1.257-.69 1.499L390.34 267c.427-.242.69-.763.69-1.496.002-1.493-1.046-3.303-2.352-4.05-.658-.375-1.251-.413-1.678-.163l1.963-1.135"/>
        <path fill="#454543" d="M390.355 282.325c.657-.378 1.253-.416 1.68-.167.167.094.326.191.491.281.23.135.459.267.69.399.26.152.52.3.784.456-.428-.252-1.022-.216-1.677.163-.278.153-.541.371-.788.612l.788.45c-.788.451-1.42 1.547-1.42 2.442.004.447.165.76.417.91l-1.323-.763c-.013.133-.033.262-.033.387.005.738.27 1.259.69 1.505l-1.965-1.137c-.423-.24-.686-.762-.689-1.5-.005-1.487 1.046-3.296 2.355-4.038"/>
        <g transform="translate(392 282)">
            <mask id="bnradi2j1G" fill="#fff">
                <use xlink:href="#j6svr5czfF"/>
            </mask>
            <path fill="#454543" d="M2.097 1.66L.223.573c.244.138.394.443.399.875 0 .86-.606 1.91-1.354 2.346L1.141 4.88c.75-.432 1.357-1.484 1.352-2.349 0-.425-.149-.73-.396-.87" mask="url(#bnradi2j1G)"/>
        </g>
        <path fill="#393A37" d="M391.193 287.813c-.002-.892.802-1.984 1.803-2.433.996-.448 1.815-.084 1.815.806.007.896-.802 1.986-1.801 2.433-1.003.446-1.813.086-1.817-.806zm-1.193.532c.009 1.482 1.36 2.079 3.013 1.335 1.656-.744 2.999-2.548 2.987-4.029-.003-1.477-1.35-2.076-3.004-1.33-1.66.742-2.996 2.549-2.996 4.024z"/>
        <path fill="#757571" d="M393.495 284.265c.826-.619 1.505-.116 1.505 1.113.005 1.236-.665 2.741-1.494 3.358-.83.615-1.502.12-1.506-1.113-.001-1.231.665-2.738 1.495-3.358"/>
        <path fill="#454543" d="M428.355 261.322c.658-.377 1.248-.411 1.682-.164.161.096.325.186.494.283.219.134.455.271.684.397.26.155.522.301.785.456-.428-.248-1.024-.213-1.68.157-.28.161-.539.38-.783.618l.784.451c-.784.452-1.419 1.544-1.419 2.443.005.446.164.759.42.909L428 266.11c-.02.13-.037.26-.037.386.004.741.27 1.26.696 1.504l-1.971-1.136c-.425-.243-.684-.76-.688-1.496-.006-1.488 1.052-3.298 2.355-4.046"/>
        <path fill="#393A37" d="M428.191 265.813c0-.895.805-1.983 1.8-2.433 1.002-.45 1.814-.086 1.817.806.006.895-.802 1.987-1.8 2.436-.998.446-1.81.087-1.817-.81zm-1.191.531c.005 1.48 1.355 2.081 3.013 1.336 1.649-.743 2.991-2.547 2.987-4.027-.008-1.478-1.356-2.074-3.009-1.338-1.654.744-2.991 2.55-2.991 4.03z"/>
        <path fill="#757571" d="M429.493 262.266c.83-.62 1.504-.12 1.507 1.112.005 1.233-.665 2.74-1.493 3.358-.828.615-1.502.12-1.507-1.115 0-1.235.668-2.734 1.493-3.355"/>
        <path fill="#383936" d="M388.73 258.062l17.26 10.465L406 272l-17.259-10.46c-.486-.292-.728-.677-.728-1.064L388 257c0 .385.243.773.73 1.062"/>
        <path fill="#2A2B29" d="M430.255 258.077c.491-.296.739-.687.739-1.077l.006 3.47c.003.391-.24.776-.737 1.078L413.007 272l-.007-3.47 17.255-10.453"/>
        <path fill="#3B3C39" d="M388.758 256.442c.998-.59 2.62-.59 3.62 0L410 266.865l-.01.729-18.912-11.184c-.286-.17-.752-.17-1.036 0-.286.168-.291.446-.003.613l18.913 11.18-2.58.797-17.628-10.425c-.996-.59-.992-1.54.014-2.133"/>
        <path fill="#424240" d="M429.972 256.41c-.29-.169-.76-.169-1.038 0L410 267.59l.01-.729 17.65-10.422c.996-.587 2.61-.585 3.6.004.991.593.986 1.542-.013 2.135L413.604 269l-2.574-.8 18.936-11.177c.284-.166.284-.444.006-.613"/>
        <path fill="#2A2B29" d="M390.343 256.128c-.282.17-.287.45-.003.617l18.638 11.25-18.767 11.26c-.281.167-.281.444 0 .613.28.176.737.176 1.024 0L410 268.615l18.637 11.253c.287.176.744.176 1.027 0 .28-.169.283-.444 0-.614l-18.643-11.258 18.767-11.251c.282-.168.282-.448.006-.617-.287-.17-.752-.17-1.029-.002L410 267.382l-18.637-11.254c-.281-.17-.74-.17-1.02 0"/>
        <path fill="#2A2B29" d="M388.742 279.913c.991.613 2.599.613 3.6 0L409.992 269l.008 3.623-17.647 10.915c-1.004.616-2.61.616-3.602 0-.491-.305-.74-.71-.743-1.114l-.008-3.622c0 .395.245.804.742 1.111"/>
        <path fill="#454543" d="M388.754 278.385l17.647-10.577 2.567-.808-18.939 11.354c-.284.169-.284.449 0 .62.282.177.743.177 1.033 0L410 267.623l-.008 2.354-17.648 10.576c-1 .595-2.608.595-3.6 0-.994-.596-.994-1.568.01-2.17M410.008 267.625l18.906 11.348c.29.177.755.177 1.042 0 .283-.17.287-.448 0-.62L411.044 267l2.588.812 17.618 10.572c1.006.604.997 1.574-.008 2.175-1.003.589-2.62.589-3.623-.005L410 269.977l.008-2.352"/>
        <path fill="#383936" d="M427.614 279.913c1.003.613 2.619.613 3.622.006.508-.314.756-.723.756-1.13l.008 3.628c.005.401-.248.809-.757 1.12-1 .617-2.615.618-3.618-.001l-17.617-10.913L410 269l17.614 10.913"/>
        <path fill="#2A2B29" d="M407 258.91c0-.475.278-.957.847-1.33 1.146-.755 3.039-.777 4.22-.043.604.37.905.864.911 1.36l.022 9.19-.032.196-.02.153c-.02.07-.059.14-.093.208l-.062.147c-.05.067-.114.144-.176.22l-.092.108c-.108.104-.231.208-.374.297-1.15.76-3.041.78-4.22.049-.147-.093-.281-.19-.393-.293l-.095-.113c-.067-.07-.137-.145-.191-.223l-.07-.141c-.031-.071-.074-.14-.099-.212l-.029-.162c-.01-.07-.031-.135-.031-.202v-.015c-.008-2.755-.014-6.435-.023-9.194"/>
        <path fill="#8E8F8B" d="M409.421 251.27c.574-.35 1.52-.36 2.11-.025.3.176.453.403.456.632l.013 6.24-.013.09-.012.07-.043.093-.033.07-.082.095-.056.058c-.048.05-.11.095-.179.138-.576.35-1.524.36-2.115.023-.073-.041-.137-.089-.192-.14l-.05-.049-.092-.098-.041-.072-.044-.097-.014-.076-.016-.095v-.004c-.001-.935-.005-2.029-.01-3.121l-.008-3.116c-.004-.223.136-.443.421-.616"/>
        <path fill="#454543" d="M392.857 251.976l.13-.139c.103-.097.205-.195.316-.283l.127-.104c.146-.112.297-.22.45-.305l8.12-4.677-.803-.468-8.118 4.682c-.15.083-.303.189-.447.302l-.143.117c-.099.083-.195.172-.294.27l-.145.143c-.103.109-.197.226-.294.343l-.1.123-.031.035c-.121.159-.238.328-.34.504L387 259.53l.8.47 4.282-7.016c.118-.192.243-.371.373-.547l.088-.103c.104-.126.203-.248.314-.358M386.624 259.894l-.624-.656c.145-.152.277-.17.376-.07l.624.652c-.093-.096-.227-.084-.376.074"/>
        <path fill="#646561" d="M386.16 259.051c-.132-.082-.31-.067-.504.057l-3.95 2.5-.184.152-.043.045-.15.181-.012.013-.006.012-.117.193-.023.057-.073.163-.008.02-.011.036-.047.184-.013.065c-.018.076-.019.151-.019.231 0 .248.074.42.207.507l.843.533c-.133-.08-.21-.253-.21-.51 0-.068.007-.148.019-.224l.015-.075.048-.162.025-.076.064-.148.028-.062.116-.198.028-.038.132-.165.052-.05.185-.15 3.943-2.498c.2-.129.38-.139.505-.06l-.84-.533"/>
        <path fill="#242523" d="M402 248v.499l-7.647 4.304c-.516.294-1.012.789-1.394 1.393l-4.158 6.654c.004.398-.277.879-.633 1.076l-3.53 1.99c-.353.197-.635.035-.638-.365 0-.39.282-.875.637-1.07l3.525-1.985c.183-.105.348-.112.466-.038L392.66 254c.46-.737 1.064-1.34 1.693-1.693L402 248"/>
        <path fill="#FDFDFC" d="M365.463 259.443s1.5 1.843 1.535 5.203c.035 3.36-.343 4.681-1.114 5.375-.772.695-2.313 2.083-4.277 1.973-1.966-.111-4.444-.77-5.645-1.035-1.199-.264-2.116-.11-6.405-1.114-6.038-1.418-9.723-5.334-10.333-6.916-.62-1.606.246-4.187.246-4.187 5.006.571 14.778 2.325 16.492.11 1.715-2.216 9.501.591 9.501.591"/>
        <path fill="#E3685A" d="M365.472 257.444s1.492 1.843 1.526 5.2c.035 3.36-.34 4.683-1.108 5.377-.766.695-2.3 2.083-4.25 1.973-1.951-.111-4.413-.769-5.606-1.035-1.192-.267-2.796.458-7.047-.595-4.25-1.06-8.986-4.78-9.51-6.395-.459-1.426-1.696-5.294 3.28-4.723 4.973.566 11.574 1.821 13.277-.394 1.702-2.216 9.438.592 9.438.592"/>
        <path fill="#33526F" d="M361.81 264.407c.972-2.537 4.508-4.325 4.508-4.325l.175-.082c.272.698.49 1.578.505 2.635.038 2.906-.361 4.052-1.175 4.652-.813.602-2.44 1.803-4.51 1.708-.102-.005-.21-.016-.313-.024.019-1.025.158-2.86.81-4.564M351.305 263.899c.189.253.515-.008.517-.343 0 0-.034-.933.132-2.024.233-1.528.921-2.58 1.474-2.877.23-.122.625-.038.566-.312-.052-.26-.293-.412-.513-.312-.696.32-2.052 1.206-2.373 3.34-.192 1.271-.128 2.092.197 2.528M349.302 263.899c.194.254.515-.01.52-.342 0 0-.033-.933.132-2.025.236-1.53.909-2.454 1.463-2.751.226-.124.635-.168.578-.442-.055-.253-.296-.409-.515-.308-.697.32-2.047 1.205-2.372 3.34-.193 1.267-.127 2.091.194 2.528"/>
        <path fill="#33526F" d="M348.304 263.896c.19.258.517-.005.519-.34 0 0-.032-.931.132-2.02.233-1.533.915-2.44 1.474-2.74.227-.12.622-.18.566-.452-.056-.258-.295-.413-.514-.314-.697.322-2.049 1.207-2.376 3.344-.188 1.265-.125 2.09.2 2.522"/>
        <path fill="#F8F7F5" d="M355.706 265c.83.267 1.666.5 2.294.578l-.02.094-5.643 2.328c-.463-.082-.967-.189-1.528-.34-.263-.073-.535-.162-.809-.267 1.106-.478 3.652-1.57 5.706-2.393M352.584 264c.871.267 1.754.498 2.416.58l-.023.089-5.943 2.331c-.237-.039-.484-.087-.742-.14-.438-.196-.867-.413-1.292-.644 1.312-.533 3.648-1.482 5.584-2.216"/>
        <path fill="#4C647A" d="M375.665 223l-7.401 6.4c-3.45 7.361-8.107 20.859-12.205 29.478-.423.89 1.382 5.691 6.82 5.066 2.705-.312 5.666-1.299 5.507-2.18L381 230.727 375.665 223"/>
        <path fill="#394E5E" d="M386.283 226.561l-4.278-.042s-.081 19.04.44 19.597c.692.739 5.14 6.008 9.075 4.666 4.15-1.413 3.79-1.308 3.587-2.576L398 223l-11.717 3.561"/>
        <path fill="#203A43" d="M386.736 233.13l23.211-12.77c.764-.422 1.454-.459 1.952-.184L435 232.856c-.498-.274-1.192-.233-1.954.188l-23.212 12.767c-1.519.833-2.734 2.848-2.73 4.508 0 .827.303 1.406.796 1.681-5.7-3.157-17.406-9.534-23.1-12.684-.491-.273-.799-.852-.8-1.676-.007-1.66 1.215-3.677 2.736-4.51"/>
        <path fill="#30525A" d="M409.664 245.47c-1.482.854-2.668 2.922-2.664 4.626.003 1.704 1.206 2.39 2.679 1.538l22.651-13.106c1.48-.856 2.675-2.926 2.67-4.627-.005-1.707-1.203-2.387-2.69-1.532l-22.646 13.1"/>
        <path fill="#394E5E" d="M423.248 222.96l-8.187-3.82-17.317-7.04c-4.346-2.068-15.127-1.984-14.89 7.083L382 233.356l18.71-2.523s12.92 5.668 18.505 5.131c9.964-.953 4.033-13.005 4.033-13.005"/>
        <path fill="#4C647A" d="M423.543 238.303c4.18-3.304 4.457-13.12 4.457-13.12L425.677 207l-17.883 9.443-5.805 8.975-23.869-3.97c-5.688-1.774-10.238 1.485-12.12 12.112l4.867 1.54s1.826 4.194 4.747.796c1.624-1.89 2.506-1.062 2.506-1.062l25.915 7.013c11.007 2.975 15.516-.385 19.508-3.544"/>
        <path fill="#B28059" d="M389.696 199s-9.848-.71-11.161-.842c-3.567-.357-5.657-2.147-5.227-2.804.862-1.311-.307-3.757-.307-3.757s-.06-.597.615-.597c.707 0 1.352 2.386 2.214 3.102.66.549 2.213.835 2.213.835s1.782.656 2.559-.598c.374-.608-1.4-.506-2.067-.833-.468-.229-1.45-.875-1.49-1.416-.058-.813.705-.928.705-.928s.438.045 2.586 1.115c1.724.857 3.187.334 4.178.837 1.365.695 1.893 1.993 1.893 1.993l3.593.163-.304 3.73"/>
        <path fill="#BD612E" d="M413.296 179s12.89 1.888 7.298 17.785c-.52 1.48-4.394 3.424-6.704 7.051 0 0-2.773 4.224-8.888 2.911-4.558-.978-21.73-7.383-21.73-7.383s-.816-1.011.377-3.92c.79-1.928 2.113-2.372 2.113-2.372l18.953 3.084 8.58-17.156"/>
        <path fill="#B28059" d="M409.726 149.905l-6.9-1.905-4.362 17.519c-1.35 4.995.525 6.415 2.049 6.913 3.163 1.037 7.27.424 9.388-.033 4.101-.881 5.963-6.63 6.147-7.085L421 154.258l-11.274-4.353"/>
        <path fill="#B28059" d="M419.164 176.509s-2.733-2.739-3.317-3.855c-.925-1.76-1.966-7.654-1.966-7.654l-9.059 2.873s1.503 5.77 2.223 7.67c.448 1.186 2.453 4.682 2.453 4.682.14 1.453-6.917 12.26-6.478 16.775l16.98-6.913c-.187-1.922-.836-13.578-.836-13.578"/>
        <path fill="#3C3112" d="M405.704 146.007c-4.717 1.211-3.585 3.493-3.585 3.493-.287 0 .516 1.793 1.228 2.231 1.343.828 4.416 7.121 4.472 11.172 0 0-1.12 3.784 1.095 4.846 2.46 1.18-4.522 8.005-4.53 9.125 0 0 .444 9.23 1.133 9.125.581-.092 11.46-5.876 11.325-5.703-.095.123 2.003 5.238 5.663 2.281 7.304-5.906 3.78-28.958 2.644-31.043-.52-.954-1.116-4.285-10.671-6.525-.509-.117-8.605.955-8.774.998z"/>
        <path fill="#A37048" d="M405.712 158s1.432.857 1.276 2.902c-.113 1.444-.939 2.356-1.295 2.58-.948.602-1.693.513-1.693.513s1.148-3.11 1.326-3.7c.178-.586.386-2.295.386-2.295"/>
        <path fill="#B28059" d="M405.422 157.035s-.592-.314-.493.933c.101 1.247.006 1.928-.162 2.527-.156.551-.767 2.122-.767 2.122s.171.844.845.026c.321-.39.714-1.238 1.054-2.4.137-.473.25-3.141-.477-3.208"/>
        <path fill="#D37036" d="M403.374 186.203c-1.818 2.209-1.53 8.816-.852 15.947l1.28 18.858c.118 1.24-1.989 10.685 3.41 13.035 1.895.824 8.41 4.307 12.88 2.388 1.829-.783 10.152-6.36 9.903-8.97l-2.606-39.733c-.853-9.984-9.663-13.728-9.663-13.728l-7.388 5.407-6.964 6.796"/>
        <path fill="#B28059" d="M381.89 219.198s-5.493-.446-7.58 0c-2.086.444-8.238 2.887-8.238 2.887s-1.758.664-.771 1.777c.473.528 1.87 1.332 2.418 1.777.55.446 2.198.554 5.492-.111 1.727-.35 2.527-.334 4.506-.114 1.976.225 4.283-.663 4.283-.663l-.11-5.553"/>
        <path fill="#E8894F" d="M380.826 221.727c1.199 2.362 2.639 3.273 2.639 3.273s13.175-4.382 14.94-5.012c2.546-.907 3.49-1.805 5.172-3.84 3.108-3.75 7.265-15.97 7.265-15.97s3.347-8.183-1.339-12.03c-3.452-2.834-7.22-3.11-8.194.665-.906 3.516-3.604 14.759-4.875 19.07-.468 1.595-1.632 2.916-3.181 3.544l-11.565 5.476s-1.226.163-1.637 1.564c-.222.76.325 2.377.775 3.26"/>
        <path fill="#2A2B29" d="M422 215v30.741c-1.358.77-3-.27-3-1.89v-27.878l3-.973"/>
        <path fill="#454543" d="M421.5 215.055c.745-.243 1.5.351 1.5 1.184v26.901c0 1.126-.577 2.177-1.5 2.723-.672.398-1.5-.119-1.5-.936v-27.704c0-.994.61-1.873 1.5-2.168"/>
        <path fill="#203A43" d="M433.42 197.15s-2.022-.831-3.01 1.42c-1.153 2.626-1.572 4.136-7.126 6.641-3.954 1.782-7.227 1.98-10.122 2.037-5.372.107-8.243 2.564-8.16 6.537.103 4.82 4.956 6.064 5.405 6.106 6.059.57 8.072-1.132 14.967-4.31 6.155-2.835 8.426-5.563 8.617-9.933.094-2.192-.571-8.498-.571-8.498"/>
        <path fill="#30525A" d="M433.39 198s.818 6.305-8.556 9.562c-5.242 1.823-8.721 2.43-11.757 2.663-4.124.316-7.38 1.262-7.055 4.942.263 2.963 1.716 5.006 4.668 5.362 3.474.421 6.447 1.267 13.894-1.366 6.336-2.24 9.205-6.192 9.406-10.482.1-2.152-.6-10.681-.6-10.681"/>
        <ellipse cx="167.5" cy="68" fill="#D3D3D3" rx="8.5" ry="6"/>
        <ellipse cx="333.241" cy="146.304" fill="#D3D3D3" rx="13.24" ry="6.909" transform="rotate(-40 333.241 146.304)"/>
    </g>
</svg>
