<?xml version="1.0" encoding="UTF-8" standalone="no"?>
<!DOCTYPE svg PUBLIC "-//W3C//DTD SVG 1.1//EN" "http://www.w3.org/Graphics/SVG/1.1/DTD/svg11.dtd">
<svg width="100%" height="100%" viewBox="0 0 716 508" version="1.1" xmlns="http://www.w3.org/2000/svg" xmlns:xlink="http://www.w3.org/1999/xlink" xml:space="preserve" xmlns:serif="http://www.serif.com/" style="fill-rule:evenodd;clip-rule:evenodd;stroke-linejoin:round;stroke-miterlimit:2;">
    <g transform="matrix(1.23661,0,0,1.23661,0,0)">
        <path d="M327.383,207.696L212.673,274.239C199.961,281.649 179.406,281.649 166.763,274.23L50.44,206.33C44.158,202.648 41.014,197.827 41.001,193L41.041,219.204C41.053,224.033 44.196,228.852 50.479,232.535L166.804,300.437C179.444,307.853 199.998,307.853 212.713,300.444L327.417,233.904C333.817,230.179 337.013,225.28 337.001,220.395L336.958,194.192C336.976,199.081 333.78,203.973 327.384,207.696L327.383,207.696Z" style="fill:rgb(146,70,35);"/>
        <path d="M50.577,180.926C37.864,188.318 37.797,200.311 50.44,207.706L166.78,275.448C179.424,282.849 199.982,282.849 212.697,275.457L327.422,209.069C340.135,201.681 340.204,189.692 327.56,182.295L211.216,114.547C198.573,107.151 178.016,107.151 165.301,114.545L50.577,180.926" style="fill:rgb(172,204,199);"/>
        <path d="M537.965,248C537.977,252.03 535.169,256.064 529.548,259.137L385.12,337.815C373.945,343.922 355.881,343.922 344.771,337.811L223.294,270.305C217.776,267.266 215.011,263.293 215,259.314L215.034,280.917C215.044,284.897 217.809,288.871 223.329,291.908L344.805,359.414C355.913,365.528 373.979,365.528 385.152,359.418L529.582,280.743C535.2,277.669 538.012,273.634 538,269.603L537.965,248" style="fill:rgb(57,142,143);"/>
        <path d="M223.393,247.97C212.252,254.134 212.195,264.125 223.269,270.292L344.384,338.377C355.46,344.54 373.471,344.54 384.612,338.381L528.608,259.028C539.748,252.868 539.806,242.875 528.728,236.708L407.616,168.626C396.541,162.459 378.532,162.459 367.39,168.622L223.393,247.97" style="fill:rgb(84,181,182);"/>
        <path d="M285.321,265L282,263.08L383.679,205L387,206.92L285.321,265" style="fill:rgb(79,132,142);"/>
        <path d="M336.958,190.178C336.973,195.008 333.78,199.846 327.383,203.531L212.674,269.307C199.959,276.63 179.404,276.63 166.763,269.297L50.439,202.177C44.157,198.536 41.012,193.77 41,189L41.037,199.2C41.051,203.973 44.193,208.737 50.475,212.378L166.801,279.5C179.443,286.832 199.995,286.832 212.713,279.509L327.416,213.733C333.816,210.048 337.012,205.21 337,200.379L336.958,190.178" style="fill:rgb(146,70,35);"/>
        <path d="M50.578,173.925C37.865,181.32 37.797,193.309 50.44,200.706L166.78,268.448C179.424,275.848 199.981,275.848 212.698,268.458L327.422,202.073C340.135,194.682 340.203,182.691 327.561,175.293L211.217,107.548C198.571,100.151 178.016,100.151 165.301,107.545L50.578,173.925" style="fill:rgb(201,117,78);"/>
        <path d="M209.321,250L206,248.08L307.679,190L311,191.921L209.321,250M197.442,199C196.962,199 196.452,198.995 195.916,198.986C186.919,198.829 161,197.737 161,197.737L166.252,184.928L230.214,149C230.214,149 242.882,158.997 221.871,171.493C213.701,176.353 236.217,188.79 232.995,190.863C232.013,191.495 230.826,191.749 229.49,191.749C226.73,191.749 223.335,190.661 219.816,189.575C216.296,188.487 212.65,187.4 209.386,187.4C206.56,187.4 204.02,188.215 202.096,190.55C199.098,194.188 212.966,199 197.442,199" style="fill:rgb(147,89,62);"/>
        <path d="M196.103,184L201.25,189.219C201.25,189.219 203.534,190.995 204.44,192.007C204.642,192.232 204.955,193.083 204.993,193.76C205.021,194.193 204.973,195.6 204.689,195.913C203.959,196.713 201.209,198.208 197.842,197.976C194.11,197.719 191.846,195.302 191.846,195.302C191.241,194.902 186.704,190.907 186.704,190.907C186.704,190.907 185.297,189.723 185.222,188.232L185,184.755L196.103,184" style="fill:rgb(233,226,216);"/>
        <path d="M196.266,183.67L196.923,185.391L201.772,189.796C201.772,189.796 202.898,190.749 204.074,192.134C204.469,192.604 204.958,193.136 204.997,193.806C205.021,194.235 204.914,194.658 204.627,194.967C203.897,195.76 201.903,196.593 200.653,196.819C195.995,197.663 193.216,195.284 193.216,195.284C192.728,194.967 187.496,190.916 186.324,189.671C185.611,188.913 185.297,187.068 185.297,187.068C185.297,187.068 185.075,186.041 185.011,185.265C184.81,182.851 187.517,181 187.517,181L196.267,183.67" style="fill:rgb(185,72,73);"/>
        <path d="M194.03,190.91C194.104,191.03 194.278,191.015 194.411,190.953C194.917,190.71 196.299,189.791 197.46,189.577C199.183,189.258 200.08,189.419 200.631,189.53C200.773,189.56 200.941,189.534 200.987,189.406C201.026,189.304 200.974,189.187 200.862,189.162C200.361,189.045 199.136,188.844 197.168,189.208C195.854,189.45 194.562,190.415 194.104,190.642C193.998,190.692 193.972,190.817 194.03,190.91M193.031,189.911C193.106,190.028 193.283,190.016 193.417,189.952C193.931,189.711 195.516,188.796 196.692,188.583C198.443,188.266 199.067,188.403 199.625,188.514C199.771,188.541 199.942,188.517 199.988,188.39C200.026,188.287 199.975,188.173 199.86,188.146C199.35,188.029 198.212,187.856 196.214,188.216C194.88,188.457 193.571,189.416 193.104,189.644C192.999,189.694 192.971,189.817 193.031,189.911M192.032,188.912C192.109,189.029 192.289,189.015 192.425,188.951C192.95,188.711 194.668,187.786 195.865,187.573C197.65,187.253 198.048,187.383 198.619,187.496C198.766,187.523 198.94,187.499 198.987,187.371C199.026,187.269 198.974,187.154 198.858,187.127C198.338,187.009 197.518,186.86 195.493,187.267C194.331,187.502 192.583,188.417 192.106,188.643C191.999,188.693 191.97,188.816 192.032,188.913" style="fill:rgb(255,255,254);"/>
        <path d="M229.292,126.877L229.249,159.336C229.254,160.155 229.539,160.73 230,161L198.852,142.698C198.389,142.425 198.101,141.852 198.099,141.032L198,115L229.292,126.877" style="fill:rgb(157,126,93);"/>
        <g transform="matrix(1,0,0,1,123,154)">
            <path d="M45.925,26.722L0.363,0.271C0.365,1.164 0.655,1.795 1.101,2.057L46.665,28.507C46.215,28.246 45.927,27.618 45.925,26.722" style="fill:rgb(227,227,222);"/>
        </g>
        <path d="M168.962,168.079L124,142L124.038,154.924L169,181L168.962,168.079" style="fill:rgb(169,170,166);"/>
        <path d="M181.418,106.22C181.88,105.95 182.304,105.938 182.636,106.134L228,132.724C227.665,132.53 227.242,132.542 226.78,132.812L171.36,165L126,138.409L181.418,106.219" style="fill:rgb(173,125,82);"/>
        <g transform="matrix(1,0,0,1,123,138)">
            <path d="M47.464,26.848L2.26,0.458C2.012,0.601 1.777,0.807 1.558,1.055L46.762,27.446C46.979,27.196 47.215,26.995 47.462,26.848" style="fill:rgb(227,227,222);"/>
            <path d="M46.763,27.446L1.559,1.055C1.259,1.401 0.994,1.825 0.789,2.297L45.991,28.687C46.198,28.219 46.461,27.79 46.763,27.446" style="fill:rgb(227,227,222);"/>
            <path d="M45.99,28.687L0.79,2.297C0.496,2.964 0.32,3.71 0.321,4.413L45.523,30.806C45.523,30.1 45.7,29.351 45.99,28.687" style="fill:rgb(227,227,222);"/>
        </g>
        <path d="M170.968,164.092C169.88,164.716 168.994,166.483 169,168.041L169.039,181.09C169.042,182.654 169.932,183.402 171.021,182.783L227.036,150.907C228.126,150.284 229.004,148.523 229,146.962L228.961,133.912C228.958,132.355 228.072,131.596 226.983,132.217L170.968,164.092" style="fill:rgb(188,144,102);"/>
        <path d="M225.042,109.556C221.697,111.474 218.992,116.126 219,119.946L219.05,134.896C219.054,135.986 219.83,136.426 220.785,135.879L230.452,130.289L230.55,158.183C230.555,159.826 231.743,160.464 233.184,159.641L233.412,159.51C235.036,158.577 236.003,156.696 236,155.062L235.982,136.332L235.893,110.269C235.88,106.447 233.158,104.906 229.807,106.826L225.042,109.556" style="fill:rgb(207,165,121);"/>
        <g transform="matrix(1,0,0,1,173,55)">
            <path d="M15.435,8.214L2.65,0.818C2.035,0.465 1.126,0.54 0.11,1.124L12.896,8.517C13.91,7.935 14.821,7.858 15.436,8.214" style="fill:rgb(230,207,174);"/>
        </g>
        <path d="M185,64.335L172.501,57L129,82.664L141.499,90L185,64.335M137.963,95.243L125,88L125.165,134.457L138,143L137.963,95.243" style="fill:rgb(231,215,194);"/>
        <g transform="matrix(1,0,0,1,126,82)">
            <path d="M0.764,3.988C1.064,3.313 1.497,2.651 2.014,2.068C2.507,1.514 3.074,1.033 3.68,0.688L16.698,8.165C16.093,8.511 15.524,8.991 15.032,9.544C14.515,10.126 14.08,10.789 13.781,11.462C13.485,12.127 13.316,12.799 13.316,13.415L0.298,5.939C0.296,5.324 0.466,4.652 0.764,3.988" style="fill:rgb(231,215,194);"/>
        </g>
        <path d="M141.304,89.525C139.476,90.588 137.994,92.925 138,94.745L138.11,143.108C138.116,144.928 139.604,145.541 141.433,144.478L185.696,118.474C187.523,117.409 189.003,115.073 189,113.253L188.889,64.894C188.883,63.071 187.395,62.46 185.567,63.52L141.304,89.525" style="fill:rgb(202,169,131);"/>
        <path d="M218.443,119.26L218.493,134.883C218.496,135.433 218.689,135.817 219,136L187.555,117.737C187.245,117.557 187.05,117.171 187.049,116.623L187,101L218.443,119.26" style="fill:rgb(212,187,155);"/>
        <path d="M188.061,97.427C190.267,92.537 193.334,91.432 197.939,88.826C199.646,87.86 201.19,87.77 202.308,88.406L234,106.461C231.758,105.184 229.49,106.961 224.806,109.611C221.426,111.527 218.681,116.174 218.69,120L187,101.945C186.995,100.493 187.387,98.922 188.061,97.427" style="fill:rgb(230,207,174);"/>
        <path d="M222.584,178L228.851,184.25C228.851,184.25 231.577,184.638 232.479,185.796C232.678,186.052 235.001,186.046 235,186.782C234.999,187.252 234.885,188.897 234.64,189.285C234.152,190.055 233.395,191.005 230.795,191C228.757,191 225.861,189.965 222.906,189.006C220.088,188.092 217.184,187.554 217.184,187.554C213.894,186.816 212.224,186.036 212.224,186.036C212.224,186.036 211.318,185.592 211.284,184.834L211,180.682L222.584,178" style="fill:rgb(233,226,216);"/>
        <path d="M223.789,177.011C223.151,178.054 223.831,178.417 223.831,178.417L229.589,182.154C229.589,182.154 232.703,183.834 233.884,184.654C234.418,185.026 235.001,185.724 235,186.454C235,186.92 234.575,187.792 233.897,188.252C232.951,188.894 232.243,189.015 229.808,188.999C227.573,188.981 223.653,187.019 219.228,186.059C211.009,184.276 211.23,182.599 211.23,182.599C211.23,182.599 211.02,179.972 211.004,179.129C210.938,176.506 211.766,175 211.766,175C211.766,175 218.93,176.528 222.848,175.358C223.074,175.29 224.202,176.335 223.788,177.011" style="fill:rgb(185,72,73);"/>
        <path d="M223.095,183.899C223.236,184.059 223.482,184.013 223.645,183.878C224.242,183.378 225.548,182.338 226.583,181.912C227.37,181.587 228.013,181.666 228.391,181.774C228.594,181.833 228.831,181.814 228.939,181.634C229.023,181.492 229.035,181.291 228.88,181.228C228.462,181.054 227.518,180.792 226.327,181.283C225.121,181.776 223.647,182.98 223.091,183.45C222.958,183.565 222.981,183.768 223.095,183.899" style="fill:rgb(248,247,245);"/>
        <path d="M222.095,182.898C222.236,183.058 222.48,183.013 222.645,182.878C223.242,182.378 224.547,181.338 225.581,180.914C226.369,180.59 227.01,180.666 227.39,180.774C227.591,180.834 227.829,180.816 227.938,180.634C228.024,180.491 228.035,180.292 227.88,180.226C227.462,180.056 226.518,179.79 225.324,180.283C224.121,180.778 222.644,181.98 222.092,182.453C221.959,182.566 221.979,182.768 222.095,182.898M220.095,181.897C220.235,182.058 220.48,182.013 220.643,181.878C221.24,181.378 222.549,180.338 223.582,179.912C224.369,179.589 225.012,179.669 225.39,179.777C225.593,179.832 225.83,179.815 225.94,179.632C226.024,179.492 226.033,179.29 225.88,179.229C225.462,179.054 224.517,178.791 223.327,179.282C222.119,179.779 220.645,180.98 220.091,181.449C219.959,181.566 219.979,181.767 220.095,181.897" style="fill:rgb(248,247,245);"/>
        <path d="M171.659,125L204.275,138.622C204.275,138.622 209.557,140.254 211.612,148.972C212.652,153.39 217.356,167.057 221.855,176.958C223.09,179.676 216.221,183.449 210.034,178.822C209.474,178.402 200.678,157.748 200.449,157.266C198.989,154.204 198.949,152.809 198.949,152.809C198.555,151.025 197.621,151.202 194.902,149.744L171.824,140.875C171.824,140.875 171,138.901 171,132.29C171,130.13 171.659,125 171.659,125" style="fill:rgb(76,100,122);"/>
        <path d="M166.967,130C166.967,130 179.601,141.21 189.202,149.917C191.172,151.701 191.83,155.635 192.32,159.651C192.974,165.004 195.96,181.529 196.916,183.419C197.886,185.333 190.201,188.116 185.019,183.419C184.503,182.949 180.721,165.859 180.67,165.33C180.67,165.33 180.347,163.43 180.505,162.41C180.833,160.3 179.027,158.882 177.55,158.151C172.737,155.771 162.372,148.497 158.597,146.063C154.418,143.368 153.95,138.85 154.004,136.815C154.132,131.954 166.967,130 166.967,130" style="fill:rgb(76,100,122);"/>
        <path d="M198.906,111.784C198.354,112.119 197.334,112.444 197.334,112.444C197.334,112.444 195.228,114.494 195.247,113.888C195.36,110.058 195.887,107.466 195.073,106.965C194.709,106.741 193.916,106.772 192.953,105.901C190.039,103.265 180.77,99.007 180.77,99.007C180.77,99.007 172.093,88.669 176.02,86.422C179.143,84.635 183.34,88.897 187.494,92.26C188.834,93.346 198.174,99.21 199.519,100.151C203.345,102.83 202.991,106.983 202.991,106.983L201.729,106.536C201.729,106.536 201.559,110.177 198.906,111.784" style="fill:rgb(19,47,48);"/>
        <path d="M152.525,132.386C152.525,132.386 153.53,107.61 152.078,100.067C151.468,96.903 154.637,94.972 154.637,94.972C156.034,93.902 165.969,88.665 165.969,88.665L166.826,87.773L172.656,87.073C172.656,87.073 178.726,86.363 180.099,89.36C182.117,93.77 183.411,96.482 182.881,105.024L179.065,135.45C178.99,136.6 178.801,137.953 177.509,138.839C177.509,138.839 168.761,142.552 164.27,141.929C159.67,141.293 155.477,138.292 155.477,138.292C152.762,136.511 152.496,131.984 152.525,132.386M195.915,115.387C195.915,115.387 196.078,109.316 195.158,107.146C194.242,104.986 197.515,100.913 199.642,102.271C203.183,104.531 203.89,107.306 203.986,108.826C204.136,111.241 203.06,114.68 202.636,116L195.916,115.387" style="fill:rgb(21,57,60);"/>
        <path d="M174,93.71C172.458,98.656 164.519,94.581 164.556,90.96C164.61,85.836 162,81 162,81L171.068,81.052L174,93.709" style="fill:rgb(226,193,165);"/>
        <path d="M163.417,75.12C165.617,74.554 166.545,76.17 166.545,76.17L167.975,79.682C167.975,79.682 168.18,80.472 167.406,80.824C166.236,81.347 165.34,80.617 164.389,79.804C164.334,79.759 163.047,78.53 162.969,78.456C161.872,77.418 161.333,75.656 163.417,75.121" style="fill:rgb(253,229,209);"/>
        <path d="M168.223,68.914L168.223,68.918L161,70.923L164.382,84.261C164.722,85.148 164.9,85.981 165.25,86.712C165.635,87.515 165.972,88.712 167.191,89.217C167.191,89.217 168.52,89.578 170.315,90.211C171.435,90.607 172.79,90.953 174.257,91C175.22,91.029 177.022,89.525 177.022,89.525C178.216,88.602 178.005,88.675 177.951,84.416C177.951,84.416 177.498,76.73 177.501,74.392C177.504,71.314 174.531,67 174.531,67L168.223,68.914" style="fill:rgb(238,197,159);"/>
        <path d="M177.745,67.542C177.815,67.744 178.518,70.315 177.235,70.574C177.05,70.612 175.912,70.18 173.206,70.689C173.068,70.717 167.961,71.514 167.203,75.382C166.853,77.155 166.674,80.889 166.67,80.913C166.618,81.193 163.653,81.041 163.736,81.218C164.46,82.774 164.762,87.998 164.762,87.998C164.239,88.025 162.946,87.843 161.902,87.273C161.304,86.945 162.115,85.828 161.361,84.503C160.716,83.373 158.239,79.106 157.693,78.328C152.456,70.865 159.911,58.522 172.577,62.925C173.947,63.401 176.087,64.792 177.025,65.518C177.988,66.263 177.263,66.114 177.745,67.542" style="fill:rgb(145,80,42);"/>
        <path d="M163.415,78.177C165.429,77.331 166.723,79.797 166.723,79.797L167.957,82.602C167.957,82.602 168.239,83.672 167.36,83.91C166.335,84.189 165.38,83.803 164.43,82.991C164.372,82.947 162.987,81.81 162.91,81.736C161.816,80.704 161.41,79.018 163.415,78.176" style="fill:rgb(238,197,159);"/>
        <path d="M178.51,67.015C178.51,67.015 172.95,66.637 170.865,69.687C168.78,72.737 167.518,73.137 167.498,75.522C167.45,81.136 167,83 167,83C167,83 168.74,82.991 169.363,80.73C170.091,78.08 170.864,76.823 171.449,76.644C172.076,76.452 171.834,78.419 171.341,79.251C171.226,79.446 175.688,77.915 177.719,75.209C179.499,72.84 179.414,72.629 179.804,71.436C180.314,69.866 179.812,67.565 178.51,67.015M166,85C166,85 166.367,87.066 166.79,88.128C167.213,89.19 167.918,89.541 169.898,90.313C172.154,91.195 174.222,92.076 175.247,91.995C176.972,91.857 179.682,89.868 179.967,88.775C180.097,88.273 179.802,86.385 179.802,86.385C179.802,86.385 179.772,88.77 179.175,88.848C178.787,88.898 178.451,88.442 178.451,88.442C178.451,88.442 178.213,87.978 177.85,88.977C177.566,89.757 177.216,90.008 177.045,90.11C175.717,90.912 174.048,90.675 172.295,90.2C170.251,89.643 167.595,87.89 167.246,87.297C166.736,86.43 166,85 166,85" style="fill:rgb(145,80,42);"/>
        <path d="M197.968,114.803C198.016,116.125 198.188,116.219 196.758,116.251C196.261,116.266 194.711,117.044 195.648,118.169C196.445,119.129 195.671,120.859 194.346,119.497C194.154,119.299 192.886,117.98 193.008,117.151C193.595,113.18 195.508,112.034 196.933,112.001C198.358,111.967 197.923,113.48 197.968,114.803" style="fill:rgb(253,229,209);"/>
        <path d="M200.912,112.522C200.912,112.522 198.598,111.715 197.818,112.108C196.031,113.01 196,114.988 196,114.988L196.02,115.701L196.965,120.209C196.965,120.209 197.315,123.588 197.96,124.763C198.2,125.195 198.64,125.001 198.893,124.466C199.111,124.007 198.673,121.517 199.095,121.401C201.411,120.755 202.662,119.334 202.662,119.334L203,115.266C203.003,113.706 202.56,113.589 200.912,112.522" style="fill:rgb(253,229,209);"/>
        <path d="M154.227,203.3L118,182C118.002,182.833 118.298,183.424 118.772,183.699L155,205C154.525,204.725 154.231,204.137 154.227,203.3" style="fill:rgb(212,187,155);"/>
        <path d="M153.852,157.9L153.925,184.167L154,203L118.149,182.101L118.073,163.264L118,137L153.852,157.9" style="fill:rgb(212,187,155);"/>
        <path d="M134.839,120.813C136.533,119.861 138.068,119.773 139.175,120.401L175,140.877C173.893,140.249 172.357,140.337 170.661,141.288L161.824,146L126,125.524L134.839,120.813" style="fill:rgb(230,207,174);"/>
        <g transform="matrix(1,0,0,1,118,127)">
            <path d="M1.339,5.808C1.935,4.499 2.749,3.248 3.706,2.193C4.512,1.3 5.416,0.548 6.374,0.009L42.317,20.5C41.36,21.037 40.455,21.792 39.649,22.684C38.692,23.74 37.877,24.992 37.28,26.299C36.609,27.779 36.218,29.329 36.223,30.759L0.279,10.27C0.275,8.839 0.667,7.286 1.34,5.808" style="fill:rgb(230,207,174);"/>
        </g>
        <path d="M155.072,183.666L155.147,202.186C155.153,203.806 156.321,204.463 157.757,203.653L168.823,197.643C170.264,196.824 170.017,195.644 170.01,194.025L169.94,168.623L174.271,166.169C175.228,165.624 176.002,164.312 176,163.23L175.949,146.226C175.939,142.446 173.212,140.916 169.855,142.816L161.051,147.546C157.698,149.442 154.989,154.057 155,157.836L155.072,183.666" style="fill:rgb(207,165,121);"/>
        <path d="M165.169,136.704C166.223,137.567 167.864,136.385 168.503,135.21C168.725,134.803 170.834,136.17 171.9,136.167C173.02,136.167 173.088,134.807 172.945,134.461C172.831,134.191 171.525,133.873 169.312,132.895C166.442,131.632 164.928,131.761 164.292,132.936C163.654,134.111 164.115,135.845 165.169,136.704" style="fill:rgb(253,229,209);"/>
        <path d="M161.201,133.385C162.847,130.003 166.098,131.209 166.098,131.209C166.098,131.209 170.661,134.094 171.871,135.385C172.677,136.243 173.904,138.637 173.989,139.538C174.124,140.964 172.964,140.714 172.964,140.714C170.647,141.52 169.114,140.367 169.114,140.367L166.429,138.229C161.475,135.775 160.503,134.817 161.201,133.385" style="fill:rgb(253,229,209);"/>
        <path d="M162.406,134.037C161.246,135.5 161.309,137.024 161.246,137C156.297,135.136 145.855,129.833 142.907,127.483C139.955,125.129 141.311,121.945 141.311,121.945C141.311,121.945 147.626,104.954 151.473,98.481C154.507,93.379 159.72,96.781 158.758,102.941C158.204,106.474 152.528,117.455 150.798,121.131C149.805,123.253 151.299,123.855 151.299,123.855L165,132.137C165,132.137 163.617,132.512 162.406,134.037" style="fill:rgb(25,82,83);"/>
        <g transform="matrix(1,0,0,1,302,73)">
            <path d="M4.03,2.794L0.613,1.074C2.508,0.124 4.225,0.036 5.466,0.661L8.882,2.382C7.642,1.757 5.924,1.845 4.029,2.793" style="fill:rgb(55,96,91);"/>
        </g>
        <path d="M212,236L208.21,234.127C206.85,233.457 206.006,232.029 206,230L209.79,231.871C209.796,233.901 210.64,235.328 212,236" style="fill:rgb(55,96,91);"/>
        <path d="M210,231L205.356,229.019L205,137L209.644,138.982L210,231M216.382,128L213,126.025L302.62,74L306,75.976L216.382,128" style="fill:rgb(57,142,143);"/>
        <path d="M209.345,139L206,136.98C205.989,132.577 208.97,127.212 212.655,125L216,127.02C212.313,129.232 209.332,134.597 209.345,139" style="fill:rgb(123,175,171);"/>
        <g transform="matrix(1,0,0,1,206,126)">
            <path d="M3.914,14.41L0.213,12.361C0.2,7.896 3.499,2.456 7.578,0.212L11.279,2.26C7.2,4.504 3.901,9.944 3.914,14.41" style="fill:rgb(57,142,143);"/>
        </g>
        <path d="M305.927,75.93C309.677,73.768 312.73,75.504 312.741,79.806L313,171.416C313.014,175.719 309.983,180.963 306.232,183.122L216.074,235.072C212.324,237.232 209.272,235.494 209.261,231.192L209,139.58C208.988,135.279 212.02,130.038 215.77,127.877L305.927,75.928" style="fill:rgb(84,181,182);"/>
        <path d="M279.014,92.326L286,88L285.987,91.674L279,96L279.014,92.326" style="fill:rgb(73,103,109);"/>
        <path d="M273,89.307L280.99,85L286,87.693L278.01,92L273,89.307" style="fill:rgb(81,116,123);"/>
        <path d="M273.001,90L273,90.733L277.275,92.91L277.264,95.634L277.984,96L278,92.544L273.001,90" style="fill:rgb(49,69,73);"/>
        <path d="M273,90L273,91L274,90.623L273,90" style="fill:rgb(49,69,73);"/>
        <g transform="matrix(1,0,0,1,275,77)">
            <path d="M0.657,0.435L0.72,12.175C0.72,12.625 1.002,13.073 1.561,13.415C2.684,14.102 4.516,14.105 5.648,13.415C6.218,13.069 6.502,12.615 6.501,12.162L6.438,0.42C6.439,0.873 6.157,1.327 5.585,1.673C4.453,2.363 2.622,2.36 1.499,1.673C0.94,1.331 0.66,0.884 0.657,0.434" style="fill:rgb(116,162,175);"/>
        </g>
        <path d="M276.883,76.439C275.709,77.025 275.706,77.975 276.873,78.561C278.039,79.145 279.939,79.147 281.113,78.561C282.292,77.975 282.294,77.025 281.128,76.441C279.96,75.854 278.06,75.853 276.883,76.439" style="fill:rgb(101,139,151);"/>
        <path d="M261.422,71.602C265.345,81.034 276.17,85.5 285.602,81.577C295.034,77.655 299.5,66.83 295.577,57.397C291.654,47.967 280.829,43.5 271.397,47.423C261.967,51.345 257.501,62.171 261.422,71.602" style="fill:rgb(147,190,207);"/>
        <rect x="215" y="270" width="12" height="24" style="fill:rgb(146,70,35);"/>
        <g transform="matrix(1,0,0,1,374,85)">
            <path d="M3.684,2.725L0.364,1.053C2.208,0.131 3.878,0.046 5.08,0.653L8.4,2.325C7.195,1.718 5.526,1.803 3.684,2.725" style="fill:rgb(123,175,171);"/>
        </g>
        <g transform="matrix(1,0,0,1,281,237)">
            <path d="M5.906,5.965L2.312,4.107C1.02,3.442 0.222,2.024 0.215,0.013L3.81,1.869C3.817,3.883 4.615,5.298 5.906,5.965" style="fill:rgb(123,175,171);"/>
        </g>
        <path d="M285,240L282.214,238.082L282,149L284.787,150.919L285,240M291.309,138L288,136.098L375.691,86L379,87.902L291.309,138M285.01,151L282,148.98C281.99,144.577 284.672,139.212 287.99,137L291,139.02C287.682,141.231 284.999,146.597 285.01,151" style="fill:rgb(123,175,171);"/>
        <g transform="matrix(1,0,0,1,281,137)">
            <path d="M4.285,13.601L0.688,11.651C0.677,7.398 3.88,2.217 7.844,0.082L11.44,2.032C7.478,4.168 4.272,9.349 4.285,13.6" style="fill:rgb(123,175,171);"/>
        </g>
        <path d="M378.13,87.906C381.772,85.799 384.736,87.491 384.748,91.686L385,181.022C385.013,185.216 382.069,190.33 378.426,192.437L290.871,243.095C287.228,245.201 284.265,243.505 284.253,239.312L284,149.976C283.988,145.782 286.933,140.672 290.574,138.565L378.131,87.906" style="fill:rgb(37,45,47);"/>
        <path d="M356.493,205.596L356.495,205.404L356.507,205.587L356.493,205.596" style="fill:rgb(17,18,16);"/>
        <path d="M349.495,204.516L349.498,204.484L349.505,204.489L349.495,204.516" style="fill:rgb(55,56,53);"/>
        <path d="M343.507,177.474L343.507,177.526L343.493,177.486L343.507,177.474" style="fill:rgb(16,16,13);"/>
        <path d="M355.488,139.563L355.512,139.438L355.49,139.563L355.488,139.563" style="fill:rgb(136,106,54);"/>
        <path d="M350.013,104.785L357,101L356.987,104.214L350,108L350.013,104.785" style="fill:rgb(73,103,109);"/>
        <path d="M345,102.307L352.375,98L357,100.693L349.626,105L345,102.307" style="fill:rgb(81,116,123);"/>
        <path d="M345.003,102L345,102.733L349.275,104.911L349.263,107.634L349.985,108L350,104.544L345.003,102" style="fill:rgb(49,69,73);"/>
        <g transform="matrix(1,0,0,1,348,91)">
            <path d="M5.998,0.066L5.942,11.248C5.941,11.675 5.681,12.103 5.162,12.428C4.124,13.083 2.429,13.085 1.382,12.428C0.853,12.099 0.592,11.667 0.593,11.234L0.65,0.053C0.65,0.485 0.913,0.918 1.44,1.247C2.488,1.903 4.182,1.902 5.22,1.247C5.738,0.921 5.999,0.494 5.999,0.067" style="fill:rgb(116,162,175);"/>
        </g>
        <path d="M353.117,90.439C354.291,91.025 354.294,91.975 353.126,92.561C351.961,93.146 350.061,93.147 348.886,92.561C347.709,91.975 347.706,91.025 348.871,90.441C350.04,89.854 351.94,89.853 353.117,90.439" style="fill:rgb(101,139,151);"/>
        <path d="M371.616,85.91C367.799,95.087 357.266,99.432 348.088,95.616C338.913,91.8 334.568,81.267 338.385,72.09C342.201,62.913 352.733,58.568 361.91,62.384C371.087,66.201 375.432,76.734 371.616,85.91" style="fill:rgb(147,190,207);"/>
        <g transform="matrix(1,0,0,1,370,83)">
            <path d="M-6.71,16.824L-9.514,13.031C-5.367,12.476 -0.722,8.821 0.863,4.87C1.65,2.909 1.534,1.24 0.71,0.127L3.517,3.92C4.34,5.032 4.454,6.7 3.666,8.662C2.083,12.612 -2.561,16.268 -6.71,16.823" style="fill:rgb(182,220,228);"/>
        </g>
        <path d="M373.773,89.522C373.793,89.454 373.805,89.39 373.822,89.323C373.856,89.195 373.891,89.067 373.915,88.943C373.93,88.861 373.936,88.783 373.947,88.703C373.963,88.599 373.982,88.493 373.989,88.393C373.995,88.31 373.992,88.23 373.994,88.147C373.997,88.056 374.004,87.963 373.998,87.876L373.998,87.866C373.968,87.204 373.777,86.628 373.44,86.167L371.125,83C371.465,83.464 371.659,84.043 371.687,84.71C371.69,84.781 371.684,84.856 371.681,84.93C371.681,85.028 371.684,85.126 371.676,85.228C371.67,85.313 371.652,85.404 371.64,85.49C371.628,85.586 371.62,85.68 371.602,85.778C371.58,85.89 371.547,86.006 371.518,86.122C371.498,86.199 371.485,86.275 371.46,86.356C371.402,86.553 371.332,86.754 371.252,86.959C369.945,90.259 366.114,93.309 362.694,93.774C360.974,94.007 359.687,93.541 359,92.599L361.313,95.766C362.001,96.708 363.287,97.174 365.006,96.94C368.428,96.477 372.257,93.425 373.563,90.127C373.645,89.921 373.715,89.72 373.773,89.522" style="fill:rgb(64,126,150);"/>
        <g transform="matrix(1,0,0,1,366,80)">
            <path d="M2.684,4.226L0.33,0.433C2.085,0.153 3.397,0.713 4.097,1.841L6.455,5.635C5.754,4.506 4.441,3.945 2.685,4.225" style="fill:rgb(67,74,75);"/>
        </g>
        <g transform="matrix(1,0,0,1,358,82)">
            <path d="M3.228,13.99L0.853,10.895C0.155,9.984 0.057,8.621 0.724,7.018C2.068,3.791 6.001,0.808 9.508,0.354L11.884,3.451C8.377,3.904 4.444,6.889 3.1,10.116C2.432,11.719 2.532,13.082 3.228,13.991" style="fill:rgb(67,74,75);"/>
        </g>
        <path d="M369.496,83.06C373.11,82.597 374.916,84.885 373.537,88.165C372.156,91.445 368.111,94.48 364.496,94.941C360.889,95.401 359.084,93.115 360.463,89.835C361.843,86.553 365.889,83.519 369.496,83.059" style="fill:rgb(52,57,57);"/>
        <path d="M372.653,81.722C371.588,80.408 369.593,79.757 366.926,80.083C361.636,80.729 355.706,84.982 353.68,89.583C352.675,91.869 352.821,93.811 353.873,95.107L356.221,98C355.171,96.704 355.021,94.762 356.028,92.476C358.053,87.876 363.982,83.621 369.274,82.976C371.941,82.65 373.937,83.301 375,84.614L372.653,81.722" style="fill:rgb(116,162,175);"/>
        <path d="M364.74,96.82C368.122,96.393 371.908,93.576 373.2,90.532C374.494,87.487 372.801,85.365 369.419,85.792C366.044,86.22 362.258,89.036 360.965,92.08C359.672,95.126 361.361,97.249 364.739,96.82L364.74,96.82ZM370.569,83.084C375.73,82.431 378.31,85.67 376.337,90.318C374.363,94.968 368.587,99.264 363.424,99.916C358.27,100.57 355.69,97.33 357.663,92.681C359.636,88.033 365.413,83.736 370.569,83.084Z" style="fill:rgb(182,220,228);"/>
        <path d="M344.003,104L344.003,105L344.997,104.623L344.003,104" style="fill:rgb(49,69,73);"/>
        <path d="M294.776,149.225C294.15,151.677 292.397,153.341 290.865,152.941C289.332,152.541 288.596,150.228 289.225,147.775C289.851,145.323 291.602,143.659 293.135,144.06C294.668,144.46 295.403,146.772 294.776,149.225" style="fill:rgb(209,69,71);"/>
        <path d="M365.56,108.387C371.216,105.163 375.823,107.75 375.842,114.167L376,169.611C376.02,176.028 371.443,183.849 365.786,187.074L303.441,222.611C297.78,225.839 293.177,223.249 293.159,216.831L293,161.388C292.981,154.971 297.555,147.152 303.215,143.925L365.56,108.387" style="fill:rgb(30,86,116);"/>
        <path d="M367.128,188.91C367.768,188.536 368.393,188.095 369,187.61L368.92,152.385C368.913,150.089 367.043,149.32 364.747,150.655L309.151,183.411C306.854,184.749 304.993,187.693 305,189.986L305.08,225C305.326,224.877 305.573,224.756 305.824,224.61L367.128,188.91" style="fill:rgb(202,169,131);"/>
        <path d="M359.31,173.891C362.481,175.963 364.387,188.321 363.934,190.484L358.247,194L358.345,192.96C359.005,178.702 357.806,173.891 355.087,172.051L355,172C356.352,172.24 357.77,172.887 359.31,173.891" style="fill:rgb(16,35,35);"/>
        <path d="M351.732,165.094L351.733,165C351.753,165.136 352.123,167.724 351.958,168.607C351.808,169.399 351.139,170.737 350.251,172.147C348.965,174.187 347.217,176.379 345.904,177.3C345.848,177.34 345.788,177.38 345.726,177.417C345.593,177.497 345.452,177.57 345.3,177.64C343.862,178.288 341.54,178.497 339.025,178.82C336.48,179.146 335.576,179.144 335.029,177.808C334.754,177.148 334.499,176.086 334.312,175.185C334.122,174.278 334.007,173.572 334,173.535C334.049,173.618 334.947,175.207 335.613,176.155C336.059,176.819 339.475,177.497 342.11,176.781C343.297,176.458 344.456,176.048 345.537,175.396C346.501,174.813 347.405,174.038 348.209,172.963C348.423,172.674 348.875,172.005 349.236,170.566C349.477,169.614 349.676,169.299 349.812,169.217C349.938,169.141 350.004,169.261 350.008,169.267C350.028,169.287 350.395,169.675 350.857,169.397L350.934,169.343C351.63,168.816 351.723,165.679 351.732,165.093" style="fill:rgb(107,61,35);"/>
        <path d="M354.314,172.258C357.231,174.046 358.518,178.72 357.809,192.573L357.704,193.583L323.034,213C323.631,210.847 324.049,209.071 324.196,207.897C325.07,200.964 322.174,198.049 318.894,199.885C317.586,200.619 316.215,202.109 315,204.397C316.066,201.454 317.923,199.149 318.021,199.028C319.73,196.591 330.627,183.994 333.331,180.878C333.364,181.458 333.381,182.053 333.377,182.661C333.358,186.411 337.994,187.867 341.671,185.808C343.499,184.784 345.09,182.89 345.752,179.978L345.272,177.831C345.432,177.763 345.582,177.691 345.722,177.612C345.788,177.575 345.851,177.537 345.91,177.498C347.295,176.596 349.14,174.449 350.497,172.451C352.152,171.988 353.492,171.838 354.22,172.208L354.314,172.258" style="fill:rgb(18,43,45);"/>
        <path d="M339.49,178.878C342.297,178.546 344.888,178.331 346.493,177.667L347,179.915C346.3,182.964 344.616,184.946 342.683,186.018C338.795,188.173 333.892,186.65 333.911,182.724C333.916,182.087 333.898,181.464 333.862,180.857C333.839,180.464 333.808,180.078 333.772,179.699C333.659,178.156 333.408,175.207 333,173C333.185,173.124 333.367,173.228 333.551,173.309C333.801,173.943 334,174.577 334.231,175.15C334.44,176.074 334.725,177.162 335.031,177.84C335.642,179.21 336.651,179.212 339.49,178.878" style="fill:rgb(225,187,155);"/>
        <path d="M350.29,136.01C351.811,136.209 352.375,139.354 351.748,142.147C351.445,143.495 351.365,144.133 350.842,145.57C350.497,146.52 349.958,147.82 349.03,149.91C346.528,155.56 341.18,161.221 340.71,161.504C341.29,159.843 341.602,156.69 340.92,157.1L340.812,157.186C340.042,157.933 339.033,160.589 338.087,165.459C337.646,167.756 336.75,169.206 336.036,170.044C335.459,170.722 335.024,170.985 335,171C335.008,170.952 335.165,170.048 335.326,167.788C335.466,165.79 335.604,162.771 335.619,158.482C335.636,154.608 337.292,152.962 340.011,146.365C342.194,141.091 347.301,137.624 349.256,136.448C349.743,136.155 350.02,136.012 350.036,136.004C350.124,135.997 350.209,136 350.29,136.009" style="fill:rgb(107,61,35);"/>
        <path d="M351.301,146.612C351.301,150.301 351.913,161.455 351.943,162.042C351.961,163.24 351.983,164.212 352,165.017C351.99,165.601 351.898,168.735 351.204,169.262L351.126,169.315C350.666,169.593 350.299,169.206 350.279,169.185C350.275,169.18 350.209,169.061 350.083,169.137C349.947,169.218 349.749,169.532 349.508,170.485C349.148,171.922 348.697,172.591 348.483,172.879C347.68,173.953 346.778,174.727 345.815,175.31C344.735,175.961 343.579,176.371 342.395,176.694C339.762,177.409 336.353,176.732 335.907,176.069C335.242,175.121 334.345,173.533 334.297,173.45C334.304,173.488 334.417,174.193 334.607,175.1C334.401,174.54 334.224,173.922 334,173.305C334.568,173.572 335.14,173.568 335.73,173.211C335.962,173.071 336.195,172.879 336.434,172.627C337.354,171.644 337.067,170.009 337.052,169.923L336.739,168.923C337.434,168.104 338.306,166.686 338.737,164.442C339.657,159.682 340.641,157.085 341.389,156.355L341.494,156.271C342.159,155.871 341.855,158.951 341.262,160.568C341.748,160.299 346.955,154.765 349.392,149.242C350.295,147.2 350.82,145.929 351.156,145C351.246,145.528 351.299,146.066 351.301,146.612" style="fill:rgb(225,187,155);"/>
        <path d="M336.654,168.721L336.949,169.657C336.963,169.737 337.235,171.269 336.365,172.189C336.14,172.425 335.92,172.605 335.701,172.736C335.144,173.07 334.604,173.074 334.068,172.823C333.913,172.75 333.758,172.655 333.602,172.542C333.546,172.502 333.49,172.457 333.434,172.411C333.381,172.37 331.99,171.308 331.92,171.228C330.82,170.161 330.407,167.603 332.402,165.008C332.695,164.624 332.975,164.37 333.234,164.213C334.758,163.3 335.661,165.608 335.708,165.729L336.001,166.656C335.853,168.725 335.709,169.552 335.701,169.596C335.724,169.583 336.123,169.342 336.654,168.721" style="fill:rgb(243,211,186);"/>
        <path d="M349.51,135.688C349.733,135.761 349.892,135.831 350,135.906C349.917,135.896 349.831,135.894 349.741,135.901C349.726,135.908 349.445,136.048 348.951,136.336C346.968,137.488 341.789,140.884 339.575,146.05C336.817,152.512 335.137,154.124 335.12,157.92C335.105,162.12 334.966,165.078 334.822,167.035L334.5,166.043C334.447,165.913 333.452,163.443 331.77,164.42C331.483,164.588 331.175,164.86 330.852,165.27C328.65,168.049 329.106,170.786 330.319,171.928C330.397,172.013 331.932,173.15 331.99,173.194C332.052,173.244 332.114,173.291 332.176,173.334C332.556,175.489 332.79,178.37 332.895,179.876C332.939,180.502 332.958,180.872 332.958,180.891L332.825,180.974C332.048,181.423 330.412,182.069 329.076,181.994C328.26,181.951 329.361,179.543 328.326,178.046C327.446,176.77 324.071,171.981 323.321,171.185C317.218,164.628 323.687,145.127 336.443,137.715C338.61,136.457 340.957,135.548 343.455,135.109C345.32,134.771 348.227,135.289 349.509,135.688" style="fill:rgb(107,61,35);"/>
        <path d="M320.31,199.55C323.728,197.671 326.746,200.654 325.836,207.744C325.682,208.944 325.246,210.762 324.624,212.964L310,221C311.832,215.391 313.66,210.137 315.215,206.362C315.545,205.562 315.892,204.831 316.252,204.165C317.518,201.824 318.947,200.301 320.309,199.55" style="fill:rgb(23,62,62);"/>
        <path d="M404.378,295C387.188,295 372.843,287.904 369.495,278.462C370.951,275.602 351.59,271.662 344.028,268.934C334.428,265.471 348.873,260.736 370.194,260.736C370.842,260.736 371.499,260.74 372.161,260.749C372.445,260.753 372.717,260.755 372.984,260.755C393.766,260.754 363.778,249.203 370.648,247.108C370.891,247.034 371.271,247 371.769,247C377.019,247 395.262,250.866 400.765,253.581C401.952,253.511 403.158,253.475 404.378,253.475C424.052,253.475 440,262.772 440,274.238C440,285.705 424.052,295 404.378,295" style="fill:rgb(79,132,142);"/>
        <path d="M393.964,246.854C393.964,246.854 395.184,248.633 394.976,251.666C394.767,254.696 394.333,255.862 393.584,256.428C392.838,256.997 391.906,257.128 390.14,256.88C388.372,256.63 385.541,254.854 384.476,254.527C383.411,254.194 383.714,254.189 379.909,252.956C374.553,251.217 373.637,249.742 373.199,248.27C372.752,246.772 373.199,245.065 373.199,245.065C377.682,245.957 383.712,247.463 385.419,245.594C387.126,243.728 393.964,246.854 393.964,246.854" style="fill:rgb(253,253,252);"/>
        <path d="M393.943,245.433C393.943,245.433 395.187,247.277 394.976,250.409C394.763,253.549 394.319,254.749 393.559,255.338C392.799,255.926 391.394,256.151 389.594,255.896C387.792,255.635 387.493,255.473 386.459,254.985C384.736,254.173 384.047,253.451 380.431,252.638C375.67,251.571 373.391,249.404 373.026,247.853C372.703,246.489 375.436,244.427 379.053,244.969C384.25,245.746 383.935,244.479 385.24,244.133C387.698,243.482 393.943,245.433 393.943,245.433" style="fill:rgb(227,104,90);"/>
        <path d="M390.133,252.236C391.231,249.672 394.585,248.072 394.585,248.072L394.753,248C394.933,248.745 395.053,249.672 394.976,250.772C394.756,253.796 394.296,254.952 393.51,255.519C392.722,256.085 391.147,257.213 389.282,256.965C389.191,256.952 389.095,256.935 389,256.921C389.11,255.859 389.392,253.961 390.133,252.236" style="fill:rgb(51,82,111);"/>
        <path d="M424.183,285.186C424.189,284.288 424.998,283.929 426.003,284.379C427.004,284.829 427.815,285.916 427.81,286.82C427.805,287.708 426.994,288.073 425.991,287.622C424.997,287.175 424.178,286.082 424.183,285.186ZM423,284.653C422.995,286.138 424.333,287.941 425.986,288.678C427.646,289.425 428.992,288.828 429,287.351C429.006,285.864 427.662,284.067 426.011,283.318C424.355,282.578 423.006,283.17 423,284.653Z" style="fill:rgb(69,69,67);"/>
        <path d="M426.505,283.267C425.675,282.647 425.005,283.142 425,284.378C424.996,285.613 425.673,287.118 426.496,287.733C427.325,288.354 427.996,287.853 428,286.629C428.004,285.384 427.333,283.886 426.505,283.267" style="fill:rgb(110,110,107);"/>
        <path d="M426.967,282.156C427.401,281.912 427.99,281.944 428.65,282.323C429.955,283.068 431.003,284.871 431,286.37C431,287.102 430.738,287.617 430.313,287.866L428.35,289C428.771,288.76 429.038,288.237 429.038,287.5C429.043,286.008 427.985,284.204 426.685,283.453C426.028,283.08 425.428,283.048 424.999,283.293L426.966,282.156" style="fill:rgb(53,54,51);"/>
        <path d="M386.184,263.186C386.184,262.287 387.006,261.93 388.01,262.381C389.007,262.831 389.816,263.919 389.816,264.817C389.811,265.71 388.999,266.072 387.993,265.621C386.997,265.175 386.181,264.084 386.184,263.186ZM385,262.656C384.991,264.134 386.33,265.936 387.993,266.681C389.65,267.423 390.995,266.827 391,265.351C391.002,263.865 389.67,262.063 388.01,261.318C386.348,260.578 385.003,261.171 385,262.657L385,262.656Z" style="fill:rgb(69,69,67);"/>
        <path d="M388.508,261.269C387.679,260.647 387,261.139 387,262.377C386.997,263.615 387.672,265.117 388.494,265.732C389.324,266.354 389.996,265.855 390,264.624C390,263.387 389.332,261.887 388.508,261.269" style="fill:rgb(110,110,107);"/>
        <path d="M388.963,260.156C389.393,259.912 389.989,259.945 390.651,260.323C391.953,261.069 393.003,262.878 393,264.368C393,265.106 392.736,265.625 392.31,265.867L390.34,267C390.767,266.758 391.03,266.237 391.03,265.504C391.032,264.011 389.984,262.201 388.678,261.454C388.02,261.079 387.427,261.041 387,261.291L388.963,260.156" style="fill:rgb(53,54,51);"/>
        <path d="M390.355,282.325C391.012,281.947 391.608,281.909 392.035,282.158C392.202,282.252 392.361,282.349 392.526,282.439C392.756,282.574 392.985,282.706 393.216,282.838C393.476,282.99 393.736,283.138 394,283.294C393.572,283.042 392.978,283.078 392.323,283.457C392.045,283.61 391.782,283.828 391.535,284.069L392.323,284.519C391.535,284.97 390.903,286.066 390.903,286.961C390.907,287.408 391.068,287.721 391.32,287.871L389.997,287.108C389.984,287.241 389.964,287.37 389.964,287.495C389.969,288.233 390.234,288.754 390.654,289L388.689,287.863C388.266,287.623 388.003,287.101 388,286.363C387.995,284.876 389.046,283.067 390.355,282.325" style="fill:rgb(69,69,67);"/>
        <g transform="matrix(1,0,0,1,392,282)">
            <path d="M2.097,1.66L0.223,0.573C0.467,0.711 0.617,1.016 0.622,1.448C0.622,2.308 0.016,3.358 -0.732,3.794L1.141,4.88C1.891,4.448 2.498,3.396 2.493,2.531C2.493,2.106 2.344,1.801 2.097,1.661" style="fill:rgb(69,69,67);"/>
        </g>
        <path d="M391.193,287.813C391.191,286.921 391.995,285.829 392.996,285.38C393.992,284.932 394.811,285.296 394.811,286.186C394.818,287.082 394.009,288.172 393.01,288.619C392.007,289.065 391.197,288.705 391.193,287.813ZM390,288.345C390.009,289.827 391.36,290.424 393.013,289.68C394.669,288.936 396.012,287.132 396,285.651C395.997,284.174 394.65,283.575 392.996,284.321C391.336,285.063 390,286.87 390,288.345Z" style="fill:rgb(57,58,55);"/>
        <path d="M393.495,284.265C394.321,283.646 395,284.149 395,285.378C395.005,286.614 394.335,288.119 393.506,288.736C392.676,289.351 392.004,288.856 392,287.623C391.999,286.392 392.665,284.885 393.495,284.265" style="fill:rgb(117,117,113);"/>
        <path d="M428.355,261.322C429.013,260.945 429.603,260.911 430.037,261.158C430.198,261.254 430.362,261.344 430.531,261.441C430.75,261.575 430.986,261.712 431.215,261.838C431.475,261.993 431.737,262.139 432,262.294C431.572,262.046 430.976,262.081 430.32,262.451C430.04,262.612 429.781,262.831 429.537,263.069L430.321,263.52C429.537,263.972 428.902,265.064 428.902,265.963C428.907,266.409 429.066,266.722 429.322,266.872L428,266.11C427.98,266.24 427.963,266.37 427.963,266.496C427.967,267.237 428.233,267.756 428.659,268L426.688,266.864C426.263,266.621 426.004,266.104 426,265.368C425.994,263.88 427.052,262.07 428.355,261.322" style="fill:rgb(69,69,67);"/>
        <path d="M428.191,265.813C428.191,264.918 428.996,263.83 429.991,263.38C430.993,262.93 431.805,263.294 431.808,264.186C431.814,265.081 431.006,266.173 430.008,266.622C429.01,267.068 428.198,266.709 428.191,265.812L428.191,265.813ZM427,266.344C427.005,267.824 428.355,268.425 430.013,267.68C431.662,266.937 433.004,265.133 433,263.653C432.992,262.175 431.644,261.579 429.991,262.315C428.337,263.059 427,264.865 427,266.345L427,266.344Z" style="fill:rgb(57,58,55);"/>
        <path d="M429.493,262.266C430.323,261.646 430.997,262.146 431,263.378C431.005,264.611 430.335,266.118 429.507,266.736C428.679,267.351 428.005,266.856 428,265.621C428,264.386 428.668,262.887 429.493,262.266" style="fill:rgb(117,117,113);"/>
        <path d="M388.73,258.062L405.99,268.527L406,272L388.741,261.54C388.255,261.248 388.013,260.863 388.013,260.476L388,257C388,257.385 388.243,257.773 388.73,258.062" style="fill:rgb(56,57,54);"/>
        <path d="M430.255,258.077C430.746,257.781 430.994,257.39 430.994,257L431,260.47C431.003,260.861 430.76,261.246 430.263,261.548L413.007,272L413,268.53L430.255,258.077" style="fill:rgb(42,43,41);"/>
        <path d="M388.758,256.442C389.756,255.852 391.378,255.852 392.378,256.442L410,266.865L409.99,267.594L391.078,256.41C390.792,256.24 390.326,256.24 390.042,256.41C389.756,256.578 389.751,256.856 390.039,257.023L408.952,268.203L406.372,269L388.744,258.575C387.748,257.985 387.752,257.035 388.758,256.442" style="fill:rgb(59,60,57);"/>
        <path d="M429.972,256.41C429.682,256.241 429.212,256.241 428.934,256.41L410,267.59L410.01,266.861L427.66,256.439C428.656,255.852 430.27,255.854 431.26,256.443C432.251,257.036 432.246,257.985 431.247,258.578L413.604,269L411.03,268.2L429.966,257.023C430.25,256.857 430.25,256.579 429.972,256.41" style="fill:rgb(66,66,64);"/>
        <path d="M390.343,256.128C390.061,256.298 390.056,256.578 390.34,256.745L408.978,267.995L390.211,279.255C389.93,279.422 389.93,279.699 390.211,279.868C390.491,280.044 390.948,280.044 391.235,279.868L410,268.615L428.637,279.868C428.924,280.044 429.381,280.044 429.664,279.868C429.944,279.699 429.947,279.424 429.664,279.254L411.021,267.996L429.788,256.745C430.07,256.577 430.07,256.297 429.794,256.128C429.507,255.958 429.042,255.958 428.765,256.126L410,267.382L391.363,256.128C391.082,255.958 390.623,255.958 390.343,256.128" style="fill:rgb(42,43,41);"/>
        <path d="M388.742,279.913C389.733,280.526 391.341,280.526 392.342,279.913L409.992,269L410,272.623L392.353,283.538C391.349,284.154 389.743,284.154 388.751,283.538C388.26,283.233 388.011,282.828 388.008,282.424L388,278.802C388,279.197 388.245,279.606 388.742,279.913" style="fill:rgb(42,43,41);"/>
        <path d="M388.754,278.385L406.401,267.808L408.968,267L390.029,278.354C389.745,278.523 389.745,278.803 390.029,278.974C390.311,279.151 390.772,279.151 391.062,278.974L410,267.623L409.992,269.977L392.344,280.553C391.344,281.148 389.736,281.148 388.744,280.553C387.75,279.957 387.75,278.985 388.754,278.383M410.008,267.625L428.914,278.973C429.204,279.15 429.669,279.15 429.956,278.973C430.239,278.803 430.243,278.525 429.956,278.353L411.044,267L413.632,267.812L431.25,278.384C432.256,278.988 432.247,279.958 431.242,280.559C430.239,281.148 428.622,281.148 427.619,280.554L410,269.977L410.008,267.625" style="fill:rgb(69,69,67);"/>
        <path d="M427.614,279.913C428.617,280.526 430.233,280.526 431.236,279.919C431.744,279.605 431.992,279.196 431.992,278.789L432,282.417C432.005,282.818 431.752,283.226 431.243,283.537C430.243,284.154 428.628,284.155 427.625,283.536L410.008,272.623L410,269L427.614,279.913" style="fill:rgb(56,57,54);"/>
        <path d="M407,258.91C407,258.435 407.278,257.953 407.847,257.58C408.993,256.825 410.886,256.803 412.067,257.537C412.671,257.907 412.972,258.401 412.978,258.897L413,268.087L412.968,268.283L412.948,268.436C412.928,268.506 412.889,268.576 412.855,268.644L412.793,268.791C412.743,268.858 412.679,268.935 412.617,269.011L412.525,269.119C412.417,269.223 412.294,269.327 412.151,269.416C411.001,270.176 409.11,270.196 407.931,269.465C407.784,269.372 407.65,269.275 407.538,269.172L407.443,269.059C407.376,268.989 407.306,268.914 407.252,268.836L407.182,268.695C407.151,268.624 407.108,268.555 407.083,268.483L407.054,268.321C407.044,268.251 407.023,268.186 407.023,268.119L407.023,268.104C407.015,265.349 407.009,261.669 407,258.91" style="fill:rgb(42,43,41);"/>
        <path d="M409.421,251.27C409.995,250.92 410.941,250.91 411.531,251.245C411.831,251.421 411.984,251.648 411.987,251.877L412,258.117L411.987,258.207L411.975,258.277L411.932,258.37L411.899,258.44L411.817,258.535L411.761,258.593C411.713,258.643 411.651,258.688 411.582,258.731C411.006,259.081 410.058,259.091 409.467,258.754C409.394,258.713 409.33,258.665 409.275,258.614L409.225,258.565L409.133,258.467L409.092,258.395L409.048,258.298L409.034,258.222L409.018,258.127L409.018,258.123C409.017,257.188 409.013,256.094 409.008,255.002L409,251.886C408.996,251.663 409.136,251.443 409.421,251.27" style="fill:rgb(142,143,139);"/>
        <path d="M392.857,251.976L392.987,251.837C393.09,251.74 393.192,251.642 393.303,251.554L393.43,251.45C393.576,251.338 393.727,251.23 393.88,251.145L402,246.468L401.197,246L393.079,250.682C392.929,250.765 392.776,250.871 392.632,250.984L392.489,251.101C392.39,251.184 392.294,251.273 392.195,251.371L392.05,251.514C391.947,251.623 391.853,251.74 391.756,251.857L391.656,251.98L391.625,252.015C391.504,252.174 391.387,252.343 391.285,252.519L387,259.53L387.8,260L392.082,252.984C392.2,252.792 392.325,252.613 392.455,252.437L392.543,252.334C392.647,252.208 392.746,252.086 392.857,251.976M386.624,259.894L386,259.238C386.145,259.086 386.277,259.068 386.376,259.168L387,259.82C386.907,259.724 386.773,259.736 386.624,259.894" style="fill:rgb(69,69,67);"/>
        <path d="M386.16,259.051C386.028,258.969 385.85,258.984 385.656,259.108L381.706,261.608L381.522,261.76L381.479,261.805L381.329,261.986L381.317,261.999L381.311,262.011L381.194,262.204L381.171,262.261L381.098,262.424L381.09,262.444L381.079,262.48L381.032,262.664L381.019,262.729C381.001,262.805 381,262.88 381,262.96C381,263.208 381.074,263.38 381.207,263.467L382.05,264C381.917,263.92 381.84,263.747 381.84,263.49C381.84,263.422 381.847,263.342 381.859,263.266L381.874,263.191L381.922,263.029L381.947,262.953L382.011,262.805L382.039,262.743L382.155,262.545L382.183,262.507L382.315,262.342L382.367,262.292L382.552,262.142L386.495,259.644C386.695,259.515 386.875,259.505 387,259.584L386.16,259.051" style="fill:rgb(100,101,97);"/>
        <path d="M402,248L402,248.499L394.353,252.803C393.837,253.097 393.341,253.592 392.959,254.196L388.801,260.85C388.805,261.248 388.524,261.729 388.168,261.926L384.638,263.916C384.285,264.113 384.003,263.951 384,263.551C384,263.161 384.282,262.676 384.637,262.481L388.162,260.496C388.345,260.391 388.51,260.384 388.628,260.458L392.66,254C393.12,253.263 393.724,252.66 394.353,252.307L402,248" style="fill:rgb(36,37,35);"/>
        <path d="M365.463,259.443C365.463,259.443 366.963,261.286 366.998,264.646C367.033,268.006 366.655,269.327 365.884,270.021C365.112,270.716 363.571,272.104 361.607,271.994C359.641,271.883 357.163,271.224 355.962,270.959C354.763,270.695 353.846,270.849 349.557,269.845C343.519,268.427 339.834,264.511 339.224,262.929C338.604,261.323 339.47,258.742 339.47,258.742C344.476,259.313 354.248,261.067 355.962,258.852C357.677,256.636 365.463,259.443 365.463,259.443" style="fill:rgb(253,253,252);"/>
        <path d="M365.472,257.444C365.472,257.444 366.964,259.287 366.998,262.644C367.033,266.004 366.658,267.327 365.89,268.021C365.124,268.716 363.59,270.104 361.64,269.994C359.689,269.883 357.227,269.225 356.034,268.959C354.842,268.692 353.238,269.417 348.987,268.364C344.737,267.304 340.001,263.584 339.477,261.969C339.018,260.543 337.781,256.675 342.757,257.246C347.73,257.812 354.331,259.067 356.034,256.852C357.736,254.636 365.472,257.444 365.472,257.444" style="fill:rgb(227,104,90);"/>
        <path d="M361.81,264.407C362.782,261.87 366.318,260.082 366.318,260.082L366.493,260C366.765,260.698 366.983,261.578 366.998,262.635C367.036,265.541 366.637,266.687 365.823,267.287C365.01,267.889 363.383,269.09 361.313,268.995C361.211,268.99 361.103,268.979 361,268.971C361.019,267.946 361.158,266.111 361.81,264.407M351.305,263.899C351.494,264.152 351.82,263.891 351.822,263.556C351.822,263.556 351.788,262.623 351.954,261.532C352.187,260.004 352.875,258.952 353.428,258.655C353.658,258.533 354.053,258.617 353.994,258.343C353.942,258.083 353.701,257.931 353.481,258.031C352.785,258.351 351.429,259.237 351.108,261.371C350.916,262.642 350.98,263.463 351.305,263.899M349.302,263.899C349.496,264.153 349.817,263.889 349.822,263.557C349.822,263.557 349.789,262.624 349.954,261.532C350.19,260.002 350.863,259.078 351.417,258.781C351.643,258.657 352.052,258.613 351.995,258.339C351.94,258.086 351.699,257.93 351.48,258.031C350.783,258.351 349.433,259.236 349.108,261.371C348.915,262.638 348.981,263.462 349.302,263.899" style="fill:rgb(51,82,111);"/>
        <path d="M348.304,263.896C348.494,264.154 348.821,263.891 348.823,263.556C348.823,263.556 348.791,262.625 348.955,261.536C349.188,260.003 349.87,259.096 350.429,258.796C350.656,258.676 351.051,258.616 350.995,258.344C350.939,258.086 350.7,257.931 350.481,258.03C349.784,258.352 348.432,259.237 348.105,261.374C347.917,262.639 347.98,263.464 348.305,263.896" style="fill:rgb(51,82,111);"/>
        <path d="M355.706,265C356.536,265.267 357.372,265.5 358,265.578L357.98,265.672L352.337,268C351.874,267.918 351.37,267.811 350.809,267.66C350.546,267.587 350.274,267.498 350,267.393C351.106,266.915 353.652,265.823 355.706,265M352.584,264C353.455,264.267 354.338,264.498 355,264.58L354.977,264.669L349.034,267C348.797,266.961 348.55,266.913 348.292,266.86C347.854,266.664 347.425,266.447 347,266.216C348.312,265.683 350.648,264.734 352.584,264" style="fill:rgb(248,247,245);"/>
        <path d="M375.665,223L368.264,229.4C364.814,236.761 360.157,250.259 356.059,258.878C355.636,259.768 357.441,264.569 362.879,263.944C365.584,263.632 368.545,262.645 368.386,261.764L381,230.727L375.665,223" style="fill:rgb(76,100,122);"/>
        <path d="M386.283,226.561L382.005,226.519C382.005,226.519 381.924,245.559 382.445,246.116C383.137,246.855 387.585,252.124 391.52,250.782C395.67,249.369 395.31,249.474 395.107,248.206L398,223L386.283,226.561" style="fill:rgb(57,78,94);"/>
        <path d="M386.736,233.13L409.947,220.36C410.711,219.938 411.401,219.901 411.899,220.176L435,232.856C434.502,232.582 433.808,232.623 433.046,233.044L409.834,245.811C408.315,246.644 407.1,248.659 407.104,250.319C407.104,251.146 407.407,251.725 407.9,252C402.2,248.843 390.494,242.466 384.8,239.316C384.309,239.043 384.001,238.464 384,237.64C383.993,235.98 385.215,233.963 386.736,233.13" style="fill:rgb(32,58,67);"/>
        <path d="M409.664,245.47C408.182,246.324 406.996,248.392 407,250.096C407.003,251.8 408.206,252.486 409.679,251.634L432.33,238.528C433.81,237.672 435.005,235.602 435,233.901C434.995,232.194 433.797,231.514 432.31,232.369L409.664,245.469" style="fill:rgb(48,82,90);"/>
        <path d="M423.248,222.96L415.061,219.14L397.744,212.1C393.398,210.032 382.617,210.116 382.854,219.183L382,233.356L400.71,230.833C400.71,230.833 413.63,236.501 419.215,235.964C429.179,235.011 423.248,222.959 423.248,222.959" style="fill:rgb(57,78,94);"/>
        <path d="M423.543,238.303C427.723,234.999 428,225.183 428,225.183L425.677,207L407.794,216.443L401.989,225.418L378.12,221.448C372.432,219.674 367.882,222.933 366,233.56L370.867,235.1C370.867,235.1 372.693,239.294 375.614,235.896C377.238,234.006 378.12,234.834 378.12,234.834L404.035,241.847C415.042,244.822 419.551,241.462 423.543,238.303" style="fill:rgb(76,100,122);"/>
        <path d="M389.696,199C389.696,199 379.848,198.29 378.535,198.158C374.968,197.801 372.878,196.011 373.308,195.354C374.17,194.043 373.001,191.597 373.001,191.597C373.001,191.597 372.941,191 373.616,191C374.323,191 374.968,193.386 375.83,194.102C376.49,194.651 378.043,194.937 378.043,194.937C378.043,194.937 379.825,195.593 380.602,194.339C380.976,193.731 379.202,193.833 378.535,193.506C378.067,193.277 377.085,192.631 377.045,192.09C376.987,191.277 377.75,191.162 377.75,191.162C377.75,191.162 378.188,191.207 380.336,192.277C382.06,193.134 383.523,192.611 384.514,193.114C385.879,193.809 386.407,195.107 386.407,195.107L390,195.27L389.696,199" style="fill:rgb(178,128,89);"/>
        <path d="M413.296,179C413.296,179 426.186,180.888 420.594,196.785C420.074,198.265 416.2,200.209 413.89,203.836C413.89,203.836 411.117,208.06 405.002,206.747C400.444,205.769 383.272,199.364 383.272,199.364C383.272,199.364 382.456,198.353 383.649,195.444C384.439,193.516 385.762,193.072 385.762,193.072L404.715,196.156L413.295,179" style="fill:rgb(189,97,46);"/>
        <path d="M409.726,149.905L402.826,148L398.464,165.519C397.114,170.514 398.989,171.934 400.513,172.432C403.676,173.469 407.783,172.856 409.901,172.399C414.002,171.518 415.864,165.769 416.048,165.314L421,154.258L409.726,149.905" style="fill:rgb(178,128,89);"/>
        <path d="M419.164,176.509C419.164,176.509 416.431,173.77 415.847,172.654C414.922,170.894 413.881,165 413.881,165L404.822,167.873C404.822,167.873 406.325,173.643 407.045,175.543C407.493,176.729 409.498,180.225 409.498,180.225C409.638,181.678 402.581,192.485 403.02,197L420,190.087C419.813,188.165 419.164,176.509 419.164,176.509" style="fill:rgb(178,128,89);"/>
        <path d="M405.704,146.007C400.987,147.218 402.119,149.5 402.119,149.5C401.832,149.5 402.635,151.293 403.347,151.731C404.69,152.559 407.763,158.852 407.819,162.903C407.819,162.903 406.699,166.687 408.914,167.749C411.374,168.929 404.392,175.754 404.384,176.874C404.384,176.874 404.828,186.104 405.517,185.999C406.098,185.907 416.977,180.123 416.842,180.296C416.747,180.419 418.845,185.534 422.505,182.577C429.809,176.671 426.285,153.619 425.149,151.534C424.629,150.58 424.033,147.249 414.478,145.009C413.969,144.892 405.873,145.964 405.704,146.007Z" style="fill:rgb(60,49,18);"/>
        <path d="M405.712,158C405.712,158 407.144,158.857 406.988,160.902C406.875,162.346 406.049,163.258 405.693,163.482C404.745,164.084 404,163.995 404,163.995C404,163.995 405.148,160.885 405.326,160.295C405.504,159.709 405.712,158 405.712,158" style="fill:rgb(163,112,72);"/>
        <path d="M405.422,157.035C405.422,157.035 404.83,156.721 404.929,157.968C405.03,159.215 404.935,159.896 404.767,160.495C404.611,161.046 404,162.617 404,162.617C404,162.617 404.171,163.461 404.845,162.643C405.166,162.253 405.559,161.405 405.899,160.243C406.036,159.77 406.149,157.102 405.422,157.035" style="fill:rgb(178,128,89);"/>
        <path d="M403.374,186.203C401.556,188.412 401.844,195.019 402.522,202.15L403.802,221.008C403.92,222.248 401.813,231.693 407.212,234.043C409.107,234.867 415.622,238.35 420.092,236.431C421.921,235.648 430.244,230.071 429.995,227.461L427.389,187.728C426.536,177.744 417.726,174 417.726,174L410.338,179.407L403.374,186.203" style="fill:rgb(211,112,54);"/>
        <path d="M381.89,219.198C381.89,219.198 376.397,218.752 374.31,219.198C372.224,219.642 366.072,222.085 366.072,222.085C366.072,222.085 364.314,222.749 365.301,223.862C365.774,224.39 367.171,225.194 367.719,225.639C368.269,226.085 369.917,226.193 373.211,225.528C374.938,225.178 375.738,225.194 377.717,225.414C379.693,225.639 382,224.751 382,224.751L381.89,219.198" style="fill:rgb(178,128,89);"/>
        <path d="M380.826,221.727C382.025,224.089 383.465,225 383.465,225C383.465,225 396.64,220.618 398.405,219.988C400.951,219.081 401.895,218.183 403.577,216.148C406.685,212.398 410.842,200.178 410.842,200.178C410.842,200.178 414.189,191.995 409.503,188.148C406.051,185.314 402.283,185.038 401.309,188.813C400.403,192.329 397.705,203.572 396.434,207.883C395.966,209.478 394.802,210.799 393.253,211.427L381.688,216.903C381.688,216.903 380.462,217.066 380.051,218.467C379.829,219.227 380.376,220.844 380.826,221.727" style="fill:rgb(232,137,79);"/>
        <path d="M422,215L422,245.741C420.642,246.511 419,245.471 419,243.851L419,215.973L422,215" style="fill:rgb(42,43,41);"/>
        <path d="M421.5,215.055C422.245,214.812 423,215.406 423,216.239L423,243.14C423,244.266 422.423,245.317 421.5,245.863C420.828,246.261 420,245.744 420,244.927L420,217.223C420,216.229 420.61,215.35 421.5,215.055" style="fill:rgb(69,69,67);"/>
        <path d="M433.42,197.15C433.42,197.15 431.398,196.319 430.41,198.57C429.257,201.196 428.838,202.706 423.284,205.211C419.33,206.993 416.057,207.191 413.162,207.248C407.79,207.355 404.919,209.812 405.002,213.785C405.105,218.605 409.958,219.849 410.407,219.891C416.466,220.461 418.479,218.759 425.374,215.581C431.529,212.746 433.8,210.018 433.991,205.648C434.085,203.456 433.42,197.15 433.42,197.15" style="fill:rgb(32,58,67);"/>
        <path d="M433.39,198C433.39,198 434.208,204.305 424.834,207.562C419.592,209.385 416.113,209.992 413.077,210.225C408.953,210.541 405.697,211.487 406.022,215.167C406.285,218.13 407.738,220.173 410.69,220.529C414.164,220.95 417.137,221.796 424.584,219.163C430.92,216.923 433.789,212.971 433.99,208.681C434.09,206.529 433.39,198 433.39,198" style="fill:rgb(48,82,90);"/>
        <ellipse cx="167.5" cy="68" rx="8.5" ry="6" style="fill:rgb(211,211,211);"/>
        <g transform="matrix(0.766044,-0.642788,0.642788,0.766044,-16.0788,248.432)">
            <ellipse cx="333.241" cy="146.304" rx="13.24" ry="6.909" style="fill:rgb(211,211,211);"/>
        </g>
    </g>
</svg>
