<svg xmlns="http://www.w3.org/2000/svg" width="671" height="268" viewBox="0 0 671 268">
    <g fill="none" fill-rule="evenodd">
        <g>
            <g transform="translate(-305 -176) translate(306 177)">
                <ellipse cx="335.5" cy="244.5" fill="#D5D5D5" fill-opacity=".553" fill-rule="nonzero" rx="329.5" ry="22.5"/>
                <path fill="#E4CBB7" fill-rule="nonzero" stroke="#522E1D" d="M323.35 8C269.595 8 231 42.293 231 122.31 231 212.994 269.595 237 323.35 237c53.755 0 94.65-26.291 94.65-114.69C418 27.813 377.105 8 323.35 8zm.354 198.899c-37.232 0-56.684-21.72-56.684-84.531 0-55.421 20.248-84.648 57.48-84.648s57.48 19.198 57.48 84.648c0 61.227-21.044 84.53-58.276 84.53zM198.745 170.928h-21.966V105.36c0-7.252-5.8-13.131-12.954-13.131h-5.147c-3.436 0-6.731 1.383-9.16 3.846-2.43 2.462-3.795 5.802-3.795 9.285v65.567H83.765c-2.593 0-4.996-1.377-6.334-3.627-1.338-2.251-1.416-5.048-.205-7.372L142.802 34.12c1.653-3.17 1.954-6.886.836-10.286-1.118-3.401-3.56-6.19-6.758-7.721l-3.871-1.853c-6.243-2.989-13.7-.489-16.956 5.683L36.074 171.601c-1.361 2.582-2.074 5.465-2.074 8.394h0c0 4.722 1.85 9.25 5.145 12.59 3.294 3.34 7.762 5.215 12.42 5.215h94.158v41.46c0 4.175 1.636 8.178 4.548 11.13s6.862 4.61 10.98 4.61h0c4.118 0 8.068-1.658 10.98-4.61 2.912-2.952 4.548-6.955 4.548-11.13V197.8h21.966c7.32 0 13.255-6.016 13.255-13.436h0c0-7.42-5.935-13.436-13.255-13.436zM608.745 170.928h-21.966V105.36c0-7.252-5.8-13.131-12.954-13.131h-5.147c-3.436 0-6.731 1.383-9.16 3.846-2.43 2.462-3.795 5.802-3.795 9.285v65.567h-61.958c-2.593 0-4.996-1.377-6.334-3.627-1.338-2.251-1.416-5.048-.205-7.372l65.576-125.808c1.653-3.17 1.954-6.887.836-10.287-1.118-3.401-3.56-6.19-6.758-7.721l-3.87-1.853c-6.244-2.989-13.702-.489-16.957 5.683l-79.979 151.658c-1.361 2.582-2.074 5.465-2.074 8.394h0c0 9.833 7.864 17.805 17.566 17.805h94.157v41.46c0 8.693 6.952 15.74 15.528 15.74h0c8.576 0 15.528-7.047 15.528-15.74V197.8h21.966c7.32 0 13.255-6.016 13.255-13.436h0c0-7.42-5.935-13.436-13.255-13.436h0z"/>
                <path stroke="#3F3D56" d="M204.745 165.928h-21.966V100.36c0-3.483-1.365-6.823-3.794-9.285-2.43-2.463-5.725-3.846-9.16-3.846h-5.147c-7.155 0-12.955 5.879-12.955 13.13v65.568H89.765c-2.593 0-4.996-1.377-6.334-3.627-1.338-2.251-1.416-5.048-.205-7.372l65.576-125.808c1.653-3.17 1.954-6.886.836-10.287-1.118-3.401-3.56-6.19-6.758-7.721L139.01 9.26c-6.243-2.989-13.7-.489-16.956 5.683L42.074 166.601c-1.361 2.582-2.074 5.465-2.074 8.394h0c0 9.833 7.864 17.805 17.566 17.805h94.157v41.46c0 4.175 1.636 8.178 4.548 11.13s6.862 4.61 10.98 4.61h0c8.576 0 15.528-7.047 15.528-15.74V192.8h21.966c3.515 0 6.887-1.416 9.373-3.935 2.485-2.52 3.882-5.938 3.882-9.501h0c0-3.564-1.397-6.981-3.882-9.501-2.486-2.52-5.858-3.935-9.373-3.935h0zM621.745 165.928h-21.966V100.36c0-7.252-5.8-13.131-12.954-13.131h-5.147c-3.436 0-6.731 1.383-9.16 3.846-2.43 2.462-3.795 5.802-3.795 9.285v65.567h-61.958c-2.593 0-4.996-1.377-6.334-3.627-1.338-2.251-1.416-5.048-.205-7.372l65.576-125.808c1.653-3.17 1.954-6.886.836-10.287-1.118-3.401-3.56-6.19-6.758-7.721l-3.87-1.853c-6.244-2.989-13.702-.489-16.957 5.683l-79.979 151.658c-1.361 2.582-2.074 5.465-2.074 8.394h0c0 9.833 7.864 17.805 17.566 17.805h94.157v41.46c0 8.693 6.952 15.74 15.528 15.74h0c8.576 0 15.528-7.047 15.528-15.74V192.8h21.966c3.515 0 6.887-1.416 9.373-3.935 2.485-2.52 3.882-5.938 3.882-9.501h0c0-7.42-5.935-13.436-13.255-13.436z"/>
                <path stroke="#522E1D" d="M337.35 0C283.595 0 245 34.293 245 114.31 245 204.994 283.595 229 337.35 229c53.755 0 94.65-26.291 94.65-114.69C432 19.813 391.105 0 337.35 0zm.354 198.899c-37.232 0-56.683-21.72-56.683-84.531 0-55.421 20.247-84.648 57.479-84.648s57.48 19.198 57.48 84.648c0 61.227-21.044 84.53-58.276 84.53h0z"/>
                <path fill="#398E8F" fill-rule="nonzero" d="M624.232 164.247c4.988 1.814 10.578.278 13.94-3.829 3.363-4.107 3.764-9.89 1.002-14.423-2.763-4.533-8.086-6.826-13.278-5.72l.313 6.434-3.043-5.514c-2.987 1.404-5.295 3.936-6.416 7.04-.398 1.088-.64 2.226-.718 3.382-.395 5.57 2.952 10.725 8.2 12.63z"/>
                <path stroke="#3F3D56" d="M642.404 241c-1.097-5.59 3.657-10.547 8.353-13.769 4.696-3.221 10.183-6.387 11.785-11.854 2.303-7.858-4.556-15.054-9.895-21.26-3.96-4.604-7.362-9.663-10.133-15.07-1.11-2.167-2.131-4.434-2.423-6.852-.421-3.483.697-6.949 1.823-10.271 3.753-11.067 7.765-22.042 12.037-32.924M626.232 160.247c4.988 1.814 10.578.278 13.94-3.829 3.363-4.107 3.764-9.89 1.002-14.423-2.763-4.533-8.086-6.826-13.278-5.72l.313 6.434-3.043-5.514c-2.987 1.404-5.295 3.936-6.416 7.04-.398 1.088-.64 2.226-.718 3.382-.395 5.57 2.952 10.725 8.2 12.63z"/>
                <path fill="#398E8F" fill-rule="nonzero" d="M640.75 124.235c1.451-4.004 4.843-6.992 8.998-7.928l1.03 6.118 1.907-6.425c5.437.08 10.197 3.667 11.776 8.87 1.578 5.204-.388 10.83-4.863 13.919-4.475 3.088-10.433 2.928-14.736-.395-4.304-3.323-5.966-9.047-4.112-14.159z"/>
                <path stroke="#3F3D56" d="M640.75 122.235c1.451-4.004 4.843-6.992 8.998-7.928l1.03 6.118 1.907-6.425c5.437.08 10.197 3.667 11.776 8.87 1.578 5.204-.388 10.83-4.863 13.919-4.475 3.088-10.433 2.928-14.736-.395-4.304-3.323-5.966-9.047-4.112-14.159h0z"/>
                <path fill="#398E8F" fill-rule="nonzero" d="M650.242 193.249c5.972 2.166 12.619-.493 15.448-6.182 2.83-5.688.942-12.594-4.388-16.051l-1.466 4.936-1.04-6.188c-.01-.005-.02-.009-.031-.012-4.198-1.526-8.89-.695-12.31 2.18-3.418 2.873-5.043 7.354-4.262 11.752.781 4.398 3.85 8.044 8.05 9.565z"/>
                <path stroke="#3F3D56" d="M652.242 191.249c5.972 2.166 12.619-.493 15.448-6.182 2.83-5.688.942-12.594-4.388-16.051l-1.466 4.936-1.04-6.188c-.01-.005-.02-.009-.031-.012-4.198-1.526-8.89-.695-12.31 2.18-3.418 2.873-5.043 7.354-4.262 11.752.781 4.398 3.85 8.044 8.05 9.565h0z"/>
                <path fill="#398E8F" fill-rule="nonzero" d="M636.192 216.664c1.023 5.821 5.982 10.13 11.888 10.329 5.906.199 11.144-3.767 12.557-9.506 1.412-5.739-1.388-11.683-6.712-14.248-5.324-2.565-11.716-1.05-15.323 3.632l5.57 8.386-7.611-4.45c-.59 1.894-.717 3.903-.369 5.857z"/>
                <path stroke="#3F3D56" d="M638.192 213.664c1.023 5.821 5.982 10.13 11.888 10.329 5.906.199 11.144-3.767 12.557-9.506 1.412-5.739-1.388-11.683-6.712-14.248-5.324-2.565-11.716-1.05-15.323 3.632l5.57 8.386-7.611-4.45c-.59 1.894-.717 3.903-.369 5.857z"/>
                <path fill="#398E8F" fill-rule="nonzero" d="M5.598 193.488c3.392 1.233 7.193.19 9.48-2.604 2.286-2.793 2.559-6.725.68-9.808-1.878-3.082-5.499-4.641-9.028-3.889l.212 4.375-2.07-3.75c-2.03.955-3.6 2.677-4.362 4.788-.27.74-.435 1.514-.489 2.3-.268 3.787 2.008 7.293 5.577 8.588z"/>
                <path stroke="#3F3D56" d="M15.568 245c-.715-3.694 2.385-6.969 5.447-9.097 3.063-2.129 6.641-4.22 7.686-7.833 1.502-5.191-2.971-9.946-6.453-14.046-2.583-3.042-4.801-6.385-6.608-9.957-.786-1.403-1.32-2.936-1.58-4.527-.275-2.302.454-4.592 1.189-6.787 2.447-7.312 5.064-14.563 7.85-21.753M5.598 193.488c3.392 1.233 7.193.19 9.48-2.604 2.286-2.793 2.559-6.725.68-9.808-1.878-3.082-5.498-4.641-9.028-3.889l.212 4.375-2.07-3.75c-2.03.955-3.6 2.677-4.362 4.788-.27.74-.435 1.514-.489 2.3-.268 3.787 2.008 7.293 5.577 8.588z"/>
                <path fill="#398E8F" fill-rule="nonzero" d="M14.51 170.6c.987-2.723 3.293-4.755 6.119-5.39l.7 4.159L22.625 165c3.697.055 6.934 2.493 8.007 6.032 1.074 3.538-.263 7.364-3.306 9.464-3.043 2.1-7.095 1.992-10.021-.268-2.927-2.26-4.057-6.152-2.796-9.628z"/>
                <path stroke="#3F3D56" d="M14.51 168.6c.987-2.723 3.293-4.755 6.119-5.39l.7 4.159L22.625 163c3.697.055 6.934 2.493 8.007 6.032 1.074 3.538-.263 7.364-3.306 9.464-3.043 2.1-7.095 1.992-10.021-.268-2.927-2.26-4.057-6.152-2.796-9.628h0z"/>
                <path fill="#398E8F" fill-rule="nonzero" d="M19.606 213.49c4.06 1.472 8.58-.336 10.504-4.204 1.924-3.868.64-8.564-2.984-10.915l-.997 3.356-.707-4.207-.021-.008c-2.855-1.038-6.046-.474-8.371 1.48-2.325 1.955-3.43 5.002-2.899 7.993.532 2.99 2.619 5.47 5.475 6.504z"/>
                <path stroke="#3F3D56" d="M19.603 213.49c4.061 1.472 8.582-.336 10.506-4.204 1.925-3.868.64-8.564-2.984-10.915l-.997 3.356-.707-4.207-.022-.008c-4.412-1.6-9.287.678-10.887 5.09-1.6 4.413.678 9.287 5.09 10.887h0z"/>
                <path fill="#398E8F" fill-rule="nonzero" d="M12.13 227.972c.696 3.958 4.069 6.888 8.085 7.023 4.016.135 7.578-2.561 8.538-6.464.96-3.902-.944-7.944-4.564-9.688-3.62-1.744-7.967-.714-10.42 2.47l3.788 5.702-5.176-3.027c-.401 1.289-.487 2.655-.25 3.984z"/>
                <path stroke="#3F3D56" d="M12.13 227.972c.696 3.958 4.069 6.888 8.085 7.023 4.016.135 7.578-2.561 8.538-6.464.96-3.902-.944-7.944-4.564-9.688-3.62-1.744-7.967-.714-10.42 2.47l3.788 5.702-5.176-3.027c-.401 1.289-.487 2.655-.25 3.984h0z"/>
                <path fill="#FFF" fill-rule="nonzero" d="M337 131.4c.004.943-.244 1.853-.695 2.544-.43.67-1.036 1.052-1.673 1.056h-5.263c-1.35-.067-2.408-1.676-2.368-3.6-.003-.731.148-1.447.432-2.056 1.164-.233 2.339-.348 3.515-.344 1.972-.01 3.938.313 5.857.96.13.458.196.947.195 1.44z"/>
                <circle cx="359" cy="93" r="4" fill="#FFF" fill-rule="nonzero"/>
            </g>
        </g>
    </g>
</svg>
