<svg xmlns="http://www.w3.org/2000/svg" width="20" height="22" viewBox="0 0 20 22">
    <g fill="none" fill-rule="evenodd">
        <g fill="#398E8F" fill-rule="nonzero" stroke="#398E8F" stroke-width=".5">
            <g>
                <g>
                    <g>
                        <path d="M3.574 17.63v-6.85c0-.357.297-.595.595-.595h8.934c.298 0 .596.298.596.596v6.85h1.608c.477 0 .775-.477.775-.894V5.717l-4.11-4.526h-.417v3.812c0 .298-.298.596-.596.596H4.23c-.358 0-.655-.298-.655-.596V1.191H1.966c-.477 0-.775.477-.775.894v14.652c0 .417.298.893.775.893h1.608zm8.934 0v-6.254H4.765v6.254h7.743zM1.966 0H12.21c.179 0 .357.06.477.238l4.407 4.825c.12.119.179.298.179.417v11.257c0 1.072-.834 2.084-1.966 2.084H1.966C.834 18.821 0 17.81 0 16.737V2.085C0 1.013.834 0 1.966 0zm8.398 1.191h-5.6v3.217h5.6V1.19z" transform="translate(-1225 -180) translate(1004 166) translate(216 10) translate(6.355 5.5)"/>
                        <path d="M6.552 13.818c-.775 0-.775-1.191 0-1.191h4.11c.774 0 .774 1.191 0 1.191h-4.11zM6.552 16.38c-.775 0-.775-1.192 0-1.192h4.11c.774 0 .774 1.191 0 1.191h-4.11z" transform="translate(-1225 -180) translate(1004 166) translate(216 10) translate(6.355 5.5)"/>
                    </g>
                </g>
            </g>
        </g>
    </g>
</svg>
