<svg xmlns="http://www.w3.org/2000/svg" width="42" height="39" viewBox="0 0 42 39">
    <g fill="none" fill-rule="evenodd">
        <g fill="#DBC2B5" fill-rule="nonzero">
            <g>
                <g>
                    <g>
                        <path d="M25.716 2.734l15.563 27.334c2.064 3.615-.553 8.112-4.714 8.112H5.435c-4.16 0-6.778-4.497-4.714-8.112L16.284 2.734c2.071-3.646 7.36-3.642 9.432 0zm-6.881 1.448L3.271 31.516c-.954 1.676.232 3.721 2.164 3.721h31.13c1.932 0 3.118-2.045 2.164-3.721L23.165 4.182c-.951-1.67-3.379-1.67-4.33 0zM21 27.952c1.026 0 1.86.833 1.86 1.867 0 1.033-.834 1.867-1.86 1.867-1.026 0-1.86-.834-1.86-1.86 0-1.04.834-1.875 1.86-1.875zm0-16c.812 0 1.471.66 1.471 1.471v10.589c0 .812-.659 1.47-1.471 1.47s-1.471-.658-1.471-1.47V13.423c0-.812.659-1.471 1.471-1.471z" transform="translate(-179 -65) translate(20 18) translate(142 30) translate(17 17)"/>
                    </g>
                </g>
            </g>
        </g>
    </g>
</svg>
